  0
SECTION
  2
HEADER
  9
$ACADVER
  1
AC1009
  9
$FILLMODE
 70
 0
  9
$SPLFRAME
 70
 1
  9
$EXTMIN
 10
0
 20
0
 30
0.0
  9
$EXTMAX
 10
1058.33
 20
1058.33
 30
0.0
  0
ENDSEC
  0
SECTION
  2
TABLES
  0
TABLE
  2
LAYER
 70
1
  0
LAYER
  2
0
 70
     0
 62
     7
  6
CONTINUOUS
  0
ENDTAB
  0
ENDSEC
  0
SECTION
  2
ENTITIES
  0
LINE
  8
0
 62
     0
 10
0.0950846
 20
124.083
 30
0.0
 11
295.37
 21
124.083
 31
0.0
  0
LINE
  8
0
 62
     0
 10
295.37
 20
124.083
 30
0.0
 11
295.37
 21
0.257693
 31
0.0
  0
LINE
  8
0
 62
     0
 10
295.37
 20
0.257693
 30
0.0
 11
0.0950846
 21
0.257693
 31
0.0
  0
LINE
  8
0
 62
     0
 10
0.0950846
 20
0.257693
 30
0.0
 11
0.0950846
 21
124.083
 31
0.0
  0
LINE
  8
0
 62
     0
 10
147.876
 20
21.5456
 30
0.0
 11
147.876
 21
20.5466
 31
0.0
  0
LINE
  8
0
 62
     0
 10
147.876
 20
20.5466
 30
0.0
 11
147.075
 21
20.5466
 31
0.0
  0
LINE
  8
0
 62
     0
 10
147.075
 20
20.5466
 30
0.0
 11
147.075
 21
17.446
 31
0.0
  0
LINE
  8
0
 62
     0
 10
147.075
 20
17.446
 30
0.0
 11
147.876
 21
17.446
 31
0.0
  0
LINE
  8
0
 62
     0
 10
147.876
 20
17.446
 30
0.0
 11
147.876
 21
16.8465
 31
0.0
  0
LINE
  8
0
 62
     0
 10
147.876
 20
16.8465
 30
0.0
 11
108.251
 21
16.8465
 31
0.0
  0
LINE
  8
0
 62
     0
 10
108.251
 20
16.8465
 30
0.0
 11
108.251
 21
20.0767
 31
0.0
  0
LINE
  8
0
 62
     0
 10
108.251
 20
20.0767
 30
0.0
 11
106.525
 21
20.0767
 31
0.0
  0
LINE
  8
0
 62
     0
 10
106.525
 20
20.0767
 30
0.0
 11
106.525
 21
20.9958
 31
0.0
  0
LINE
  8
0
 62
     0
 10
106.525
 20
20.9958
 30
0.0
 11
103.226
 21
20.9958
 31
0.0
  0
LINE
  8
0
 62
     0
 10
103.226
 20
20.9958
 30
0.0
 11
103.226
 21
20.0767
 31
0.0
  0
LINE
  8
0
 62
     0
 10
103.226
 20
20.0767
 30
0.0
 11
101.501
 21
20.0767
 31
0.0
  0
LINE
  8
0
 62
     0
 10
101.501
 20
20.0767
 30
0.0
 11
101.501
 21
16.8465
 31
0.0
  0
LINE
  8
0
 62
     0
 10
101.501
 20
16.8465
 30
0.0
 11
100.675
 21
16.8465
 31
0.0
  0
LINE
  8
0
 62
     0
 10
100.675
 20
16.8465
 30
0.0
 11
100.675
 21
14.0463
 31
0.0
  0
LINE
  8
0
 62
     0
 10
100.675
 20
14.0463
 30
0.0
 11
101.501
 21
14.0463
 31
0.0
  0
LINE
  8
0
 62
     0
 10
101.501
 20
14.0463
 30
0.0
 11
101.501
 21
7.77628
 31
0.0
  0
LINE
  8
0
 62
     0
 10
101.501
 20
7.77628
 30
0.0
 11
103.226
 21
7.77628
 31
0.0
  0
LINE
  8
0
 62
     0
 10
103.226
 20
7.77628
 30
0.0
 11
103.226
 21
6.79648
 31
0.0
  0
LINE
  8
0
 62
     0
 10
103.226
 20
6.79648
 30
0.0
 11
106.525
 21
6.79648
 31
0.0
  0
LINE
  8
0
 62
     0
 10
106.525
 20
6.79648
 30
0.0
 11
106.525
 21
7.77628
 31
0.0
  0
LINE
  8
0
 62
     0
 10
106.525
 20
7.77628
 30
0.0
 11
108.251
 21
7.77628
 31
0.0
  0
LINE
  8
0
 62
     0
 10
108.251
 20
7.77628
 30
0.0
 11
108.251
 21
12.2466
 31
0.0
  0
LINE
  8
0
 62
     0
 10
108.251
 20
12.2466
 30
0.0
 11
147.876
 21
12.2466
 31
0.0
  0
LINE
  8
0
 62
     0
 10
147.876
 20
12.2466
 30
0.0
 11
147.876
 21
11.6458
 31
0.0
  0
LINE
  8
0
 62
     0
 10
147.876
 20
11.6458
 30
0.0
 11
147.075
 21
11.6458
 31
0.0
  0
LINE
  8
0
 62
     0
 10
147.075
 20
11.6458
 30
0.0
 11
147.075
 21
8.54661
 31
0.0
  0
LINE
  8
0
 62
     0
 10
147.075
 20
8.54661
 30
0.0
 11
147.876
 21
8.54661
 31
0.0
  0
LINE
  8
0
 62
     0
 10
147.876
 20
8.54661
 30
0.0
 11
147.876
 21
7.54613
 31
0.0
  0
LINE
  8
0
 62
     0
 10
147.876
 20
7.54613
 30
0.0
 11
161.875
 21
7.54613
 31
0.0
  0
LINE
  8
0
 62
     0
 10
161.875
 20
7.54613
 30
0.0
 11
161.875
 21
8.54661
 31
0.0
  0
LINE
  8
0
 62
     0
 10
161.875
 20
8.54661
 30
0.0
 11
162.676
 21
8.54661
 31
0.0
  0
LINE
  8
0
 62
     0
 10
162.676
 20
8.54661
 30
0.0
 11
162.676
 21
11.6458
 31
0.0
  0
LINE
  8
0
 62
     0
 10
162.676
 20
11.6458
 30
0.0
 11
161.875
 21
11.6458
 31
0.0
  0
LINE
  8
0
 62
     0
 10
161.875
 20
11.6458
 30
0.0
 11
161.875
 21
12.2466
 31
0.0
  0
LINE
  8
0
 62
     0
 10
161.875
 20
12.2466
 30
0.0
 11
201.501
 21
12.2466
 31
0.0
  0
LINE
  8
0
 62
     0
 10
201.501
 20
12.2466
 30
0.0
 11
201.501
 21
7.77628
 31
0.0
  0
LINE
  8
0
 62
     0
 10
201.501
 20
7.77628
 30
0.0
 11
203.225
 21
7.77628
 31
0.0
  0
LINE
  8
0
 62
     0
 10
203.225
 20
7.77628
 30
0.0
 11
203.225
 21
6.79648
 31
0.0
  0
LINE
  8
0
 62
     0
 10
203.225
 20
6.79648
 30
0.0
 11
206.525
 21
6.79648
 31
0.0
  0
LINE
  8
0
 62
     0
 10
206.525
 20
6.79648
 30
0.0
 11
206.525
 21
7.77628
 31
0.0
  0
LINE
  8
0
 62
     0
 10
206.525
 20
7.77628
 30
0.0
 11
208.25
 21
7.77628
 31
0.0
  0
LINE
  8
0
 62
     0
 10
208.25
 20
7.77628
 30
0.0
 11
208.25
 21
14.0463
 31
0.0
  0
LINE
  8
0
 62
     0
 10
208.25
 20
14.0463
 30
0.0
 11
209.076
 21
14.0463
 31
0.0
  0
LINE
  8
0
 62
     0
 10
209.076
 20
14.0463
 30
0.0
 11
209.076
 21
16.8465
 31
0.0
  0
LINE
  8
0
 62
     0
 10
209.076
 20
16.8465
 30
0.0
 11
208.25
 21
16.8465
 31
0.0
  0
LINE
  8
0
 62
     0
 10
208.25
 20
16.8465
 30
0.0
 11
208.25
 21
20.0767
 31
0.0
  0
LINE
  8
0
 62
     0
 10
208.25
 20
20.0767
 30
0.0
 11
206.525
 21
20.0767
 31
0.0
  0
LINE
  8
0
 62
     0
 10
206.525
 20
20.0767
 30
0.0
 11
206.525
 21
20.9958
 31
0.0
  0
LINE
  8
0
 62
     0
 10
206.525
 20
20.9958
 30
0.0
 11
203.225
 21
20.9958
 31
0.0
  0
LINE
  8
0
 62
     0
 10
203.225
 20
20.9958
 30
0.0
 11
203.225
 21
20.0767
 31
0.0
  0
LINE
  8
0
 62
     0
 10
203.225
 20
20.0767
 30
0.0
 11
201.501
 21
20.0767
 31
0.0
  0
LINE
  8
0
 62
     0
 10
201.501
 20
20.0767
 30
0.0
 11
201.501
 21
16.8465
 31
0.0
  0
LINE
  8
0
 62
     0
 10
201.501
 20
16.8465
 30
0.0
 11
161.875
 21
16.8465
 31
0.0
  0
LINE
  8
0
 62
     0
 10
161.875
 20
16.8465
 30
0.0
 11
161.875
 21
17.446
 31
0.0
  0
LINE
  8
0
 62
     0
 10
161.875
 20
17.446
 30
0.0
 11
162.676
 21
17.446
 31
0.0
  0
LINE
  8
0
 62
     0
 10
162.676
 20
17.446
 30
0.0
 11
162.676
 21
20.5466
 31
0.0
  0
LINE
  8
0
 62
     0
 10
162.676
 20
20.5466
 30
0.0
 11
161.875
 21
20.5466
 31
0.0
  0
LINE
  8
0
 62
     0
 10
161.875
 20
20.5466
 30
0.0
 11
161.875
 21
21.5456
 31
0.0
  0
LINE
  8
0
 62
     0
 10
161.875
 20
21.5456
 30
0.0
 11
147.876
 21
21.5456
 31
0.0
  0
LINE
  8
0
 62
     0
 10
9.76203
 20
21.5456
 30
0.0
 11
9.76203
 21
20.5466
 31
0.0
  0
LINE
  8
0
 62
     0
 10
9.76203
 20
20.5466
 30
0.0
 11
8.96278
 21
20.5466
 31
0.0
  0
LINE
  8
0
 62
     0
 10
8.96278
 20
20.5466
 30
0.0
 11
8.96278
 21
17.446
 31
0.0
  0
LINE
  8
0
 62
     0
 10
8.96278
 20
17.446
 30
0.0
 11
9.76203
 21
17.446
 31
0.0
  0
LINE
  8
0
 62
     0
 10
9.76203
 20
17.446
 30
0.0
 11
9.76203
 21
11.6458
 31
0.0
  0
LINE
  8
0
 62
     0
 10
9.76203
 20
11.6458
 30
0.0
 11
8.96278
 21
11.6458
 31
0.0
  0
LINE
  8
0
 62
     0
 10
8.96278
 20
11.6458
 30
0.0
 11
8.96278
 21
8.54661
 31
0.0
  0
LINE
  8
0
 62
     0
 10
8.96278
 20
8.54661
 30
0.0
 11
9.76203
 21
8.54661
 31
0.0
  0
LINE
  8
0
 62
     0
 10
9.76203
 20
8.54661
 30
0.0
 11
9.76203
 21
7.54613
 31
0.0
  0
LINE
  8
0
 62
     0
 10
9.76203
 20
7.54613
 30
0.0
 11
23.7629
 21
7.54613
 31
0.0
  0
LINE
  8
0
 62
     0
 10
23.7629
 20
7.54613
 30
0.0
 11
23.7629
 21
8.54661
 31
0.0
  0
LINE
  8
0
 62
     0
 10
23.7629
 20
8.54661
 30
0.0
 11
24.5622
 21
8.54661
 31
0.0
  0
LINE
  8
0
 62
     0
 10
24.5622
 20
8.54661
 30
0.0
 11
24.5622
 21
11.6458
 31
0.0
  0
LINE
  8
0
 62
     0
 10
24.5622
 20
11.6458
 30
0.0
 11
23.7629
 21
11.6458
 31
0.0
  0
LINE
  8
0
 62
     0
 10
23.7629
 20
11.6458
 30
0.0
 11
23.7629
 21
17.446
 31
0.0
  0
LINE
  8
0
 62
     0
 10
23.7629
 20
17.446
 30
0.0
 11
24.5622
 21
17.446
 31
0.0
  0
LINE
  8
0
 62
     0
 10
24.5622
 20
17.446
 30
0.0
 11
24.5622
 21
20.5466
 31
0.0
  0
LINE
  8
0
 62
     0
 10
24.5622
 20
20.5466
 30
0.0
 11
23.7629
 21
20.5466
 31
0.0
  0
LINE
  8
0
 62
     0
 10
23.7629
 20
20.5466
 30
0.0
 11
23.7629
 21
21.5456
 31
0.0
  0
LINE
  8
0
 62
     0
 10
23.7629
 20
21.5456
 30
0.0
 11
9.76203
 21
21.5456
 31
0.0
  0
LINE
  8
0
 62
     0
 10
33.5759
 20
21.5456
 30
0.0
 11
33.5759
 21
20.5466
 31
0.0
  0
LINE
  8
0
 62
     0
 10
33.5759
 20
20.5466
 30
0.0
 11
32.7753
 21
20.5466
 31
0.0
  0
LINE
  8
0
 62
     0
 10
32.7753
 20
20.5466
 30
0.0
 11
32.7753
 21
17.446
 31
0.0
  0
LINE
  8
0
 62
     0
 10
32.7753
 20
17.446
 30
0.0
 11
33.5759
 21
17.446
 31
0.0
  0
LINE
  8
0
 62
     0
 10
33.5759
 20
17.446
 30
0.0
 11
33.5759
 21
11.6458
 31
0.0
  0
LINE
  8
0
 62
     0
 10
33.5759
 20
11.6458
 30
0.0
 11
32.7753
 21
11.6458
 31
0.0
  0
LINE
  8
0
 62
     0
 10
32.7753
 20
11.6458
 30
0.0
 11
32.7753
 21
8.54661
 31
0.0
  0
LINE
  8
0
 62
     0
 10
32.7753
 20
8.54661
 30
0.0
 11
33.5759
 21
8.54661
 31
0.0
  0
LINE
  8
0
 62
     0
 10
33.5759
 20
8.54661
 30
0.0
 11
33.5759
 21
7.54613
 31
0.0
  0
LINE
  8
0
 62
     0
 10
33.5759
 20
7.54613
 30
0.0
 11
47.5753
 21
7.54613
 31
0.0
  0
LINE
  8
0
 62
     0
 10
47.5753
 20
7.54613
 30
0.0
 11
47.5753
 21
8.54661
 31
0.0
  0
LINE
  8
0
 62
     0
 10
47.5753
 20
8.54661
 30
0.0
 11
48.3761
 21
8.54661
 31
0.0
  0
LINE
  8
0
 62
     0
 10
48.3761
 20
8.54661
 30
0.0
 11
48.3761
 21
11.6458
 31
0.0
  0
LINE
  8
0
 62
     0
 10
48.3761
 20
11.6458
 30
0.0
 11
47.5753
 21
11.6458
 31
0.0
  0
LINE
  8
0
 62
     0
 10
47.5753
 20
11.6458
 30
0.0
 11
47.5753
 21
17.446
 31
0.0
  0
LINE
  8
0
 62
     0
 10
47.5753
 20
17.446
 30
0.0
 11
48.3761
 21
17.446
 31
0.0
  0
LINE
  8
0
 62
     0
 10
48.3761
 20
17.446
 30
0.0
 11
48.3761
 21
20.5466
 31
0.0
  0
LINE
  8
0
 62
     0
 10
48.3761
 20
20.5466
 30
0.0
 11
47.5753
 21
20.5466
 31
0.0
  0
LINE
  8
0
 62
     0
 10
47.5753
 20
20.5466
 30
0.0
 11
47.5753
 21
21.5456
 31
0.0
  0
LINE
  8
0
 62
     0
 10
47.5753
 20
21.5456
 30
0.0
 11
33.5759
 21
21.5456
 31
0.0
  0
LINE
  8
0
 62
     0
 10
57.3871
 20
21.5456
 30
0.0
 11
57.3871
 21
20.5466
 31
0.0
  0
LINE
  8
0
 62
     0
 10
57.3871
 20
20.5466
 30
0.0
 11
56.5877
 21
20.5466
 31
0.0
  0
LINE
  8
0
 62
     0
 10
56.5877
 20
20.5466
 30
0.0
 11
56.5877
 21
17.446
 31
0.0
  0
LINE
  8
0
 62
     0
 10
56.5877
 20
17.446
 30
0.0
 11
57.3871
 21
17.446
 31
0.0
  0
LINE
  8
0
 62
     0
 10
57.3871
 20
17.446
 30
0.0
 11
57.3871
 21
11.6458
 31
0.0
  0
LINE
  8
0
 62
     0
 10
57.3871
 20
11.6458
 30
0.0
 11
56.5877
 21
11.6458
 31
0.0
  0
LINE
  8
0
 62
     0
 10
56.5877
 20
11.6458
 30
0.0
 11
56.5877
 21
8.54661
 31
0.0
  0
LINE
  8
0
 62
     0
 10
56.5877
 20
8.54661
 30
0.0
 11
57.3871
 21
8.54661
 31
0.0
  0
LINE
  8
0
 62
     0
 10
57.3871
 20
8.54661
 30
0.0
 11
57.3871
 21
7.54613
 31
0.0
  0
LINE
  8
0
 62
     0
 10
57.3871
 20
7.54613
 30
0.0
 11
71.3878
 21
7.54613
 31
0.0
  0
LINE
  8
0
 62
     0
 10
71.3878
 20
7.54613
 30
0.0
 11
71.3878
 21
8.54661
 31
0.0
  0
LINE
  8
0
 62
     0
 10
71.3878
 20
8.54661
 30
0.0
 11
72.1872
 21
8.54661
 31
0.0
  0
LINE
  8
0
 62
     0
 10
72.1872
 20
8.54661
 30
0.0
 11
72.1872
 21
11.6458
 31
0.0
  0
LINE
  8
0
 62
     0
 10
72.1872
 20
11.6458
 30
0.0
 11
71.3878
 21
11.6458
 31
0.0
  0
LINE
  8
0
 62
     0
 10
71.3878
 20
11.6458
 30
0.0
 11
71.3878
 21
17.446
 31
0.0
  0
LINE
  8
0
 62
     0
 10
71.3878
 20
17.446
 30
0.0
 11
72.1872
 21
17.446
 31
0.0
  0
LINE
  8
0
 62
     0
 10
72.1872
 20
17.446
 30
0.0
 11
72.1872
 21
20.5466
 31
0.0
  0
LINE
  8
0
 62
     0
 10
72.1872
 20
20.5466
 30
0.0
 11
71.3878
 21
20.5466
 31
0.0
  0
LINE
  8
0
 62
     0
 10
71.3878
 20
20.5466
 30
0.0
 11
71.3878
 21
21.5456
 31
0.0
  0
LINE
  8
0
 62
     0
 10
71.3878
 20
21.5456
 30
0.0
 11
57.3871
 21
21.5456
 31
0.0
  0
LINE
  8
0
 62
     0
 10
78.8197
 20
21.5456
 30
0.0
 11
78.8197
 21
20.5466
 31
0.0
  0
LINE
  8
0
 62
     0
 10
78.8197
 20
20.5466
 30
0.0
 11
78.0189
 21
20.5466
 31
0.0
  0
LINE
  8
0
 62
     0
 10
78.0189
 20
20.5466
 30
0.0
 11
78.0189
 21
17.446
 31
0.0
  0
LINE
  8
0
 62
     0
 10
78.0189
 20
17.446
 30
0.0
 11
78.8197
 21
17.446
 31
0.0
  0
LINE
  8
0
 62
     0
 10
78.8197
 20
17.446
 30
0.0
 11
78.8197
 21
11.6458
 31
0.0
  0
LINE
  8
0
 62
     0
 10
78.8197
 20
11.6458
 30
0.0
 11
78.0189
 21
11.6458
 31
0.0
  0
LINE
  8
0
 62
     0
 10
78.0189
 20
11.6458
 30
0.0
 11
78.0189
 21
8.54661
 31
0.0
  0
LINE
  8
0
 62
     0
 10
78.0189
 20
8.54661
 30
0.0
 11
78.8197
 21
8.54661
 31
0.0
  0
LINE
  8
0
 62
     0
 10
78.8197
 20
8.54661
 30
0.0
 11
78.8197
 21
7.54613
 31
0.0
  0
LINE
  8
0
 62
     0
 10
78.8197
 20
7.54613
 30
0.0
 11
92.819
 21
7.54613
 31
0.0
  0
LINE
  8
0
 62
     0
 10
92.819
 20
7.54613
 30
0.0
 11
92.819
 21
8.54661
 31
0.0
  0
LINE
  8
0
 62
     0
 10
92.819
 20
8.54661
 30
0.0
 11
93.6184
 21
8.54661
 31
0.0
  0
LINE
  8
0
 62
     0
 10
93.6184
 20
8.54661
 30
0.0
 11
93.6184
 21
11.6458
 31
0.0
  0
LINE
  8
0
 62
     0
 10
93.6184
 20
11.6458
 30
0.0
 11
92.819
 21
11.6458
 31
0.0
  0
LINE
  8
0
 62
     0
 10
92.819
 20
11.6458
 30
0.0
 11
92.819
 21
17.446
 31
0.0
  0
LINE
  8
0
 62
     0
 10
92.819
 20
17.446
 30
0.0
 11
93.6184
 21
17.446
 31
0.0
  0
LINE
  8
0
 62
     0
 10
93.6184
 20
17.446
 30
0.0
 11
93.6184
 21
20.5466
 31
0.0
  0
LINE
  8
0
 62
     0
 10
93.6184
 20
20.5466
 30
0.0
 11
92.819
 21
20.5466
 31
0.0
  0
LINE
  8
0
 62
     0
 10
92.819
 20
20.5466
 30
0.0
 11
92.819
 21
21.5456
 31
0.0
  0
LINE
  8
0
 62
     0
 10
92.819
 20
21.5456
 30
0.0
 11
78.8197
 21
21.5456
 31
0.0
  0
LINE
  8
0
 62
     0
 10
216.932
 20
21.5456
 30
0.0
 11
216.932
 21
20.5466
 31
0.0
  0
LINE
  8
0
 62
     0
 10
216.932
 20
20.5466
 30
0.0
 11
216.131
 21
20.5466
 31
0.0
  0
LINE
  8
0
 62
     0
 10
216.131
 20
20.5466
 30
0.0
 11
216.131
 21
17.446
 31
0.0
  0
LINE
  8
0
 62
     0
 10
216.131
 20
17.446
 30
0.0
 11
216.932
 21
17.446
 31
0.0
  0
LINE
  8
0
 62
     0
 10
216.932
 20
17.446
 30
0.0
 11
216.932
 21
11.6458
 31
0.0
  0
LINE
  8
0
 62
     0
 10
216.932
 20
11.6458
 30
0.0
 11
216.131
 21
11.6458
 31
0.0
  0
LINE
  8
0
 62
     0
 10
216.131
 20
11.6458
 30
0.0
 11
216.131
 21
8.54661
 31
0.0
  0
LINE
  8
0
 62
     0
 10
216.131
 20
8.54661
 30
0.0
 11
216.932
 21
8.54661
 31
0.0
  0
LINE
  8
0
 62
     0
 10
216.932
 20
8.54661
 30
0.0
 11
216.932
 21
7.54613
 31
0.0
  0
LINE
  8
0
 62
     0
 10
216.932
 20
7.54613
 30
0.0
 11
230.932
 21
7.54613
 31
0.0
  0
LINE
  8
0
 62
     0
 10
230.932
 20
7.54613
 30
0.0
 11
230.932
 21
8.54661
 31
0.0
  0
LINE
  8
0
 62
     0
 10
230.932
 20
8.54661
 30
0.0
 11
231.731
 21
8.54661
 31
0.0
  0
LINE
  8
0
 62
     0
 10
231.731
 20
8.54661
 30
0.0
 11
231.731
 21
11.6458
 31
0.0
  0
LINE
  8
0
 62
     0
 10
231.731
 20
11.6458
 30
0.0
 11
230.932
 21
11.6458
 31
0.0
  0
LINE
  8
0
 62
     0
 10
230.932
 20
11.6458
 30
0.0
 11
230.932
 21
17.446
 31
0.0
  0
LINE
  8
0
 62
     0
 10
230.932
 20
17.446
 30
0.0
 11
231.731
 21
17.446
 31
0.0
  0
LINE
  8
0
 62
     0
 10
231.731
 20
17.446
 30
0.0
 11
231.731
 21
20.5466
 31
0.0
  0
LINE
  8
0
 62
     0
 10
231.731
 20
20.5466
 30
0.0
 11
230.932
 21
20.5466
 31
0.0
  0
LINE
  8
0
 62
     0
 10
230.932
 20
20.5466
 30
0.0
 11
230.932
 21
21.5456
 31
0.0
  0
LINE
  8
0
 62
     0
 10
230.932
 20
21.5456
 30
0.0
 11
216.932
 21
21.5456
 31
0.0
  0
LINE
  8
0
 62
     0
 10
235.982
 20
21.5456
 30
0.0
 11
235.982
 21
20.5466
 31
0.0
  0
LINE
  8
0
 62
     0
 10
235.982
 20
20.5466
 30
0.0
 11
235.181
 21
20.5466
 31
0.0
  0
LINE
  8
0
 62
     0
 10
235.181
 20
20.5466
 30
0.0
 11
235.181
 21
17.446
 31
0.0
  0
LINE
  8
0
 62
     0
 10
235.181
 20
17.446
 30
0.0
 11
235.982
 21
17.446
 31
0.0
  0
LINE
  8
0
 62
     0
 10
235.982
 20
17.446
 30
0.0
 11
235.982
 21
11.6458
 31
0.0
  0
LINE
  8
0
 62
     0
 10
235.982
 20
11.6458
 30
0.0
 11
235.181
 21
11.6458
 31
0.0
  0
LINE
  8
0
 62
     0
 10
235.181
 20
11.6458
 30
0.0
 11
235.181
 21
8.54661
 31
0.0
  0
LINE
  8
0
 62
     0
 10
235.181
 20
8.54661
 30
0.0
 11
235.982
 21
8.54661
 31
0.0
  0
LINE
  8
0
 62
     0
 10
235.982
 20
8.54661
 30
0.0
 11
235.982
 21
7.54613
 31
0.0
  0
LINE
  8
0
 62
     0
 10
235.982
 20
7.54613
 30
0.0
 11
249.982
 21
7.54613
 31
0.0
  0
LINE
  8
0
 62
     0
 10
249.982
 20
7.54613
 30
0.0
 11
249.982
 21
8.54661
 31
0.0
  0
LINE
  8
0
 62
     0
 10
249.982
 20
8.54661
 30
0.0
 11
250.781
 21
8.54661
 31
0.0
  0
LINE
  8
0
 62
     0
 10
250.781
 20
8.54661
 30
0.0
 11
250.781
 21
11.6458
 31
0.0
  0
LINE
  8
0
 62
     0
 10
250.781
 20
11.6458
 30
0.0
 11
249.982
 21
11.6458
 31
0.0
  0
LINE
  8
0
 62
     0
 10
249.982
 20
11.6458
 30
0.0
 11
249.982
 21
17.446
 31
0.0
  0
LINE
  8
0
 62
     0
 10
249.982
 20
17.446
 30
0.0
 11
250.781
 21
17.446
 31
0.0
  0
LINE
  8
0
 62
     0
 10
250.781
 20
17.446
 30
0.0
 11
250.781
 21
20.5466
 31
0.0
  0
LINE
  8
0
 62
     0
 10
250.781
 20
20.5466
 30
0.0
 11
249.982
 21
20.5466
 31
0.0
  0
LINE
  8
0
 62
     0
 10
249.982
 20
20.5466
 30
0.0
 11
249.982
 21
21.5456
 31
0.0
  0
LINE
  8
0
 62
     0
 10
249.982
 20
21.5456
 30
0.0
 11
235.982
 21
21.5456
 31
0.0
  0
LINE
  8
0
 62
     0
 10
255.032
 20
21.5456
 30
0.0
 11
255.032
 21
20.5466
 31
0.0
  0
LINE
  8
0
 62
     0
 10
255.032
 20
20.5466
 30
0.0
 11
254.231
 21
20.5466
 31
0.0
  0
LINE
  8
0
 62
     0
 10
254.231
 20
20.5466
 30
0.0
 11
254.231
 21
17.446
 31
0.0
  0
LINE
  8
0
 62
     0
 10
254.231
 20
17.446
 30
0.0
 11
255.032
 21
17.446
 31
0.0
  0
LINE
  8
0
 62
     0
 10
255.032
 20
17.446
 30
0.0
 11
255.032
 21
11.6458
 31
0.0
  0
LINE
  8
0
 62
     0
 10
255.032
 20
11.6458
 30
0.0
 11
254.231
 21
11.6458
 31
0.0
  0
LINE
  8
0
 62
     0
 10
254.231
 20
11.6458
 30
0.0
 11
254.231
 21
8.54661
 31
0.0
  0
LINE
  8
0
 62
     0
 10
254.231
 20
8.54661
 30
0.0
 11
255.032
 21
8.54661
 31
0.0
  0
LINE
  8
0
 62
     0
 10
255.032
 20
8.54661
 30
0.0
 11
255.032
 21
7.54613
 31
0.0
  0
LINE
  8
0
 62
     0
 10
255.032
 20
7.54613
 30
0.0
 11
269.032
 21
7.54613
 31
0.0
  0
LINE
  8
0
 62
     0
 10
269.032
 20
7.54613
 30
0.0
 11
269.032
 21
8.54661
 31
0.0
  0
LINE
  8
0
 62
     0
 10
269.032
 20
8.54661
 30
0.0
 11
269.831
 21
8.54661
 31
0.0
  0
LINE
  8
0
 62
     0
 10
269.831
 20
8.54661
 30
0.0
 11
269.831
 21
11.6458
 31
0.0
  0
LINE
  8
0
 62
     0
 10
269.831
 20
11.6458
 30
0.0
 11
269.032
 21
11.6458
 31
0.0
  0
LINE
  8
0
 62
     0
 10
269.032
 20
11.6458
 30
0.0
 11
269.032
 21
17.446
 31
0.0
  0
LINE
  8
0
 62
     0
 10
269.032
 20
17.446
 30
0.0
 11
269.831
 21
17.446
 31
0.0
  0
LINE
  8
0
 62
     0
 10
269.831
 20
17.446
 30
0.0
 11
269.831
 21
20.5466
 31
0.0
  0
LINE
  8
0
 62
     0
 10
269.831
 20
20.5466
 30
0.0
 11
269.032
 21
20.5466
 31
0.0
  0
LINE
  8
0
 62
     0
 10
269.032
 20
20.5466
 30
0.0
 11
269.032
 21
21.5456
 31
0.0
  0
LINE
  8
0
 62
     0
 10
269.032
 20
21.5456
 30
0.0
 11
255.032
 21
21.5456
 31
0.0
  0
LINE
  8
0
 62
     0
 10
274.082
 20
21.5456
 30
0.0
 11
274.082
 21
20.5466
 31
0.0
  0
LINE
  8
0
 62
     0
 10
274.082
 20
20.5466
 30
0.0
 11
273.281
 21
20.5466
 31
0.0
  0
LINE
  8
0
 62
     0
 10
273.281
 20
20.5466
 30
0.0
 11
273.281
 21
17.446
 31
0.0
  0
LINE
  8
0
 62
     0
 10
273.281
 20
17.446
 30
0.0
 11
274.082
 21
17.446
 31
0.0
  0
LINE
  8
0
 62
     0
 10
274.082
 20
17.446
 30
0.0
 11
274.082
 21
11.6458
 31
0.0
  0
LINE
  8
0
 62
     0
 10
274.082
 20
11.6458
 30
0.0
 11
273.281
 21
11.6458
 31
0.0
  0
LINE
  8
0
 62
     0
 10
273.281
 20
11.6458
 30
0.0
 11
273.281
 21
8.54661
 31
0.0
  0
LINE
  8
0
 62
     0
 10
273.281
 20
8.54661
 30
0.0
 11
274.082
 21
8.54661
 31
0.0
  0
LINE
  8
0
 62
     0
 10
274.082
 20
8.54661
 30
0.0
 11
274.082
 21
7.54613
 31
0.0
  0
LINE
  8
0
 62
     0
 10
274.082
 20
7.54613
 30
0.0
 11
288.082
 21
7.54613
 31
0.0
  0
LINE
  8
0
 62
     0
 10
288.082
 20
7.54613
 30
0.0
 11
288.082
 21
8.54661
 31
0.0
  0
LINE
  8
0
 62
     0
 10
288.082
 20
8.54661
 30
0.0
 11
288.881
 21
8.54661
 31
0.0
  0
LINE
  8
0
 62
     0
 10
288.881
 20
8.54661
 30
0.0
 11
288.881
 21
11.6458
 31
0.0
  0
LINE
  8
0
 62
     0
 10
288.881
 20
11.6458
 30
0.0
 11
288.082
 21
11.6458
 31
0.0
  0
LINE
  8
0
 62
     0
 10
288.082
 20
11.6458
 30
0.0
 11
288.082
 21
17.446
 31
0.0
  0
LINE
  8
0
 62
     0
 10
288.082
 20
17.446
 30
0.0
 11
288.881
 21
17.446
 31
0.0
  0
LINE
  8
0
 62
     0
 10
288.881
 20
17.446
 30
0.0
 11
288.881
 21
20.5466
 31
0.0
  0
LINE
  8
0
 62
     0
 10
288.881
 20
20.5466
 30
0.0
 11
288.082
 21
20.5466
 31
0.0
  0
LINE
  8
0
 62
     0
 10
288.082
 20
20.5466
 30
0.0
 11
288.082
 21
21.5456
 31
0.0
  0
LINE
  8
0
 62
     0
 10
288.082
 20
21.5456
 30
0.0
 11
274.082
 21
21.5456
 31
0.0
  0
LINE
  8
0
 62
     0
 10
19.287
 20
40.5955
 30
0.0
 11
19.287
 21
39.5965
 31
0.0
  0
LINE
  8
0
 62
     0
 10
19.287
 20
39.5965
 30
0.0
 11
18.4878
 21
39.5965
 31
0.0
  0
LINE
  8
0
 62
     0
 10
18.4878
 20
39.5965
 30
0.0
 11
18.4878
 21
36.4959
 31
0.0
  0
LINE
  8
0
 62
     0
 10
18.4878
 20
36.4959
 30
0.0
 11
19.287
 21
36.4959
 31
0.0
  0
LINE
  8
0
 62
     0
 10
19.287
 20
36.4959
 30
0.0
 11
19.287
 21
35.8965
 31
0.0
  0
LINE
  8
0
 62
     0
 10
19.287
 20
35.8965
 30
0.0
 11
17.7629
 21
35.8965
 31
0.0
  0
LINE
  8
0
 62
     0
 10
17.7629
 20
35.8965
 30
0.0
 11
17.7629
 21
39.1266
 31
0.0
  0
LINE
  8
0
 62
     0
 10
17.7629
 20
39.1266
 30
0.0
 11
16.0376
 21
39.1266
 31
0.0
  0
LINE
  8
0
 62
     0
 10
16.0376
 20
39.1266
 30
0.0
 11
16.0376
 21
40.0459
 31
0.0
  0
LINE
  8
0
 62
     0
 10
16.0376
 20
40.0459
 30
0.0
 11
12.7372
 21
40.0459
 31
0.0
  0
LINE
  8
0
 62
     0
 10
12.7372
 20
40.0459
 30
0.0
 11
12.7372
 21
39.1266
 31
0.0
  0
LINE
  8
0
 62
     0
 10
12.7372
 20
39.1266
 30
0.0
 11
11.0119
 21
39.1266
 31
0.0
  0
LINE
  8
0
 62
     0
 10
11.0119
 20
39.1266
 30
0.0
 11
11.0119
 21
35.8965
 31
0.0
  0
LINE
  8
0
 62
     0
 10
11.0119
 20
35.8965
 30
0.0
 11
10.1878
 21
35.8965
 31
0.0
  0
LINE
  8
0
 62
     0
 10
10.1878
 20
35.8965
 30
0.0
 11
10.1878
 21
33.0963
 31
0.0
  0
LINE
  8
0
 62
     0
 10
10.1878
 20
33.0963
 30
0.0
 11
11.0119
 21
33.0963
 31
0.0
  0
LINE
  8
0
 62
     0
 10
11.0119
 20
33.0963
 30
0.0
 11
11.0119
 21
26.8263
 31
0.0
  0
LINE
  8
0
 62
     0
 10
11.0119
 20
26.8263
 30
0.0
 11
12.7372
 21
26.8263
 31
0.0
  0
LINE
  8
0
 62
     0
 10
12.7372
 20
26.8263
 30
0.0
 11
12.7372
 21
25.8465
 31
0.0
  0
LINE
  8
0
 62
     0
 10
12.7372
 20
25.8465
 30
0.0
 11
16.0376
 21
25.8465
 31
0.0
  0
LINE
  8
0
 62
     0
 10
16.0376
 20
25.8465
 30
0.0
 11
16.0376
 21
26.8263
 31
0.0
  0
LINE
  8
0
 62
     0
 10
16.0376
 20
26.8263
 30
0.0
 11
17.7629
 21
26.8263
 31
0.0
  0
LINE
  8
0
 62
     0
 10
17.7629
 20
26.8263
 30
0.0
 11
17.7629
 21
31.2966
 31
0.0
  0
LINE
  8
0
 62
     0
 10
17.7629
 20
31.2966
 30
0.0
 11
19.287
 21
31.2966
 31
0.0
  0
LINE
  8
0
 62
     0
 10
19.287
 20
31.2966
 30
0.0
 11
19.287
 21
30.6958
 31
0.0
  0
LINE
  8
0
 62
     0
 10
19.287
 20
30.6958
 30
0.0
 11
18.4878
 21
30.6958
 31
0.0
  0
LINE
  8
0
 62
     0
 10
18.4878
 20
30.6958
 30
0.0
 11
18.4878
 21
27.5966
 31
0.0
  0
LINE
  8
0
 62
     0
 10
18.4878
 20
27.5966
 30
0.0
 11
19.287
 21
27.5966
 31
0.0
  0
LINE
  8
0
 62
     0
 10
19.287
 20
27.5966
 30
0.0
 11
19.287
 21
26.5961
 31
0.0
  0
LINE
  8
0
 62
     0
 10
19.287
 20
26.5961
 30
0.0
 11
33.2879
 21
26.5961
 31
0.0
  0
LINE
  8
0
 62
     0
 10
33.2879
 20
26.5961
 30
0.0
 11
33.2879
 21
27.5966
 31
0.0
  0
LINE
  8
0
 62
     0
 10
33.2879
 20
27.5966
 30
0.0
 11
34.0872
 21
27.5966
 31
0.0
  0
LINE
  8
0
 62
     0
 10
34.0872
 20
27.5966
 30
0.0
 11
34.0872
 21
30.6958
 31
0.0
  0
LINE
  8
0
 62
     0
 10
34.0872
 20
30.6958
 30
0.0
 11
33.2879
 21
30.6958
 31
0.0
  0
LINE
  8
0
 62
     0
 10
33.2879
 20
30.6958
 30
0.0
 11
33.2879
 21
31.2966
 31
0.0
  0
LINE
  8
0
 62
     0
 10
33.2879
 20
31.2966
 30
0.0
 11
34.812
 21
31.2966
 31
0.0
  0
LINE
  8
0
 62
     0
 10
34.812
 20
31.2966
 30
0.0
 11
34.812
 21
26.8263
 31
0.0
  0
LINE
  8
0
 62
     0
 10
34.812
 20
26.8263
 30
0.0
 11
36.5372
 21
26.8263
 31
0.0
  0
LINE
  8
0
 62
     0
 10
36.5372
 20
26.8263
 30
0.0
 11
36.5372
 21
25.8465
 31
0.0
  0
LINE
  8
0
 62
     0
 10
36.5372
 20
25.8465
 30
0.0
 11
39.8378
 21
25.8465
 31
0.0
  0
LINE
  8
0
 62
     0
 10
39.8378
 20
25.8465
 30
0.0
 11
39.8378
 21
26.8263
 31
0.0
  0
LINE
  8
0
 62
     0
 10
39.8378
 20
26.8263
 30
0.0
 11
41.5629
 21
26.8263
 31
0.0
  0
LINE
  8
0
 62
     0
 10
41.5629
 20
26.8263
 30
0.0
 11
41.5629
 21
33.0963
 31
0.0
  0
LINE
  8
0
 62
     0
 10
41.5629
 20
33.0963
 30
0.0
 11
42.387
 21
33.0963
 31
0.0
  0
LINE
  8
0
 62
     0
 10
42.387
 20
33.0963
 30
0.0
 11
42.387
 21
35.8965
 31
0.0
  0
LINE
  8
0
 62
     0
 10
42.387
 20
35.8965
 30
0.0
 11
41.5629
 21
35.8965
 31
0.0
  0
LINE
  8
0
 62
     0
 10
41.5629
 20
35.8965
 30
0.0
 11
41.5629
 21
39.1266
 31
0.0
  0
LINE
  8
0
 62
     0
 10
41.5629
 20
39.1266
 30
0.0
 11
39.8378
 21
39.1266
 31
0.0
  0
LINE
  8
0
 62
     0
 10
39.8378
 20
39.1266
 30
0.0
 11
39.8378
 21
40.0459
 31
0.0
  0
LINE
  8
0
 62
     0
 10
39.8378
 20
40.0459
 30
0.0
 11
36.5372
 21
40.0459
 31
0.0
  0
LINE
  8
0
 62
     0
 10
36.5372
 20
40.0459
 30
0.0
 11
36.5372
 21
39.1266
 31
0.0
  0
LINE
  8
0
 62
     0
 10
36.5372
 20
39.1266
 30
0.0
 11
34.812
 21
39.1266
 31
0.0
  0
LINE
  8
0
 62
     0
 10
34.812
 20
39.1266
 30
0.0
 11
34.812
 21
35.8965
 31
0.0
  0
LINE
  8
0
 62
     0
 10
34.812
 20
35.8965
 30
0.0
 11
33.2879
 21
35.8965
 31
0.0
  0
LINE
  8
0
 62
     0
 10
33.2879
 20
35.8965
 30
0.0
 11
33.2879
 21
36.4959
 31
0.0
  0
LINE
  8
0
 62
     0
 10
33.2879
 20
36.4959
 30
0.0
 11
34.0872
 21
36.4959
 31
0.0
  0
LINE
  8
0
 62
     0
 10
34.0872
 20
36.4959
 30
0.0
 11
34.0872
 21
39.5965
 31
0.0
  0
LINE
  8
0
 62
     0
 10
34.0872
 20
39.5965
 30
0.0
 11
33.2879
 21
39.5965
 31
0.0
  0
LINE
  8
0
 62
     0
 10
33.2879
 20
39.5965
 30
0.0
 11
33.2879
 21
40.5955
 31
0.0
  0
LINE
  8
0
 62
     0
 10
33.2879
 20
40.5955
 30
0.0
 11
19.287
 21
40.5955
 31
0.0
  0
LINE
  8
0
 62
     0
 10
257.412
 20
40.5955
 30
0.0
 11
257.412
 21
39.5965
 31
0.0
  0
LINE
  8
0
 62
     0
 10
257.412
 20
39.5965
 30
0.0
 11
256.611
 21
39.5965
 31
0.0
  0
LINE
  8
0
 62
     0
 10
256.611
 20
39.5965
 30
0.0
 11
256.611
 21
36.4959
 31
0.0
  0
LINE
  8
0
 62
     0
 10
256.611
 20
36.4959
 30
0.0
 11
257.412
 21
36.4959
 31
0.0
  0
LINE
  8
0
 62
     0
 10
257.412
 20
36.4959
 30
0.0
 11
257.412
 21
35.8965
 31
0.0
  0
LINE
  8
0
 62
     0
 10
257.412
 20
35.8965
 30
0.0
 11
255.888
 21
35.8965
 31
0.0
  0
LINE
  8
0
 62
     0
 10
255.888
 20
35.8965
 30
0.0
 11
255.888
 21
39.1266
 31
0.0
  0
LINE
  8
0
 62
     0
 10
255.888
 20
39.1266
 30
0.0
 11
254.161
 21
39.1266
 31
0.0
  0
LINE
  8
0
 62
     0
 10
254.161
 20
39.1266
 30
0.0
 11
254.161
 21
40.0459
 31
0.0
  0
LINE
  8
0
 62
     0
 10
254.161
 20
40.0459
 30
0.0
 11
250.862
 21
40.0459
 31
0.0
  0
LINE
  8
0
 62
     0
 10
250.862
 20
40.0459
 30
0.0
 11
250.862
 21
39.1266
 31
0.0
  0
LINE
  8
0
 62
     0
 10
250.862
 20
39.1266
 30
0.0
 11
249.137
 21
39.1266
 31
0.0
  0
LINE
  8
0
 62
     0
 10
249.137
 20
39.1266
 30
0.0
 11
249.137
 21
35.8965
 31
0.0
  0
LINE
  8
0
 62
     0
 10
249.137
 20
35.8965
 30
0.0
 11
248.313
 21
35.8965
 31
0.0
  0
LINE
  8
0
 62
     0
 10
248.313
 20
35.8965
 30
0.0
 11
248.313
 21
33.0963
 31
0.0
  0
LINE
  8
0
 62
     0
 10
248.313
 20
33.0963
 30
0.0
 11
249.137
 21
33.0963
 31
0.0
  0
LINE
  8
0
 62
     0
 10
249.137
 20
33.0963
 30
0.0
 11
249.137
 21
26.8263
 31
0.0
  0
LINE
  8
0
 62
     0
 10
249.137
 20
26.8263
 30
0.0
 11
250.862
 21
26.8263
 31
0.0
  0
LINE
  8
0
 62
     0
 10
250.862
 20
26.8263
 30
0.0
 11
250.862
 21
25.8465
 31
0.0
  0
LINE
  8
0
 62
     0
 10
250.862
 20
25.8465
 30
0.0
 11
254.161
 21
25.8465
 31
0.0
  0
LINE
  8
0
 62
     0
 10
254.161
 20
25.8465
 30
0.0
 11
254.161
 21
26.8263
 31
0.0
  0
LINE
  8
0
 62
     0
 10
254.161
 20
26.8263
 30
0.0
 11
255.888
 21
26.8263
 31
0.0
  0
LINE
  8
0
 62
     0
 10
255.888
 20
26.8263
 30
0.0
 11
255.888
 21
31.2966
 31
0.0
  0
LINE
  8
0
 62
     0
 10
255.888
 20
31.2966
 30
0.0
 11
257.412
 21
31.2966
 31
0.0
  0
LINE
  8
0
 62
     0
 10
257.412
 20
31.2966
 30
0.0
 11
257.412
 21
30.6958
 31
0.0
  0
LINE
  8
0
 62
     0
 10
257.412
 20
30.6958
 30
0.0
 11
256.611
 21
30.6958
 31
0.0
  0
LINE
  8
0
 62
     0
 10
256.611
 20
30.6958
 30
0.0
 11
256.611
 21
27.5966
 31
0.0
  0
LINE
  8
0
 62
     0
 10
256.611
 20
27.5966
 30
0.0
 11
257.412
 21
27.5966
 31
0.0
  0
LINE
  8
0
 62
     0
 10
257.412
 20
27.5966
 30
0.0
 11
257.412
 21
26.5961
 31
0.0
  0
LINE
  8
0
 62
     0
 10
257.412
 20
26.5961
 30
0.0
 11
271.413
 21
26.5961
 31
0.0
  0
LINE
  8
0
 62
     0
 10
271.413
 20
26.5961
 30
0.0
 11
271.413
 21
27.5966
 31
0.0
  0
LINE
  8
0
 62
     0
 10
271.413
 20
27.5966
 30
0.0
 11
272.212
 21
27.5966
 31
0.0
  0
LINE
  8
0
 62
     0
 10
272.212
 20
27.5966
 30
0.0
 11
272.212
 21
30.6958
 31
0.0
  0
LINE
  8
0
 62
     0
 10
272.212
 20
30.6958
 30
0.0
 11
271.413
 21
30.6958
 31
0.0
  0
LINE
  8
0
 62
     0
 10
271.413
 20
30.6958
 30
0.0
 11
271.413
 21
31.2966
 31
0.0
  0
LINE
  8
0
 62
     0
 10
271.413
 20
31.2966
 30
0.0
 11
272.937
 21
31.2966
 31
0.0
  0
LINE
  8
0
 62
     0
 10
272.937
 20
31.2966
 30
0.0
 11
272.937
 21
26.8263
 31
0.0
  0
LINE
  8
0
 62
     0
 10
272.937
 20
26.8263
 30
0.0
 11
274.662
 21
26.8263
 31
0.0
  0
LINE
  8
0
 62
     0
 10
274.662
 20
26.8263
 30
0.0
 11
274.662
 21
25.8465
 31
0.0
  0
LINE
  8
0
 62
     0
 10
274.662
 20
25.8465
 30
0.0
 11
277.963
 21
25.8465
 31
0.0
  0
LINE
  8
0
 62
     0
 10
277.963
 20
25.8465
 30
0.0
 11
277.963
 21
26.8263
 31
0.0
  0
LINE
  8
0
 62
     0
 10
277.963
 20
26.8263
 30
0.0
 11
279.688
 21
26.8263
 31
0.0
  0
LINE
  8
0
 62
     0
 10
279.688
 20
26.8263
 30
0.0
 11
279.688
 21
33.0963
 31
0.0
  0
LINE
  8
0
 62
     0
 10
279.688
 20
33.0963
 30
0.0
 11
280.512
 21
33.0963
 31
0.0
  0
LINE
  8
0
 62
     0
 10
280.512
 20
33.0963
 30
0.0
 11
280.512
 21
35.8965
 31
0.0
  0
LINE
  8
0
 62
     0
 10
280.512
 20
35.8965
 30
0.0
 11
279.688
 21
35.8965
 31
0.0
  0
LINE
  8
0
 62
     0
 10
279.688
 20
35.8965
 30
0.0
 11
279.688
 21
39.1266
 31
0.0
  0
LINE
  8
0
 62
     0
 10
279.688
 20
39.1266
 30
0.0
 11
277.963
 21
39.1266
 31
0.0
  0
LINE
  8
0
 62
     0
 10
277.963
 20
39.1266
 30
0.0
 11
277.963
 21
40.0459
 31
0.0
  0
LINE
  8
0
 62
     0
 10
277.963
 20
40.0459
 30
0.0
 11
274.662
 21
40.0459
 31
0.0
  0
LINE
  8
0
 62
     0
 10
274.662
 20
40.0459
 30
0.0
 11
274.662
 21
39.1266
 31
0.0
  0
LINE
  8
0
 62
     0
 10
274.662
 20
39.1266
 30
0.0
 11
272.937
 21
39.1266
 31
0.0
  0
LINE
  8
0
 62
     0
 10
272.937
 20
39.1266
 30
0.0
 11
272.937
 21
35.8965
 31
0.0
  0
LINE
  8
0
 62
     0
 10
272.937
 20
35.8965
 30
0.0
 11
271.413
 21
35.8965
 31
0.0
  0
LINE
  8
0
 62
     0
 10
271.413
 20
35.8965
 30
0.0
 11
271.413
 21
36.4959
 31
0.0
  0
LINE
  8
0
 62
     0
 10
271.413
 20
36.4959
 30
0.0
 11
272.212
 21
36.4959
 31
0.0
  0
LINE
  8
0
 62
     0
 10
272.212
 20
36.4959
 30
0.0
 11
272.212
 21
39.5965
 31
0.0
  0
LINE
  8
0
 62
     0
 10
272.212
 20
39.5965
 30
0.0
 11
271.413
 21
39.5965
 31
0.0
  0
LINE
  8
0
 62
     0
 10
271.413
 20
39.5965
 30
0.0
 11
271.413
 21
40.5955
 31
0.0
  0
LINE
  8
0
 62
     0
 10
271.413
 20
40.5955
 30
0.0
 11
257.412
 21
40.5955
 31
0.0
  0
LINE
  8
0
 62
     0
 10
50.2447
 20
40.5955
 30
0.0
 11
50.2447
 21
39.5965
 31
0.0
  0
LINE
  8
0
 62
     0
 10
50.2447
 20
39.5965
 30
0.0
 11
49.4439
 21
39.5965
 31
0.0
  0
LINE
  8
0
 62
     0
 10
49.4439
 20
39.5965
 30
0.0
 11
49.4439
 21
36.4959
 31
0.0
  0
LINE
  8
0
 62
     0
 10
49.4439
 20
36.4959
 30
0.0
 11
50.2447
 21
36.4959
 31
0.0
  0
LINE
  8
0
 62
     0
 10
50.2447
 20
36.4959
 30
0.0
 11
50.2447
 21
30.6958
 31
0.0
  0
LINE
  8
0
 62
     0
 10
50.2447
 20
30.6958
 30
0.0
 11
49.4439
 21
30.6958
 31
0.0
  0
LINE
  8
0
 62
     0
 10
49.4439
 20
30.6958
 30
0.0
 11
49.4439
 21
27.5966
 31
0.0
  0
LINE
  8
0
 62
     0
 10
49.4439
 20
27.5966
 30
0.0
 11
50.2447
 21
27.5966
 31
0.0
  0
LINE
  8
0
 62
     0
 10
50.2447
 20
27.5966
 30
0.0
 11
50.2447
 21
26.5961
 31
0.0
  0
LINE
  8
0
 62
     0
 10
50.2447
 20
26.5961
 30
0.0
 11
64.244
 21
26.5961
 31
0.0
  0
LINE
  8
0
 62
     0
 10
64.244
 20
26.5961
 30
0.0
 11
64.244
 21
27.5966
 31
0.0
  0
LINE
  8
0
 62
     0
 10
64.244
 20
27.5966
 30
0.0
 11
65.0448
 21
27.5966
 31
0.0
  0
LINE
  8
0
 62
     0
 10
65.0448
 20
27.5966
 30
0.0
 11
65.0448
 21
30.6958
 31
0.0
  0
LINE
  8
0
 62
     0
 10
65.0448
 20
30.6958
 30
0.0
 11
64.244
 21
30.6958
 31
0.0
  0
LINE
  8
0
 62
     0
 10
64.244
 20
30.6958
 30
0.0
 11
64.244
 21
36.4959
 31
0.0
  0
LINE
  8
0
 62
     0
 10
64.244
 20
36.4959
 30
0.0
 11
65.0448
 21
36.4959
 31
0.0
  0
LINE
  8
0
 62
     0
 10
65.0448
 20
36.4959
 30
0.0
 11
65.0448
 21
39.5965
 31
0.0
  0
LINE
  8
0
 62
     0
 10
65.0448
 20
39.5965
 30
0.0
 11
64.244
 21
39.5965
 31
0.0
  0
LINE
  8
0
 62
     0
 10
64.244
 20
39.5965
 30
0.0
 11
64.244
 21
40.5955
 31
0.0
  0
LINE
  8
0
 62
     0
 10
64.244
 20
40.5955
 30
0.0
 11
50.2447
 21
40.5955
 31
0.0
  0
LINE
  8
0
 62
     0
 10
69.2947
 20
40.5955
 30
0.0
 11
69.2947
 21
39.5965
 31
0.0
  0
LINE
  8
0
 62
     0
 10
69.2947
 20
39.5965
 30
0.0
 11
68.4939
 21
39.5965
 31
0.0
  0
LINE
  8
0
 62
     0
 10
68.4939
 20
39.5965
 30
0.0
 11
68.4939
 21
36.4959
 31
0.0
  0
LINE
  8
0
 62
     0
 10
68.4939
 20
36.4959
 30
0.0
 11
69.2947
 21
36.4959
 31
0.0
  0
LINE
  8
0
 62
     0
 10
69.2947
 20
36.4959
 30
0.0
 11
69.2947
 21
30.6958
 31
0.0
  0
LINE
  8
0
 62
     0
 10
69.2947
 20
30.6958
 30
0.0
 11
68.4939
 21
30.6958
 31
0.0
  0
LINE
  8
0
 62
     0
 10
68.4939
 20
30.6958
 30
0.0
 11
68.4939
 21
27.5966
 31
0.0
  0
LINE
  8
0
 62
     0
 10
68.4939
 20
27.5966
 30
0.0
 11
69.2947
 21
27.5966
 31
0.0
  0
LINE
  8
0
 62
     0
 10
69.2947
 20
27.5966
 30
0.0
 11
69.2947
 21
26.5961
 31
0.0
  0
LINE
  8
0
 62
     0
 10
69.2947
 20
26.5961
 30
0.0
 11
83.294
 21
26.5961
 31
0.0
  0
LINE
  8
0
 62
     0
 10
83.294
 20
26.5961
 30
0.0
 11
83.294
 21
27.5966
 31
0.0
  0
LINE
  8
0
 62
     0
 10
83.294
 20
27.5966
 30
0.0
 11
84.0948
 21
27.5966
 31
0.0
  0
LINE
  8
0
 62
     0
 10
84.0948
 20
27.5966
 30
0.0
 11
84.0948
 21
30.6958
 31
0.0
  0
LINE
  8
0
 62
     0
 10
84.0948
 20
30.6958
 30
0.0
 11
83.294
 21
30.6958
 31
0.0
  0
LINE
  8
0
 62
     0
 10
83.294
 20
30.6958
 30
0.0
 11
83.294
 21
36.4959
 31
0.0
  0
LINE
  8
0
 62
     0
 10
83.294
 20
36.4959
 30
0.0
 11
84.0948
 21
36.4959
 31
0.0
  0
LINE
  8
0
 62
     0
 10
84.0948
 20
36.4959
 30
0.0
 11
84.0948
 21
39.5965
 31
0.0
  0
LINE
  8
0
 62
     0
 10
84.0948
 20
39.5965
 30
0.0
 11
83.294
 21
39.5965
 31
0.0
  0
LINE
  8
0
 62
     0
 10
83.294
 20
39.5965
 30
0.0
 11
83.294
 21
40.5955
 31
0.0
  0
LINE
  8
0
 62
     0
 10
83.294
 20
40.5955
 30
0.0
 11
69.2947
 21
40.5955
 31
0.0
  0
LINE
  8
0
 62
     0
 10
88.3447
 20
40.5955
 30
0.0
 11
88.3447
 21
39.5965
 31
0.0
  0
LINE
  8
0
 62
     0
 10
88.3447
 20
39.5965
 30
0.0
 11
87.5439
 21
39.5965
 31
0.0
  0
LINE
  8
0
 62
     0
 10
87.5439
 20
39.5965
 30
0.0
 11
87.5439
 21
36.4959
 31
0.0
  0
LINE
  8
0
 62
     0
 10
87.5439
 20
36.4959
 30
0.0
 11
88.3447
 21
36.4959
 31
0.0
  0
LINE
  8
0
 62
     0
 10
88.3447
 20
36.4959
 30
0.0
 11
88.3447
 21
30.6958
 31
0.0
  0
LINE
  8
0
 62
     0
 10
88.3447
 20
30.6958
 30
0.0
 11
87.5439
 21
30.6958
 31
0.0
  0
LINE
  8
0
 62
     0
 10
87.5439
 20
30.6958
 30
0.0
 11
87.5439
 21
27.5966
 31
0.0
  0
LINE
  8
0
 62
     0
 10
87.5439
 20
27.5966
 30
0.0
 11
88.3447
 21
27.5966
 31
0.0
  0
LINE
  8
0
 62
     0
 10
88.3447
 20
27.5966
 30
0.0
 11
88.3447
 21
26.5961
 31
0.0
  0
LINE
  8
0
 62
     0
 10
88.3447
 20
26.5961
 30
0.0
 11
102.344
 21
26.5961
 31
0.0
  0
LINE
  8
0
 62
     0
 10
102.344
 20
26.5961
 30
0.0
 11
102.344
 21
27.5966
 31
0.0
  0
LINE
  8
0
 62
     0
 10
102.344
 20
27.5966
 30
0.0
 11
103.145
 21
27.5966
 31
0.0
  0
LINE
  8
0
 62
     0
 10
103.145
 20
27.5966
 30
0.0
 11
103.145
 21
30.6958
 31
0.0
  0
LINE
  8
0
 62
     0
 10
103.145
 20
30.6958
 30
0.0
 11
102.344
 21
30.6958
 31
0.0
  0
LINE
  8
0
 62
     0
 10
102.344
 20
30.6958
 30
0.0
 11
102.344
 21
36.4959
 31
0.0
  0
LINE
  8
0
 62
     0
 10
102.344
 20
36.4959
 30
0.0
 11
103.145
 21
36.4959
 31
0.0
  0
LINE
  8
0
 62
     0
 10
103.145
 20
36.4959
 30
0.0
 11
103.145
 21
39.5965
 31
0.0
  0
LINE
  8
0
 62
     0
 10
103.145
 20
39.5965
 30
0.0
 11
102.344
 21
39.5965
 31
0.0
  0
LINE
  8
0
 62
     0
 10
102.344
 20
39.5965
 30
0.0
 11
102.344
 21
40.5955
 31
0.0
  0
LINE
  8
0
 62
     0
 10
102.344
 20
40.5955
 30
0.0
 11
88.3447
 21
40.5955
 31
0.0
  0
LINE
  8
0
 62
     0
 10
107.395
 20
40.5955
 30
0.0
 11
107.395
 21
39.5965
 31
0.0
  0
LINE
  8
0
 62
     0
 10
107.395
 20
39.5965
 30
0.0
 11
106.594
 21
39.5965
 31
0.0
  0
LINE
  8
0
 62
     0
 10
106.594
 20
39.5965
 30
0.0
 11
106.594
 21
36.4959
 31
0.0
  0
LINE
  8
0
 62
     0
 10
106.594
 20
36.4959
 30
0.0
 11
107.395
 21
36.4959
 31
0.0
  0
LINE
  8
0
 62
     0
 10
107.395
 20
36.4959
 30
0.0
 11
107.395
 21
30.6958
 31
0.0
  0
LINE
  8
0
 62
     0
 10
107.395
 20
30.6958
 30
0.0
 11
106.594
 21
30.6958
 31
0.0
  0
LINE
  8
0
 62
     0
 10
106.594
 20
30.6958
 30
0.0
 11
106.594
 21
27.5966
 31
0.0
  0
LINE
  8
0
 62
     0
 10
106.594
 20
27.5966
 30
0.0
 11
107.395
 21
27.5966
 31
0.0
  0
LINE
  8
0
 62
     0
 10
107.395
 20
27.5966
 30
0.0
 11
107.395
 21
26.5961
 31
0.0
  0
LINE
  8
0
 62
     0
 10
107.395
 20
26.5961
 30
0.0
 11
121.394
 21
26.5961
 31
0.0
  0
LINE
  8
0
 62
     0
 10
121.394
 20
26.5961
 30
0.0
 11
121.394
 21
27.5966
 31
0.0
  0
LINE
  8
0
 62
     0
 10
121.394
 20
27.5966
 30
0.0
 11
122.195
 21
27.5966
 31
0.0
  0
LINE
  8
0
 62
     0
 10
122.195
 20
27.5966
 30
0.0
 11
122.195
 21
30.6958
 31
0.0
  0
LINE
  8
0
 62
     0
 10
122.195
 20
30.6958
 30
0.0
 11
121.394
 21
30.6958
 31
0.0
  0
LINE
  8
0
 62
     0
 10
121.394
 20
30.6958
 30
0.0
 11
121.394
 21
36.4959
 31
0.0
  0
LINE
  8
0
 62
     0
 10
121.394
 20
36.4959
 30
0.0
 11
122.195
 21
36.4959
 31
0.0
  0
LINE
  8
0
 62
     0
 10
122.195
 20
36.4959
 30
0.0
 11
122.195
 21
39.5965
 31
0.0
  0
LINE
  8
0
 62
     0
 10
122.195
 20
39.5965
 30
0.0
 11
121.394
 21
39.5965
 31
0.0
  0
LINE
  8
0
 62
     0
 10
121.394
 20
39.5965
 30
0.0
 11
121.394
 21
40.5955
 31
0.0
  0
LINE
  8
0
 62
     0
 10
121.394
 20
40.5955
 30
0.0
 11
107.395
 21
40.5955
 31
0.0
  0
LINE
  8
0
 62
     0
 10
126.445
 20
40.5955
 30
0.0
 11
126.445
 21
39.5965
 31
0.0
  0
LINE
  8
0
 62
     0
 10
126.445
 20
39.5965
 30
0.0
 11
125.644
 21
39.5965
 31
0.0
  0
LINE
  8
0
 62
     0
 10
125.644
 20
39.5965
 30
0.0
 11
125.644
 21
36.4959
 31
0.0
  0
LINE
  8
0
 62
     0
 10
125.644
 20
36.4959
 30
0.0
 11
126.445
 21
36.4959
 31
0.0
  0
LINE
  8
0
 62
     0
 10
126.445
 20
36.4959
 30
0.0
 11
126.445
 21
30.6958
 31
0.0
  0
LINE
  8
0
 62
     0
 10
126.445
 20
30.6958
 30
0.0
 11
125.644
 21
30.6958
 31
0.0
  0
LINE
  8
0
 62
     0
 10
125.644
 20
30.6958
 30
0.0
 11
125.644
 21
27.5966
 31
0.0
  0
LINE
  8
0
 62
     0
 10
125.644
 20
27.5966
 30
0.0
 11
126.445
 21
27.5966
 31
0.0
  0
LINE
  8
0
 62
     0
 10
126.445
 20
27.5966
 30
0.0
 11
126.445
 21
26.5961
 31
0.0
  0
LINE
  8
0
 62
     0
 10
126.445
 20
26.5961
 30
0.0
 11
140.444
 21
26.5961
 31
0.0
  0
LINE
  8
0
 62
     0
 10
140.444
 20
26.5961
 30
0.0
 11
140.444
 21
27.5966
 31
0.0
  0
LINE
  8
0
 62
     0
 10
140.444
 20
27.5966
 30
0.0
 11
141.245
 21
27.5966
 31
0.0
  0
LINE
  8
0
 62
     0
 10
141.245
 20
27.5966
 30
0.0
 11
141.245
 21
30.6958
 31
0.0
  0
LINE
  8
0
 62
     0
 10
141.245
 20
30.6958
 30
0.0
 11
140.444
 21
30.6958
 31
0.0
  0
LINE
  8
0
 62
     0
 10
140.444
 20
30.6958
 30
0.0
 11
140.444
 21
36.4959
 31
0.0
  0
LINE
  8
0
 62
     0
 10
140.444
 20
36.4959
 30
0.0
 11
141.245
 21
36.4959
 31
0.0
  0
LINE
  8
0
 62
     0
 10
141.245
 20
36.4959
 30
0.0
 11
141.245
 21
39.5965
 31
0.0
  0
LINE
  8
0
 62
     0
 10
141.245
 20
39.5965
 30
0.0
 11
140.444
 21
39.5965
 31
0.0
  0
LINE
  8
0
 62
     0
 10
140.444
 20
39.5965
 30
0.0
 11
140.444
 21
40.5955
 31
0.0
  0
LINE
  8
0
 62
     0
 10
140.444
 20
40.5955
 30
0.0
 11
126.445
 21
40.5955
 31
0.0
  0
LINE
  8
0
 62
     0
 10
145.495
 20
40.5955
 30
0.0
 11
145.495
 21
39.5965
 31
0.0
  0
LINE
  8
0
 62
     0
 10
145.495
 20
39.5965
 30
0.0
 11
144.694
 21
39.5965
 31
0.0
  0
LINE
  8
0
 62
     0
 10
144.694
 20
39.5965
 30
0.0
 11
144.694
 21
36.4959
 31
0.0
  0
LINE
  8
0
 62
     0
 10
144.694
 20
36.4959
 30
0.0
 11
145.495
 21
36.4959
 31
0.0
  0
LINE
  8
0
 62
     0
 10
145.495
 20
36.4959
 30
0.0
 11
145.495
 21
30.6958
 31
0.0
  0
LINE
  8
0
 62
     0
 10
145.495
 20
30.6958
 30
0.0
 11
144.694
 21
30.6958
 31
0.0
  0
LINE
  8
0
 62
     0
 10
144.694
 20
30.6958
 30
0.0
 11
144.694
 21
27.5966
 31
0.0
  0
LINE
  8
0
 62
     0
 10
144.694
 20
27.5966
 30
0.0
 11
145.495
 21
27.5966
 31
0.0
  0
LINE
  8
0
 62
     0
 10
145.495
 20
27.5966
 30
0.0
 11
145.495
 21
26.5961
 31
0.0
  0
LINE
  8
0
 62
     0
 10
145.495
 20
26.5961
 30
0.0
 11
159.494
 21
26.5961
 31
0.0
  0
LINE
  8
0
 62
     0
 10
159.494
 20
26.5961
 30
0.0
 11
159.494
 21
27.5966
 31
0.0
  0
LINE
  8
0
 62
     0
 10
159.494
 20
27.5966
 30
0.0
 11
160.295
 21
27.5966
 31
0.0
  0
LINE
  8
0
 62
     0
 10
160.295
 20
27.5966
 30
0.0
 11
160.295
 21
30.6958
 31
0.0
  0
LINE
  8
0
 62
     0
 10
160.295
 20
30.6958
 30
0.0
 11
159.494
 21
30.6958
 31
0.0
  0
LINE
  8
0
 62
     0
 10
159.494
 20
30.6958
 30
0.0
 11
159.494
 21
36.4959
 31
0.0
  0
LINE
  8
0
 62
     0
 10
159.494
 20
36.4959
 30
0.0
 11
160.295
 21
36.4959
 31
0.0
  0
LINE
  8
0
 62
     0
 10
160.295
 20
36.4959
 30
0.0
 11
160.295
 21
39.5965
 31
0.0
  0
LINE
  8
0
 62
     0
 10
160.295
 20
39.5965
 30
0.0
 11
159.494
 21
39.5965
 31
0.0
  0
LINE
  8
0
 62
     0
 10
159.494
 20
39.5965
 30
0.0
 11
159.494
 21
40.5955
 31
0.0
  0
LINE
  8
0
 62
     0
 10
159.494
 20
40.5955
 30
0.0
 11
145.495
 21
40.5955
 31
0.0
  0
LINE
  8
0
 62
     0
 10
164.545
 20
40.5955
 30
0.0
 11
164.545
 21
39.5965
 31
0.0
  0
LINE
  8
0
 62
     0
 10
164.545
 20
39.5965
 30
0.0
 11
163.744
 21
39.5965
 31
0.0
  0
LINE
  8
0
 62
     0
 10
163.744
 20
39.5965
 30
0.0
 11
163.744
 21
36.4959
 31
0.0
  0
LINE
  8
0
 62
     0
 10
163.744
 20
36.4959
 30
0.0
 11
164.545
 21
36.4959
 31
0.0
  0
LINE
  8
0
 62
     0
 10
164.545
 20
36.4959
 30
0.0
 11
164.545
 21
30.6958
 31
0.0
  0
LINE
  8
0
 62
     0
 10
164.545
 20
30.6958
 30
0.0
 11
163.744
 21
30.6958
 31
0.0
  0
LINE
  8
0
 62
     0
 10
163.744
 20
30.6958
 30
0.0
 11
163.744
 21
27.5966
 31
0.0
  0
LINE
  8
0
 62
     0
 10
163.744
 20
27.5966
 30
0.0
 11
164.545
 21
27.5966
 31
0.0
  0
LINE
  8
0
 62
     0
 10
164.545
 20
27.5966
 30
0.0
 11
164.545
 21
26.5961
 31
0.0
  0
LINE
  8
0
 62
     0
 10
164.545
 20
26.5961
 30
0.0
 11
178.544
 21
26.5961
 31
0.0
  0
LINE
  8
0
 62
     0
 10
178.544
 20
26.5961
 30
0.0
 11
178.544
 21
27.5966
 31
0.0
  0
LINE
  8
0
 62
     0
 10
178.544
 20
27.5966
 30
0.0
 11
179.345
 21
27.5966
 31
0.0
  0
LINE
  8
0
 62
     0
 10
179.345
 20
27.5966
 30
0.0
 11
179.345
 21
30.6958
 31
0.0
  0
LINE
  8
0
 62
     0
 10
179.345
 20
30.6958
 30
0.0
 11
178.544
 21
30.6958
 31
0.0
  0
LINE
  8
0
 62
     0
 10
178.544
 20
30.6958
 30
0.0
 11
178.544
 21
36.4959
 31
0.0
  0
LINE
  8
0
 62
     0
 10
178.544
 20
36.4959
 30
0.0
 11
179.345
 21
36.4959
 31
0.0
  0
LINE
  8
0
 62
     0
 10
179.345
 20
36.4959
 30
0.0
 11
179.345
 21
39.5965
 31
0.0
  0
LINE
  8
0
 62
     0
 10
179.345
 20
39.5965
 30
0.0
 11
178.544
 21
39.5965
 31
0.0
  0
LINE
  8
0
 62
     0
 10
178.544
 20
39.5965
 30
0.0
 11
178.544
 21
40.5955
 31
0.0
  0
LINE
  8
0
 62
     0
 10
178.544
 20
40.5955
 30
0.0
 11
164.545
 21
40.5955
 31
0.0
  0
LINE
  8
0
 62
     0
 10
183.595
 20
40.5955
 30
0.0
 11
183.595
 21
39.5965
 31
0.0
  0
LINE
  8
0
 62
     0
 10
183.595
 20
39.5965
 30
0.0
 11
182.794
 21
39.5965
 31
0.0
  0
LINE
  8
0
 62
     0
 10
182.794
 20
39.5965
 30
0.0
 11
182.794
 21
36.4959
 31
0.0
  0
LINE
  8
0
 62
     0
 10
182.794
 20
36.4959
 30
0.0
 11
183.595
 21
36.4959
 31
0.0
  0
LINE
  8
0
 62
     0
 10
183.595
 20
36.4959
 30
0.0
 11
183.595
 21
30.6958
 31
0.0
  0
LINE
  8
0
 62
     0
 10
183.595
 20
30.6958
 30
0.0
 11
182.794
 21
30.6958
 31
0.0
  0
LINE
  8
0
 62
     0
 10
182.794
 20
30.6958
 30
0.0
 11
182.794
 21
27.5966
 31
0.0
  0
LINE
  8
0
 62
     0
 10
182.794
 20
27.5966
 30
0.0
 11
183.595
 21
27.5966
 31
0.0
  0
LINE
  8
0
 62
     0
 10
183.595
 20
27.5966
 30
0.0
 11
183.595
 21
26.5961
 31
0.0
  0
LINE
  8
0
 62
     0
 10
183.595
 20
26.5961
 30
0.0
 11
197.594
 21
26.5961
 31
0.0
  0
LINE
  8
0
 62
     0
 10
197.594
 20
26.5961
 30
0.0
 11
197.594
 21
27.5966
 31
0.0
  0
LINE
  8
0
 62
     0
 10
197.594
 20
27.5966
 30
0.0
 11
198.395
 21
27.5966
 31
0.0
  0
LINE
  8
0
 62
     0
 10
198.395
 20
27.5966
 30
0.0
 11
198.395
 21
30.6958
 31
0.0
  0
LINE
  8
0
 62
     0
 10
198.395
 20
30.6958
 30
0.0
 11
197.594
 21
30.6958
 31
0.0
  0
LINE
  8
0
 62
     0
 10
197.594
 20
30.6958
 30
0.0
 11
197.594
 21
36.4959
 31
0.0
  0
LINE
  8
0
 62
     0
 10
197.594
 20
36.4959
 30
0.0
 11
198.395
 21
36.4959
 31
0.0
  0
LINE
  8
0
 62
     0
 10
198.395
 20
36.4959
 30
0.0
 11
198.395
 21
39.5965
 31
0.0
  0
LINE
  8
0
 62
     0
 10
198.395
 20
39.5965
 30
0.0
 11
197.594
 21
39.5965
 31
0.0
  0
LINE
  8
0
 62
     0
 10
197.594
 20
39.5965
 30
0.0
 11
197.594
 21
40.5955
 31
0.0
  0
LINE
  8
0
 62
     0
 10
197.594
 20
40.5955
 30
0.0
 11
183.595
 21
40.5955
 31
0.0
  0
LINE
  8
0
 62
     0
 10
202.645
 20
40.5955
 30
0.0
 11
202.645
 21
39.5965
 31
0.0
  0
LINE
  8
0
 62
     0
 10
202.645
 20
39.5965
 30
0.0
 11
201.844
 21
39.5965
 31
0.0
  0
LINE
  8
0
 62
     0
 10
201.844
 20
39.5965
 30
0.0
 11
201.844
 21
36.4959
 31
0.0
  0
LINE
  8
0
 62
     0
 10
201.844
 20
36.4959
 30
0.0
 11
202.645
 21
36.4959
 31
0.0
  0
LINE
  8
0
 62
     0
 10
202.645
 20
36.4959
 30
0.0
 11
202.645
 21
30.6958
 31
0.0
  0
LINE
  8
0
 62
     0
 10
202.645
 20
30.6958
 30
0.0
 11
201.844
 21
30.6958
 31
0.0
  0
LINE
  8
0
 62
     0
 10
201.844
 20
30.6958
 30
0.0
 11
201.844
 21
27.5966
 31
0.0
  0
LINE
  8
0
 62
     0
 10
201.844
 20
27.5966
 30
0.0
 11
202.645
 21
27.5966
 31
0.0
  0
LINE
  8
0
 62
     0
 10
202.645
 20
27.5966
 30
0.0
 11
202.645
 21
26.5961
 31
0.0
  0
LINE
  8
0
 62
     0
 10
202.645
 20
26.5961
 30
0.0
 11
216.644
 21
26.5961
 31
0.0
  0
LINE
  8
0
 62
     0
 10
216.644
 20
26.5961
 30
0.0
 11
216.644
 21
27.5966
 31
0.0
  0
LINE
  8
0
 62
     0
 10
216.644
 20
27.5966
 30
0.0
 11
217.445
 21
27.5966
 31
0.0
  0
LINE
  8
0
 62
     0
 10
217.445
 20
27.5966
 30
0.0
 11
217.445
 21
30.6958
 31
0.0
  0
LINE
  8
0
 62
     0
 10
217.445
 20
30.6958
 30
0.0
 11
216.644
 21
30.6958
 31
0.0
  0
LINE
  8
0
 62
     0
 10
216.644
 20
30.6958
 30
0.0
 11
216.644
 21
36.4959
 31
0.0
  0
LINE
  8
0
 62
     0
 10
216.644
 20
36.4959
 30
0.0
 11
217.445
 21
36.4959
 31
0.0
  0
LINE
  8
0
 62
     0
 10
217.445
 20
36.4959
 30
0.0
 11
217.445
 21
39.5965
 31
0.0
  0
LINE
  8
0
 62
     0
 10
217.445
 20
39.5965
 30
0.0
 11
216.644
 21
39.5965
 31
0.0
  0
LINE
  8
0
 62
     0
 10
216.644
 20
39.5965
 30
0.0
 11
216.644
 21
40.5955
 31
0.0
  0
LINE
  8
0
 62
     0
 10
216.644
 20
40.5955
 30
0.0
 11
202.645
 21
40.5955
 31
0.0
  0
LINE
  8
0
 62
     0
 10
221.695
 20
40.5955
 30
0.0
 11
221.695
 21
39.5965
 31
0.0
  0
LINE
  8
0
 62
     0
 10
221.695
 20
39.5965
 30
0.0
 11
220.894
 21
39.5965
 31
0.0
  0
LINE
  8
0
 62
     0
 10
220.894
 20
39.5965
 30
0.0
 11
220.894
 21
36.4959
 31
0.0
  0
LINE
  8
0
 62
     0
 10
220.894
 20
36.4959
 30
0.0
 11
221.695
 21
36.4959
 31
0.0
  0
LINE
  8
0
 62
     0
 10
221.695
 20
36.4959
 30
0.0
 11
221.695
 21
30.6958
 31
0.0
  0
LINE
  8
0
 62
     0
 10
221.695
 20
30.6958
 30
0.0
 11
220.894
 21
30.6958
 31
0.0
  0
LINE
  8
0
 62
     0
 10
220.894
 20
30.6958
 30
0.0
 11
220.894
 21
27.5966
 31
0.0
  0
LINE
  8
0
 62
     0
 10
220.894
 20
27.5966
 30
0.0
 11
221.695
 21
27.5966
 31
0.0
  0
LINE
  8
0
 62
     0
 10
221.695
 20
27.5966
 30
0.0
 11
221.695
 21
26.5961
 31
0.0
  0
LINE
  8
0
 62
     0
 10
221.695
 20
26.5961
 30
0.0
 11
235.694
 21
26.5961
 31
0.0
  0
LINE
  8
0
 62
     0
 10
235.694
 20
26.5961
 30
0.0
 11
235.694
 21
27.5966
 31
0.0
  0
LINE
  8
0
 62
     0
 10
235.694
 20
27.5966
 30
0.0
 11
236.495
 21
27.5966
 31
0.0
  0
LINE
  8
0
 62
     0
 10
236.495
 20
27.5966
 30
0.0
 11
236.495
 21
30.6958
 31
0.0
  0
LINE
  8
0
 62
     0
 10
236.495
 20
30.6958
 30
0.0
 11
235.694
 21
30.6958
 31
0.0
  0
LINE
  8
0
 62
     0
 10
235.694
 20
30.6958
 30
0.0
 11
235.694
 21
36.4959
 31
0.0
  0
LINE
  8
0
 62
     0
 10
235.694
 20
36.4959
 30
0.0
 11
236.495
 21
36.4959
 31
0.0
  0
LINE
  8
0
 62
     0
 10
236.495
 20
36.4959
 30
0.0
 11
236.495
 21
39.5965
 31
0.0
  0
LINE
  8
0
 62
     0
 10
236.495
 20
39.5965
 30
0.0
 11
235.694
 21
39.5965
 31
0.0
  0
LINE
  8
0
 62
     0
 10
235.694
 20
39.5965
 30
0.0
 11
235.694
 21
40.5955
 31
0.0
  0
LINE
  8
0
 62
     0
 10
235.694
 20
40.5955
 30
0.0
 11
221.695
 21
40.5955
 31
0.0
  0
LINE
  8
0
 62
     0
 10
262.176
 20
59.6456
 30
0.0
 11
262.176
 21
58.6465
 31
0.0
  0
LINE
  8
0
 62
     0
 10
262.176
 20
58.6465
 30
0.0
 11
261.375
 21
58.6465
 31
0.0
  0
LINE
  8
0
 62
     0
 10
261.375
 20
58.6465
 30
0.0
 11
261.375
 21
55.5459
 31
0.0
  0
LINE
  8
0
 62
     0
 10
261.375
 20
55.5459
 30
0.0
 11
262.176
 21
55.5459
 31
0.0
  0
LINE
  8
0
 62
     0
 10
262.176
 20
55.5459
 30
0.0
 11
262.176
 21
54.9465
 31
0.0
  0
LINE
  8
0
 62
     0
 10
262.176
 20
54.9465
 30
0.0
 11
260.651
 21
54.9465
 31
0.0
  0
LINE
  8
0
 62
     0
 10
260.651
 20
54.9465
 30
0.0
 11
260.651
 21
58.1766
 31
0.0
  0
LINE
  8
0
 62
     0
 10
260.651
 20
58.1766
 30
0.0
 11
258.925
 21
58.1766
 31
0.0
  0
LINE
  8
0
 62
     0
 10
258.925
 20
58.1766
 30
0.0
 11
258.925
 21
59.0959
 31
0.0
  0
LINE
  8
0
 62
     0
 10
258.925
 20
59.0959
 30
0.0
 11
255.626
 21
59.0959
 31
0.0
  0
LINE
  8
0
 62
     0
 10
255.626
 20
59.0959
 30
0.0
 11
255.626
 21
58.1766
 31
0.0
  0
LINE
  8
0
 62
     0
 10
255.626
 20
58.1766
 30
0.0
 11
253.899
 21
58.1766
 31
0.0
  0
LINE
  8
0
 62
     0
 10
253.899
 20
58.1766
 30
0.0
 11
253.899
 21
54.9465
 31
0.0
  0
LINE
  8
0
 62
     0
 10
253.899
 20
54.9465
 30
0.0
 11
253.075
 21
54.9465
 31
0.0
  0
LINE
  8
0
 62
     0
 10
253.075
 20
54.9465
 30
0.0
 11
253.075
 21
52.1462
 31
0.0
  0
LINE
  8
0
 62
     0
 10
253.075
 20
52.1462
 30
0.0
 11
253.899
 21
52.1462
 31
0.0
  0
LINE
  8
0
 62
     0
 10
253.899
 20
52.1462
 30
0.0
 11
253.899
 21
45.8763
 31
0.0
  0
LINE
  8
0
 62
     0
 10
253.899
 20
45.8763
 30
0.0
 11
255.626
 21
45.8763
 31
0.0
  0
LINE
  8
0
 62
     0
 10
255.626
 20
45.8763
 30
0.0
 11
255.626
 21
44.8966
 31
0.0
  0
LINE
  8
0
 62
     0
 10
255.626
 20
44.8966
 30
0.0
 11
258.925
 21
44.8966
 31
0.0
  0
LINE
  8
0
 62
     0
 10
258.925
 20
44.8966
 30
0.0
 11
258.925
 21
45.8763
 31
0.0
  0
LINE
  8
0
 62
     0
 10
258.925
 20
45.8763
 30
0.0
 11
260.651
 21
45.8763
 31
0.0
  0
LINE
  8
0
 62
     0
 10
260.651
 20
45.8763
 30
0.0
 11
260.651
 21
50.3467
 31
0.0
  0
LINE
  8
0
 62
     0
 10
260.651
 20
50.3467
 30
0.0
 11
262.176
 21
50.3467
 31
0.0
  0
LINE
  8
0
 62
     0
 10
262.176
 20
50.3467
 30
0.0
 11
262.176
 21
49.7459
 31
0.0
  0
LINE
  8
0
 62
     0
 10
262.176
 20
49.7459
 30
0.0
 11
261.375
 21
49.7459
 31
0.0
  0
LINE
  8
0
 62
     0
 10
261.375
 20
49.7459
 30
0.0
 11
261.375
 21
46.6467
 31
0.0
  0
LINE
  8
0
 62
     0
 10
261.375
 20
46.6467
 30
0.0
 11
262.176
 21
46.6467
 31
0.0
  0
LINE
  8
0
 62
     0
 10
262.176
 20
46.6467
 30
0.0
 11
262.176
 21
45.6463
 31
0.0
  0
LINE
  8
0
 62
     0
 10
262.176
 20
45.6463
 30
0.0
 11
276.175
 21
45.6463
 31
0.0
  0
LINE
  8
0
 62
     0
 10
276.175
 20
45.6463
 30
0.0
 11
276.175
 21
46.6467
 31
0.0
  0
LINE
  8
0
 62
     0
 10
276.175
 20
46.6467
 30
0.0
 11
276.976
 21
46.6467
 31
0.0
  0
LINE
  8
0
 62
     0
 10
276.976
 20
46.6467
 30
0.0
 11
276.976
 21
49.7459
 31
0.0
  0
LINE
  8
0
 62
     0
 10
276.976
 20
49.7459
 30
0.0
 11
276.175
 21
49.7459
 31
0.0
  0
LINE
  8
0
 62
     0
 10
276.175
 20
49.7459
 30
0.0
 11
276.175
 21
50.3467
 31
0.0
  0
LINE
  8
0
 62
     0
 10
276.175
 20
50.3467
 30
0.0
 11
277.701
 21
50.3467
 31
0.0
  0
LINE
  8
0
 62
     0
 10
277.701
 20
50.3467
 30
0.0
 11
277.701
 21
45.8763
 31
0.0
  0
LINE
  8
0
 62
     0
 10
277.701
 20
45.8763
 30
0.0
 11
279.426
 21
45.8763
 31
0.0
  0
LINE
  8
0
 62
     0
 10
279.426
 20
45.8763
 30
0.0
 11
279.426
 21
44.8966
 31
0.0
  0
LINE
  8
0
 62
     0
 10
279.426
 20
44.8966
 30
0.0
 11
282.725
 21
44.8966
 31
0.0
  0
LINE
  8
0
 62
     0
 10
282.725
 20
44.8966
 30
0.0
 11
282.725
 21
45.8763
 31
0.0
  0
LINE
  8
0
 62
     0
 10
282.725
 20
45.8763
 30
0.0
 11
284.45
 21
45.8763
 31
0.0
  0
LINE
  8
0
 62
     0
 10
284.45
 20
45.8763
 30
0.0
 11
284.45
 21
52.1462
 31
0.0
  0
LINE
  8
0
 62
     0
 10
284.45
 20
52.1462
 30
0.0
 11
285.276
 21
52.1462
 31
0.0
  0
LINE
  8
0
 62
     0
 10
285.276
 20
52.1462
 30
0.0
 11
285.276
 21
54.9465
 31
0.0
  0
LINE
  8
0
 62
     0
 10
285.276
 20
54.9465
 30
0.0
 11
284.45
 21
54.9465
 31
0.0
  0
LINE
  8
0
 62
     0
 10
284.45
 20
54.9465
 30
0.0
 11
284.45
 21
58.1766
 31
0.0
  0
LINE
  8
0
 62
     0
 10
284.45
 20
58.1766
 30
0.0
 11
282.725
 21
58.1766
 31
0.0
  0
LINE
  8
0
 62
     0
 10
282.725
 20
58.1766
 30
0.0
 11
282.725
 21
59.0959
 31
0.0
  0
LINE
  8
0
 62
     0
 10
282.725
 20
59.0959
 30
0.0
 11
279.426
 21
59.0959
 31
0.0
  0
LINE
  8
0
 62
     0
 10
279.426
 20
59.0959
 30
0.0
 11
279.426
 21
58.1766
 31
0.0
  0
LINE
  8
0
 62
     0
 10
279.426
 20
58.1766
 30
0.0
 11
277.701
 21
58.1766
 31
0.0
  0
LINE
  8
0
 62
     0
 10
277.701
 20
58.1766
 30
0.0
 11
277.701
 21
54.9465
 31
0.0
  0
LINE
  8
0
 62
     0
 10
277.701
 20
54.9465
 30
0.0
 11
276.175
 21
54.9465
 31
0.0
  0
LINE
  8
0
 62
     0
 10
276.175
 20
54.9465
 30
0.0
 11
276.175
 21
55.5459
 31
0.0
  0
LINE
  8
0
 62
     0
 10
276.175
 20
55.5459
 30
0.0
 11
276.976
 21
55.5459
 31
0.0
  0
LINE
  8
0
 62
     0
 10
276.976
 20
55.5459
 30
0.0
 11
276.976
 21
58.6465
 31
0.0
  0
LINE
  8
0
 62
     0
 10
276.976
 20
58.6465
 30
0.0
 11
276.175
 21
58.6465
 31
0.0
  0
LINE
  8
0
 62
     0
 10
276.175
 20
58.6465
 30
0.0
 11
276.175
 21
59.6456
 31
0.0
  0
LINE
  8
0
 62
     0
 10
276.175
 20
59.6456
 30
0.0
 11
262.176
 21
59.6456
 31
0.0
  0
LINE
  8
0
 62
     0
 10
14.5259
 20
59.6456
 30
0.0
 11
14.5259
 21
58.6465
 31
0.0
  0
LINE
  8
0
 62
     0
 10
14.5259
 20
58.6465
 30
0.0
 11
13.7253
 21
58.6465
 31
0.0
  0
LINE
  8
0
 62
     0
 10
13.7253
 20
58.6465
 30
0.0
 11
13.7253
 21
55.5459
 31
0.0
  0
LINE
  8
0
 62
     0
 10
13.7253
 20
55.5459
 30
0.0
 11
14.5259
 21
55.5459
 31
0.0
  0
LINE
  8
0
 62
     0
 10
14.5259
 20
55.5459
 30
0.0
 11
14.5259
 21
49.7459
 31
0.0
  0
LINE
  8
0
 62
     0
 10
14.5259
 20
49.7459
 30
0.0
 11
13.7253
 21
49.7459
 31
0.0
  0
LINE
  8
0
 62
     0
 10
13.7253
 20
49.7459
 30
0.0
 11
13.7253
 21
46.6467
 31
0.0
  0
LINE
  8
0
 62
     0
 10
13.7253
 20
46.6467
 30
0.0
 11
14.5259
 21
46.6467
 31
0.0
  0
LINE
  8
0
 62
     0
 10
14.5259
 20
46.6467
 30
0.0
 11
14.5259
 21
45.6463
 31
0.0
  0
LINE
  8
0
 62
     0
 10
14.5259
 20
45.6463
 30
0.0
 11
28.5254
 21
45.6463
 31
0.0
  0
LINE
  8
0
 62
     0
 10
28.5254
 20
45.6463
 30
0.0
 11
28.5254
 21
46.6467
 31
0.0
  0
LINE
  8
0
 62
     0
 10
28.5254
 20
46.6467
 30
0.0
 11
29.326
 21
46.6467
 31
0.0
  0
LINE
  8
0
 62
     0
 10
29.326
 20
46.6467
 30
0.0
 11
29.326
 21
49.7459
 31
0.0
  0
LINE
  8
0
 62
     0
 10
29.326
 20
49.7459
 30
0.0
 11
28.5254
 21
49.7459
 31
0.0
  0
LINE
  8
0
 62
     0
 10
28.5254
 20
49.7459
 30
0.0
 11
28.5254
 21
55.5459
 31
0.0
  0
LINE
  8
0
 62
     0
 10
28.5254
 20
55.5459
 30
0.0
 11
29.326
 21
55.5459
 31
0.0
  0
LINE
  8
0
 62
     0
 10
29.326
 20
55.5459
 30
0.0
 11
29.326
 21
58.6465
 31
0.0
  0
LINE
  8
0
 62
     0
 10
29.326
 20
58.6465
 30
0.0
 11
28.5254
 21
58.6465
 31
0.0
  0
LINE
  8
0
 62
     0
 10
28.5254
 20
58.6465
 30
0.0
 11
28.5254
 21
59.6456
 31
0.0
  0
LINE
  8
0
 62
     0
 10
28.5254
 20
59.6456
 30
0.0
 11
14.5259
 21
59.6456
 31
0.0
  0
LINE
  8
0
 62
     0
 10
40.7197
 20
59.6456
 30
0.0
 11
40.7197
 21
58.6465
 31
0.0
  0
LINE
  8
0
 62
     0
 10
40.7197
 20
58.6465
 30
0.0
 11
39.9189
 21
58.6465
 31
0.0
  0
LINE
  8
0
 62
     0
 10
39.9189
 20
58.6465
 30
0.0
 11
39.9189
 21
55.5459
 31
0.0
  0
LINE
  8
0
 62
     0
 10
39.9189
 20
55.5459
 30
0.0
 11
40.7197
 21
55.5459
 31
0.0
  0
LINE
  8
0
 62
     0
 10
40.7197
 20
55.5459
 30
0.0
 11
40.7197
 21
49.7459
 31
0.0
  0
LINE
  8
0
 62
     0
 10
40.7197
 20
49.7459
 30
0.0
 11
39.9189
 21
49.7459
 31
0.0
  0
LINE
  8
0
 62
     0
 10
39.9189
 20
49.7459
 30
0.0
 11
39.9189
 21
46.6467
 31
0.0
  0
LINE
  8
0
 62
     0
 10
39.9189
 20
46.6467
 30
0.0
 11
40.7197
 21
46.6467
 31
0.0
  0
LINE
  8
0
 62
     0
 10
40.7197
 20
46.6467
 30
0.0
 11
40.7197
 21
45.6463
 31
0.0
  0
LINE
  8
0
 62
     0
 10
40.7197
 20
45.6463
 30
0.0
 11
54.719
 21
45.6463
 31
0.0
  0
LINE
  8
0
 62
     0
 10
54.719
 20
45.6463
 30
0.0
 11
54.719
 21
46.6467
 31
0.0
  0
LINE
  8
0
 62
     0
 10
54.719
 20
46.6467
 30
0.0
 11
55.5198
 21
46.6467
 31
0.0
  0
LINE
  8
0
 62
     0
 10
55.5198
 20
46.6467
 30
0.0
 11
55.5198
 21
49.7459
 31
0.0
  0
LINE
  8
0
 62
     0
 10
55.5198
 20
49.7459
 30
0.0
 11
54.719
 21
49.7459
 31
0.0
  0
LINE
  8
0
 62
     0
 10
54.719
 20
49.7459
 30
0.0
 11
54.719
 21
55.5459
 31
0.0
  0
LINE
  8
0
 62
     0
 10
54.719
 20
55.5459
 30
0.0
 11
55.5198
 21
55.5459
 31
0.0
  0
LINE
  8
0
 62
     0
 10
55.5198
 20
55.5459
 30
0.0
 11
55.5198
 21
58.6465
 31
0.0
  0
LINE
  8
0
 62
     0
 10
55.5198
 20
58.6465
 30
0.0
 11
54.719
 21
58.6465
 31
0.0
  0
LINE
  8
0
 62
     0
 10
54.719
 20
58.6465
 30
0.0
 11
54.719
 21
59.6456
 31
0.0
  0
LINE
  8
0
 62
     0
 10
54.719
 20
59.6456
 30
0.0
 11
40.7197
 21
59.6456
 31
0.0
  0
LINE
  8
0
 62
     0
 10
59.7697
 20
59.6456
 30
0.0
 11
59.7697
 21
58.6465
 31
0.0
  0
LINE
  8
0
 62
     0
 10
59.7697
 20
58.6465
 30
0.0
 11
58.9689
 21
58.6465
 31
0.0
  0
LINE
  8
0
 62
     0
 10
58.9689
 20
58.6465
 30
0.0
 11
58.9689
 21
55.5459
 31
0.0
  0
LINE
  8
0
 62
     0
 10
58.9689
 20
55.5459
 30
0.0
 11
59.7697
 21
55.5459
 31
0.0
  0
LINE
  8
0
 62
     0
 10
59.7697
 20
55.5459
 30
0.0
 11
59.7697
 21
49.7459
 31
0.0
  0
LINE
  8
0
 62
     0
 10
59.7697
 20
49.7459
 30
0.0
 11
58.9689
 21
49.7459
 31
0.0
  0
LINE
  8
0
 62
     0
 10
58.9689
 20
49.7459
 30
0.0
 11
58.9689
 21
46.6467
 31
0.0
  0
LINE
  8
0
 62
     0
 10
58.9689
 20
46.6467
 30
0.0
 11
59.7697
 21
46.6467
 31
0.0
  0
LINE
  8
0
 62
     0
 10
59.7697
 20
46.6467
 30
0.0
 11
59.7697
 21
45.6463
 31
0.0
  0
LINE
  8
0
 62
     0
 10
59.7697
 20
45.6463
 30
0.0
 11
73.769
 21
45.6463
 31
0.0
  0
LINE
  8
0
 62
     0
 10
73.769
 20
45.6463
 30
0.0
 11
73.769
 21
46.6467
 31
0.0
  0
LINE
  8
0
 62
     0
 10
73.769
 20
46.6467
 30
0.0
 11
74.5698
 21
46.6467
 31
0.0
  0
LINE
  8
0
 62
     0
 10
74.5698
 20
46.6467
 30
0.0
 11
74.5698
 21
49.7459
 31
0.0
  0
LINE
  8
0
 62
     0
 10
74.5698
 20
49.7459
 30
0.0
 11
73.769
 21
49.7459
 31
0.0
  0
LINE
  8
0
 62
     0
 10
73.769
 20
49.7459
 30
0.0
 11
73.769
 21
55.5459
 31
0.0
  0
LINE
  8
0
 62
     0
 10
73.769
 20
55.5459
 30
0.0
 11
74.5698
 21
55.5459
 31
0.0
  0
LINE
  8
0
 62
     0
 10
74.5698
 20
55.5459
 30
0.0
 11
74.5698
 21
58.6465
 31
0.0
  0
LINE
  8
0
 62
     0
 10
74.5698
 20
58.6465
 30
0.0
 11
73.769
 21
58.6465
 31
0.0
  0
LINE
  8
0
 62
     0
 10
73.769
 20
58.6465
 30
0.0
 11
73.769
 21
59.6456
 31
0.0
  0
LINE
  8
0
 62
     0
 10
73.769
 20
59.6456
 30
0.0
 11
59.7697
 21
59.6456
 31
0.0
  0
LINE
  8
0
 62
     0
 10
78.8197
 20
59.6456
 30
0.0
 11
78.8197
 21
58.6465
 31
0.0
  0
LINE
  8
0
 62
     0
 10
78.8197
 20
58.6465
 30
0.0
 11
78.0189
 21
58.6465
 31
0.0
  0
LINE
  8
0
 62
     0
 10
78.0189
 20
58.6465
 30
0.0
 11
78.0189
 21
55.5459
 31
0.0
  0
LINE
  8
0
 62
     0
 10
78.0189
 20
55.5459
 30
0.0
 11
78.8197
 21
55.5459
 31
0.0
  0
LINE
  8
0
 62
     0
 10
78.8197
 20
55.5459
 30
0.0
 11
78.8197
 21
49.7459
 31
0.0
  0
LINE
  8
0
 62
     0
 10
78.8197
 20
49.7459
 30
0.0
 11
78.0189
 21
49.7459
 31
0.0
  0
LINE
  8
0
 62
     0
 10
78.0189
 20
49.7459
 30
0.0
 11
78.0189
 21
46.6467
 31
0.0
  0
LINE
  8
0
 62
     0
 10
78.0189
 20
46.6467
 30
0.0
 11
78.8197
 21
46.6467
 31
0.0
  0
LINE
  8
0
 62
     0
 10
78.8197
 20
46.6467
 30
0.0
 11
78.8197
 21
45.6463
 31
0.0
  0
LINE
  8
0
 62
     0
 10
78.8197
 20
45.6463
 30
0.0
 11
92.819
 21
45.6463
 31
0.0
  0
LINE
  8
0
 62
     0
 10
92.819
 20
45.6463
 30
0.0
 11
92.819
 21
46.6467
 31
0.0
  0
LINE
  8
0
 62
     0
 10
92.819
 20
46.6467
 30
0.0
 11
93.6184
 21
46.6467
 31
0.0
  0
LINE
  8
0
 62
     0
 10
93.6184
 20
46.6467
 30
0.0
 11
93.6184
 21
49.7459
 31
0.0
  0
LINE
  8
0
 62
     0
 10
93.6184
 20
49.7459
 30
0.0
 11
92.819
 21
49.7459
 31
0.0
  0
LINE
  8
0
 62
     0
 10
92.819
 20
49.7459
 30
0.0
 11
92.819
 21
55.5459
 31
0.0
  0
LINE
  8
0
 62
     0
 10
92.819
 20
55.5459
 30
0.0
 11
93.6184
 21
55.5459
 31
0.0
  0
LINE
  8
0
 62
     0
 10
93.6184
 20
55.5459
 30
0.0
 11
93.6184
 21
58.6465
 31
0.0
  0
LINE
  8
0
 62
     0
 10
93.6184
 20
58.6465
 30
0.0
 11
92.819
 21
58.6465
 31
0.0
  0
LINE
  8
0
 62
     0
 10
92.819
 20
58.6465
 30
0.0
 11
92.819
 21
59.6456
 31
0.0
  0
LINE
  8
0
 62
     0
 10
92.819
 20
59.6456
 30
0.0
 11
78.8197
 21
59.6456
 31
0.0
  0
LINE
  8
0
 62
     0
 10
97.8683
 20
59.6456
 30
0.0
 11
97.8683
 21
58.6465
 31
0.0
  0
LINE
  8
0
 62
     0
 10
97.8683
 20
58.6465
 30
0.0
 11
97.0689
 21
58.6465
 31
0.0
  0
LINE
  8
0
 62
     0
 10
97.0689
 20
58.6465
 30
0.0
 11
97.0689
 21
55.5459
 31
0.0
  0
LINE
  8
0
 62
     0
 10
97.0689
 20
55.5459
 30
0.0
 11
97.8683
 21
55.5459
 31
0.0
  0
LINE
  8
0
 62
     0
 10
97.8683
 20
55.5459
 30
0.0
 11
97.8683
 21
49.7459
 31
0.0
  0
LINE
  8
0
 62
     0
 10
97.8683
 20
49.7459
 30
0.0
 11
97.0689
 21
49.7459
 31
0.0
  0
LINE
  8
0
 62
     0
 10
97.0689
 20
49.7459
 30
0.0
 11
97.0689
 21
46.6467
 31
0.0
  0
LINE
  8
0
 62
     0
 10
97.0689
 20
46.6467
 30
0.0
 11
97.8683
 21
46.6467
 31
0.0
  0
LINE
  8
0
 62
     0
 10
97.8683
 20
46.6467
 30
0.0
 11
97.8683
 21
45.6463
 31
0.0
  0
LINE
  8
0
 62
     0
 10
97.8683
 20
45.6463
 30
0.0
 11
111.869
 21
45.6463
 31
0.0
  0
LINE
  8
0
 62
     0
 10
111.869
 20
45.6463
 30
0.0
 11
111.869
 21
46.6467
 31
0.0
  0
LINE
  8
0
 62
     0
 10
111.869
 20
46.6467
 30
0.0
 11
112.668
 21
46.6467
 31
0.0
  0
LINE
  8
0
 62
     0
 10
112.668
 20
46.6467
 30
0.0
 11
112.668
 21
49.7459
 31
0.0
  0
LINE
  8
0
 62
     0
 10
112.668
 20
49.7459
 30
0.0
 11
111.869
 21
49.7459
 31
0.0
  0
LINE
  8
0
 62
     0
 10
111.869
 20
49.7459
 30
0.0
 11
111.869
 21
55.5459
 31
0.0
  0
LINE
  8
0
 62
     0
 10
111.869
 20
55.5459
 30
0.0
 11
112.668
 21
55.5459
 31
0.0
  0
LINE
  8
0
 62
     0
 10
112.668
 20
55.5459
 30
0.0
 11
112.668
 21
58.6465
 31
0.0
  0
LINE
  8
0
 62
     0
 10
112.668
 20
58.6465
 30
0.0
 11
111.869
 21
58.6465
 31
0.0
  0
LINE
  8
0
 62
     0
 10
111.869
 20
58.6465
 30
0.0
 11
111.869
 21
59.6456
 31
0.0
  0
LINE
  8
0
 62
     0
 10
111.869
 20
59.6456
 30
0.0
 11
97.8683
 21
59.6456
 31
0.0
  0
LINE
  8
0
 62
     0
 10
116.918
 20
59.6456
 30
0.0
 11
116.918
 21
58.6465
 31
0.0
  0
LINE
  8
0
 62
     0
 10
116.918
 20
58.6465
 30
0.0
 11
116.119
 21
58.6465
 31
0.0
  0
LINE
  8
0
 62
     0
 10
116.119
 20
58.6465
 30
0.0
 11
116.119
 21
55.5459
 31
0.0
  0
LINE
  8
0
 62
     0
 10
116.119
 20
55.5459
 30
0.0
 11
116.918
 21
55.5459
 31
0.0
  0
LINE
  8
0
 62
     0
 10
116.918
 20
55.5459
 30
0.0
 11
116.918
 21
49.7459
 31
0.0
  0
LINE
  8
0
 62
     0
 10
116.918
 20
49.7459
 30
0.0
 11
116.119
 21
49.7459
 31
0.0
  0
LINE
  8
0
 62
     0
 10
116.119
 20
49.7459
 30
0.0
 11
116.119
 21
46.6467
 31
0.0
  0
LINE
  8
0
 62
     0
 10
116.119
 20
46.6467
 30
0.0
 11
116.918
 21
46.6467
 31
0.0
  0
LINE
  8
0
 62
     0
 10
116.918
 20
46.6467
 30
0.0
 11
116.918
 21
45.6463
 31
0.0
  0
LINE
  8
0
 62
     0
 10
116.918
 20
45.6463
 30
0.0
 11
130.919
 21
45.6463
 31
0.0
  0
LINE
  8
0
 62
     0
 10
130.919
 20
45.6463
 30
0.0
 11
130.919
 21
46.6467
 31
0.0
  0
LINE
  8
0
 62
     0
 10
130.919
 20
46.6467
 30
0.0
 11
131.72
 21
46.6467
 31
0.0
  0
LINE
  8
0
 62
     0
 10
131.72
 20
46.6467
 30
0.0
 11
131.72
 21
49.7459
 31
0.0
  0
LINE
  8
0
 62
     0
 10
131.72
 20
49.7459
 30
0.0
 11
130.919
 21
49.7459
 31
0.0
  0
LINE
  8
0
 62
     0
 10
130.919
 20
49.7459
 30
0.0
 11
130.919
 21
55.5459
 31
0.0
  0
LINE
  8
0
 62
     0
 10
130.919
 20
55.5459
 30
0.0
 11
131.72
 21
55.5459
 31
0.0
  0
LINE
  8
0
 62
     0
 10
131.72
 20
55.5459
 30
0.0
 11
131.72
 21
58.6465
 31
0.0
  0
LINE
  8
0
 62
     0
 10
131.72
 20
58.6465
 30
0.0
 11
130.919
 21
58.6465
 31
0.0
  0
LINE
  8
0
 62
     0
 10
130.919
 20
58.6465
 30
0.0
 11
130.919
 21
59.6456
 31
0.0
  0
LINE
  8
0
 62
     0
 10
130.919
 20
59.6456
 30
0.0
 11
116.918
 21
59.6456
 31
0.0
  0
LINE
  8
0
 62
     0
 10
135.97
 20
59.6456
 30
0.0
 11
135.97
 21
58.6465
 31
0.0
  0
LINE
  8
0
 62
     0
 10
135.97
 20
58.6465
 30
0.0
 11
135.169
 21
58.6465
 31
0.0
  0
LINE
  8
0
 62
     0
 10
135.169
 20
58.6465
 30
0.0
 11
135.169
 21
55.5459
 31
0.0
  0
LINE
  8
0
 62
     0
 10
135.169
 20
55.5459
 30
0.0
 11
135.97
 21
55.5459
 31
0.0
  0
LINE
  8
0
 62
     0
 10
135.97
 20
55.5459
 30
0.0
 11
135.97
 21
49.7459
 31
0.0
  0
LINE
  8
0
 62
     0
 10
135.97
 20
49.7459
 30
0.0
 11
135.169
 21
49.7459
 31
0.0
  0
LINE
  8
0
 62
     0
 10
135.169
 20
49.7459
 30
0.0
 11
135.169
 21
46.6467
 31
0.0
  0
LINE
  8
0
 62
     0
 10
135.169
 20
46.6467
 30
0.0
 11
135.97
 21
46.6467
 31
0.0
  0
LINE
  8
0
 62
     0
 10
135.97
 20
46.6467
 30
0.0
 11
135.97
 21
45.6463
 31
0.0
  0
LINE
  8
0
 62
     0
 10
135.97
 20
45.6463
 30
0.0
 11
149.969
 21
45.6463
 31
0.0
  0
LINE
  8
0
 62
     0
 10
149.969
 20
45.6463
 30
0.0
 11
149.969
 21
46.6467
 31
0.0
  0
LINE
  8
0
 62
     0
 10
149.969
 20
46.6467
 30
0.0
 11
150.77
 21
46.6467
 31
0.0
  0
LINE
  8
0
 62
     0
 10
150.77
 20
46.6467
 30
0.0
 11
150.77
 21
49.7459
 31
0.0
  0
LINE
  8
0
 62
     0
 10
150.77
 20
49.7459
 30
0.0
 11
149.969
 21
49.7459
 31
0.0
  0
LINE
  8
0
 62
     0
 10
149.969
 20
49.7459
 30
0.0
 11
149.969
 21
55.5459
 31
0.0
  0
LINE
  8
0
 62
     0
 10
149.969
 20
55.5459
 30
0.0
 11
150.77
 21
55.5459
 31
0.0
  0
LINE
  8
0
 62
     0
 10
150.77
 20
55.5459
 30
0.0
 11
150.77
 21
58.6465
 31
0.0
  0
LINE
  8
0
 62
     0
 10
150.77
 20
58.6465
 30
0.0
 11
149.969
 21
58.6465
 31
0.0
  0
LINE
  8
0
 62
     0
 10
149.969
 20
58.6465
 30
0.0
 11
149.969
 21
59.6456
 31
0.0
  0
LINE
  8
0
 62
     0
 10
149.969
 20
59.6456
 30
0.0
 11
135.97
 21
59.6456
 31
0.0
  0
LINE
  8
0
 62
     0
 10
155.02
 20
59.6456
 30
0.0
 11
155.02
 21
58.6465
 31
0.0
  0
LINE
  8
0
 62
     0
 10
155.02
 20
58.6465
 30
0.0
 11
154.219
 21
58.6465
 31
0.0
  0
LINE
  8
0
 62
     0
 10
154.219
 20
58.6465
 30
0.0
 11
154.219
 21
55.5459
 31
0.0
  0
LINE
  8
0
 62
     0
 10
154.219
 20
55.5459
 30
0.0
 11
155.02
 21
55.5459
 31
0.0
  0
LINE
  8
0
 62
     0
 10
155.02
 20
55.5459
 30
0.0
 11
155.02
 21
49.7459
 31
0.0
  0
LINE
  8
0
 62
     0
 10
155.02
 20
49.7459
 30
0.0
 11
154.219
 21
49.7459
 31
0.0
  0
LINE
  8
0
 62
     0
 10
154.219
 20
49.7459
 30
0.0
 11
154.219
 21
46.6467
 31
0.0
  0
LINE
  8
0
 62
     0
 10
154.219
 20
46.6467
 30
0.0
 11
155.02
 21
46.6467
 31
0.0
  0
LINE
  8
0
 62
     0
 10
155.02
 20
46.6467
 30
0.0
 11
155.02
 21
45.6463
 31
0.0
  0
LINE
  8
0
 62
     0
 10
155.02
 20
45.6463
 30
0.0
 11
169.019
 21
45.6463
 31
0.0
  0
LINE
  8
0
 62
     0
 10
169.019
 20
45.6463
 30
0.0
 11
169.019
 21
46.6467
 31
0.0
  0
LINE
  8
0
 62
     0
 10
169.019
 20
46.6467
 30
0.0
 11
169.82
 21
46.6467
 31
0.0
  0
LINE
  8
0
 62
     0
 10
169.82
 20
46.6467
 30
0.0
 11
169.82
 21
49.7459
 31
0.0
  0
LINE
  8
0
 62
     0
 10
169.82
 20
49.7459
 30
0.0
 11
169.019
 21
49.7459
 31
0.0
  0
LINE
  8
0
 62
     0
 10
169.019
 20
49.7459
 30
0.0
 11
169.019
 21
55.5459
 31
0.0
  0
LINE
  8
0
 62
     0
 10
169.019
 20
55.5459
 30
0.0
 11
169.82
 21
55.5459
 31
0.0
  0
LINE
  8
0
 62
     0
 10
169.82
 20
55.5459
 30
0.0
 11
169.82
 21
58.6465
 31
0.0
  0
LINE
  8
0
 62
     0
 10
169.82
 20
58.6465
 30
0.0
 11
169.019
 21
58.6465
 31
0.0
  0
LINE
  8
0
 62
     0
 10
169.019
 20
58.6465
 30
0.0
 11
169.019
 21
59.6456
 31
0.0
  0
LINE
  8
0
 62
     0
 10
169.019
 20
59.6456
 30
0.0
 11
155.02
 21
59.6456
 31
0.0
  0
LINE
  8
0
 62
     0
 10
174.07
 20
59.6456
 30
0.0
 11
174.07
 21
58.6465
 31
0.0
  0
LINE
  8
0
 62
     0
 10
174.07
 20
58.6465
 30
0.0
 11
173.269
 21
58.6465
 31
0.0
  0
LINE
  8
0
 62
     0
 10
173.269
 20
58.6465
 30
0.0
 11
173.269
 21
55.5459
 31
0.0
  0
LINE
  8
0
 62
     0
 10
173.269
 20
55.5459
 30
0.0
 11
174.07
 21
55.5459
 31
0.0
  0
LINE
  8
0
 62
     0
 10
174.07
 20
55.5459
 30
0.0
 11
174.07
 21
49.7459
 31
0.0
  0
LINE
  8
0
 62
     0
 10
174.07
 20
49.7459
 30
0.0
 11
173.269
 21
49.7459
 31
0.0
  0
LINE
  8
0
 62
     0
 10
173.269
 20
49.7459
 30
0.0
 11
173.269
 21
46.6467
 31
0.0
  0
LINE
  8
0
 62
     0
 10
173.269
 20
46.6467
 30
0.0
 11
174.07
 21
46.6467
 31
0.0
  0
LINE
  8
0
 62
     0
 10
174.07
 20
46.6467
 30
0.0
 11
174.07
 21
45.6463
 31
0.0
  0
LINE
  8
0
 62
     0
 10
174.07
 20
45.6463
 30
0.0
 11
188.069
 21
45.6463
 31
0.0
  0
LINE
  8
0
 62
     0
 10
188.069
 20
45.6463
 30
0.0
 11
188.069
 21
46.6467
 31
0.0
  0
LINE
  8
0
 62
     0
 10
188.069
 20
46.6467
 30
0.0
 11
188.87
 21
46.6467
 31
0.0
  0
LINE
  8
0
 62
     0
 10
188.87
 20
46.6467
 30
0.0
 11
188.87
 21
49.7459
 31
0.0
  0
LINE
  8
0
 62
     0
 10
188.87
 20
49.7459
 30
0.0
 11
188.069
 21
49.7459
 31
0.0
  0
LINE
  8
0
 62
     0
 10
188.069
 20
49.7459
 30
0.0
 11
188.069
 21
55.5459
 31
0.0
  0
LINE
  8
0
 62
     0
 10
188.069
 20
55.5459
 30
0.0
 11
188.87
 21
55.5459
 31
0.0
  0
LINE
  8
0
 62
     0
 10
188.87
 20
55.5459
 30
0.0
 11
188.87
 21
58.6465
 31
0.0
  0
LINE
  8
0
 62
     0
 10
188.87
 20
58.6465
 30
0.0
 11
188.069
 21
58.6465
 31
0.0
  0
LINE
  8
0
 62
     0
 10
188.069
 20
58.6465
 30
0.0
 11
188.069
 21
59.6456
 31
0.0
  0
LINE
  8
0
 62
     0
 10
188.069
 20
59.6456
 30
0.0
 11
174.07
 21
59.6456
 31
0.0
  0
LINE
  8
0
 62
     0
 10
193.12
 20
59.6456
 30
0.0
 11
193.12
 21
58.6465
 31
0.0
  0
LINE
  8
0
 62
     0
 10
193.12
 20
58.6465
 30
0.0
 11
192.319
 21
58.6465
 31
0.0
  0
LINE
  8
0
 62
     0
 10
192.319
 20
58.6465
 30
0.0
 11
192.319
 21
55.5459
 31
0.0
  0
LINE
  8
0
 62
     0
 10
192.319
 20
55.5459
 30
0.0
 11
193.12
 21
55.5459
 31
0.0
  0
LINE
  8
0
 62
     0
 10
193.12
 20
55.5459
 30
0.0
 11
193.12
 21
49.7459
 31
0.0
  0
LINE
  8
0
 62
     0
 10
193.12
 20
49.7459
 30
0.0
 11
192.319
 21
49.7459
 31
0.0
  0
LINE
  8
0
 62
     0
 10
192.319
 20
49.7459
 30
0.0
 11
192.319
 21
46.6467
 31
0.0
  0
LINE
  8
0
 62
     0
 10
192.319
 20
46.6467
 30
0.0
 11
193.12
 21
46.6467
 31
0.0
  0
LINE
  8
0
 62
     0
 10
193.12
 20
46.6467
 30
0.0
 11
193.12
 21
45.6463
 31
0.0
  0
LINE
  8
0
 62
     0
 10
193.12
 20
45.6463
 30
0.0
 11
207.119
 21
45.6463
 31
0.0
  0
LINE
  8
0
 62
     0
 10
207.119
 20
45.6463
 30
0.0
 11
207.119
 21
46.6467
 31
0.0
  0
LINE
  8
0
 62
     0
 10
207.119
 20
46.6467
 30
0.0
 11
207.92
 21
46.6467
 31
0.0
  0
LINE
  8
0
 62
     0
 10
207.92
 20
46.6467
 30
0.0
 11
207.92
 21
49.7459
 31
0.0
  0
LINE
  8
0
 62
     0
 10
207.92
 20
49.7459
 30
0.0
 11
207.119
 21
49.7459
 31
0.0
  0
LINE
  8
0
 62
     0
 10
207.119
 20
49.7459
 30
0.0
 11
207.119
 21
55.5459
 31
0.0
  0
LINE
  8
0
 62
     0
 10
207.119
 20
55.5459
 30
0.0
 11
207.92
 21
55.5459
 31
0.0
  0
LINE
  8
0
 62
     0
 10
207.92
 20
55.5459
 30
0.0
 11
207.92
 21
58.6465
 31
0.0
  0
LINE
  8
0
 62
     0
 10
207.92
 20
58.6465
 30
0.0
 11
207.119
 21
58.6465
 31
0.0
  0
LINE
  8
0
 62
     0
 10
207.119
 20
58.6465
 30
0.0
 11
207.119
 21
59.6456
 31
0.0
  0
LINE
  8
0
 62
     0
 10
207.119
 20
59.6456
 30
0.0
 11
193.12
 21
59.6456
 31
0.0
  0
LINE
  8
0
 62
     0
 10
212.17
 20
59.6456
 30
0.0
 11
212.17
 21
58.6465
 31
0.0
  0
LINE
  8
0
 62
     0
 10
212.17
 20
58.6465
 30
0.0
 11
211.369
 21
58.6465
 31
0.0
  0
LINE
  8
0
 62
     0
 10
211.369
 20
58.6465
 30
0.0
 11
211.369
 21
55.5459
 31
0.0
  0
LINE
  8
0
 62
     0
 10
211.369
 20
55.5459
 30
0.0
 11
212.17
 21
55.5459
 31
0.0
  0
LINE
  8
0
 62
     0
 10
212.17
 20
55.5459
 30
0.0
 11
212.17
 21
49.7459
 31
0.0
  0
LINE
  8
0
 62
     0
 10
212.17
 20
49.7459
 30
0.0
 11
211.369
 21
49.7459
 31
0.0
  0
LINE
  8
0
 62
     0
 10
211.369
 20
49.7459
 30
0.0
 11
211.369
 21
46.6467
 31
0.0
  0
LINE
  8
0
 62
     0
 10
211.369
 20
46.6467
 30
0.0
 11
212.17
 21
46.6467
 31
0.0
  0
LINE
  8
0
 62
     0
 10
212.17
 20
46.6467
 30
0.0
 11
212.17
 21
45.6463
 31
0.0
  0
LINE
  8
0
 62
     0
 10
212.17
 20
45.6463
 30
0.0
 11
226.169
 21
45.6463
 31
0.0
  0
LINE
  8
0
 62
     0
 10
226.169
 20
45.6463
 30
0.0
 11
226.169
 21
46.6467
 31
0.0
  0
LINE
  8
0
 62
     0
 10
226.169
 20
46.6467
 30
0.0
 11
226.97
 21
46.6467
 31
0.0
  0
LINE
  8
0
 62
     0
 10
226.97
 20
46.6467
 30
0.0
 11
226.97
 21
49.7459
 31
0.0
  0
LINE
  8
0
 62
     0
 10
226.97
 20
49.7459
 30
0.0
 11
226.169
 21
49.7459
 31
0.0
  0
LINE
  8
0
 62
     0
 10
226.169
 20
49.7459
 30
0.0
 11
226.169
 21
55.5459
 31
0.0
  0
LINE
  8
0
 62
     0
 10
226.169
 20
55.5459
 30
0.0
 11
226.97
 21
55.5459
 31
0.0
  0
LINE
  8
0
 62
     0
 10
226.97
 20
55.5459
 30
0.0
 11
226.97
 21
58.6465
 31
0.0
  0
LINE
  8
0
 62
     0
 10
226.97
 20
58.6465
 30
0.0
 11
226.169
 21
58.6465
 31
0.0
  0
LINE
  8
0
 62
     0
 10
226.169
 20
58.6465
 30
0.0
 11
226.169
 21
59.6456
 31
0.0
  0
LINE
  8
0
 62
     0
 10
226.169
 20
59.6456
 30
0.0
 11
212.17
 21
59.6456
 31
0.0
  0
LINE
  8
0
 62
     0
 10
231.22
 20
59.6456
 30
0.0
 11
231.22
 21
58.6465
 31
0.0
  0
LINE
  8
0
 62
     0
 10
231.22
 20
58.6465
 30
0.0
 11
230.419
 21
58.6465
 31
0.0
  0
LINE
  8
0
 62
     0
 10
230.419
 20
58.6465
 30
0.0
 11
230.419
 21
55.5459
 31
0.0
  0
LINE
  8
0
 62
     0
 10
230.419
 20
55.5459
 30
0.0
 11
231.22
 21
55.5459
 31
0.0
  0
LINE
  8
0
 62
     0
 10
231.22
 20
55.5459
 30
0.0
 11
231.22
 21
49.7459
 31
0.0
  0
LINE
  8
0
 62
     0
 10
231.22
 20
49.7459
 30
0.0
 11
230.419
 21
49.7459
 31
0.0
  0
LINE
  8
0
 62
     0
 10
230.419
 20
49.7459
 30
0.0
 11
230.419
 21
46.6467
 31
0.0
  0
LINE
  8
0
 62
     0
 10
230.419
 20
46.6467
 30
0.0
 11
231.22
 21
46.6467
 31
0.0
  0
LINE
  8
0
 62
     0
 10
231.22
 20
46.6467
 30
0.0
 11
231.22
 21
45.6463
 31
0.0
  0
LINE
  8
0
 62
     0
 10
231.22
 20
45.6463
 30
0.0
 11
245.219
 21
45.6463
 31
0.0
  0
LINE
  8
0
 62
     0
 10
245.219
 20
45.6463
 30
0.0
 11
245.219
 21
46.6467
 31
0.0
  0
LINE
  8
0
 62
     0
 10
245.219
 20
46.6467
 30
0.0
 11
246.02
 21
46.6467
 31
0.0
  0
LINE
  8
0
 62
     0
 10
246.02
 20
46.6467
 30
0.0
 11
246.02
 21
49.7459
 31
0.0
  0
LINE
  8
0
 62
     0
 10
246.02
 20
49.7459
 30
0.0
 11
245.219
 21
49.7459
 31
0.0
  0
LINE
  8
0
 62
     0
 10
245.219
 20
49.7459
 30
0.0
 11
245.219
 21
55.5459
 31
0.0
  0
LINE
  8
0
 62
     0
 10
245.219
 20
55.5459
 30
0.0
 11
246.02
 21
55.5459
 31
0.0
  0
LINE
  8
0
 62
     0
 10
246.02
 20
55.5459
 30
0.0
 11
246.02
 21
58.6465
 31
0.0
  0
LINE
  8
0
 62
     0
 10
246.02
 20
58.6465
 30
0.0
 11
245.219
 21
58.6465
 31
0.0
  0
LINE
  8
0
 62
     0
 10
245.219
 20
58.6465
 30
0.0
 11
245.219
 21
59.6456
 31
0.0
  0
LINE
  8
0
 62
     0
 10
245.219
 20
59.6456
 30
0.0
 11
231.22
 21
59.6456
 31
0.0
  0
LINE
  8
0
 62
     0
 10
12.1447
 20
78.6956
 30
0.0
 11
12.1447
 21
77.6965
 31
0.0
  0
LINE
  8
0
 62
     0
 10
12.1447
 20
77.6965
 30
0.0
 11
11.344
 21
77.6965
 31
0.0
  0
LINE
  8
0
 62
     0
 10
11.344
 20
77.6965
 30
0.0
 11
11.344
 21
74.5959
 31
0.0
  0
LINE
  8
0
 62
     0
 10
11.344
 20
74.5959
 30
0.0
 11
12.1447
 21
74.5959
 31
0.0
  0
LINE
  8
0
 62
     0
 10
12.1447
 20
74.5959
 30
0.0
 11
12.1447
 21
68.7959
 31
0.0
  0
LINE
  8
0
 62
     0
 10
12.1447
 20
68.7959
 30
0.0
 11
11.344
 21
68.7959
 31
0.0
  0
LINE
  8
0
 62
     0
 10
11.344
 20
68.7959
 30
0.0
 11
11.344
 21
65.6967
 31
0.0
  0
LINE
  8
0
 62
     0
 10
11.344
 20
65.6967
 30
0.0
 11
12.1447
 21
65.6967
 31
0.0
  0
LINE
  8
0
 62
     0
 10
12.1447
 20
65.6967
 30
0.0
 11
12.1447
 21
64.6963
 31
0.0
  0
LINE
  8
0
 62
     0
 10
12.1447
 20
64.6963
 30
0.0
 11
26.1441
 21
64.6963
 31
0.0
  0
LINE
  8
0
 62
     0
 10
26.1441
 20
64.6963
 30
0.0
 11
26.1441
 21
65.6967
 31
0.0
  0
LINE
  8
0
 62
     0
 10
26.1441
 20
65.6967
 30
0.0
 11
26.9448
 21
65.6967
 31
0.0
  0
LINE
  8
0
 62
     0
 10
26.9448
 20
65.6967
 30
0.0
 11
26.9448
 21
68.7959
 31
0.0
  0
LINE
  8
0
 62
     0
 10
26.9448
 20
68.7959
 30
0.0
 11
26.1441
 21
68.7959
 31
0.0
  0
LINE
  8
0
 62
     0
 10
26.1441
 20
68.7959
 30
0.0
 11
26.1441
 21
74.5959
 31
0.0
  0
LINE
  8
0
 62
     0
 10
26.1441
 20
74.5959
 30
0.0
 11
26.9448
 21
74.5959
 31
0.0
  0
LINE
  8
0
 62
     0
 10
26.9448
 20
74.5959
 30
0.0
 11
26.9448
 21
77.6965
 31
0.0
  0
LINE
  8
0
 62
     0
 10
26.9448
 20
77.6965
 30
0.0
 11
26.1441
 21
77.6965
 31
0.0
  0
LINE
  8
0
 62
     0
 10
26.1441
 20
77.6965
 30
0.0
 11
26.1441
 21
78.6956
 31
0.0
  0
LINE
  8
0
 62
     0
 10
26.1441
 20
78.6956
 30
0.0
 11
12.1447
 21
78.6956
 31
0.0
  0
LINE
  8
0
 62
     0
 10
35.9572
 20
78.6956
 30
0.0
 11
35.9572
 21
77.6965
 31
0.0
  0
LINE
  8
0
 62
     0
 10
35.9572
 20
77.6965
 30
0.0
 11
35.1565
 21
77.6965
 31
0.0
  0
LINE
  8
0
 62
     0
 10
35.1565
 20
77.6965
 30
0.0
 11
35.1565
 21
74.5959
 31
0.0
  0
LINE
  8
0
 62
     0
 10
35.1565
 20
74.5959
 30
0.0
 11
35.9572
 21
74.5959
 31
0.0
  0
LINE
  8
0
 62
     0
 10
35.9572
 20
74.5959
 30
0.0
 11
35.9572
 21
68.7959
 31
0.0
  0
LINE
  8
0
 62
     0
 10
35.9572
 20
68.7959
 30
0.0
 11
35.1565
 21
68.7959
 31
0.0
  0
LINE
  8
0
 62
     0
 10
35.1565
 20
68.7959
 30
0.0
 11
35.1565
 21
65.6967
 31
0.0
  0
LINE
  8
0
 62
     0
 10
35.1565
 20
65.6967
 30
0.0
 11
35.9572
 21
65.6967
 31
0.0
  0
LINE
  8
0
 62
     0
 10
35.9572
 20
65.6967
 30
0.0
 11
35.9572
 21
64.6963
 31
0.0
  0
LINE
  8
0
 62
     0
 10
35.9572
 20
64.6963
 30
0.0
 11
49.9565
 21
64.6963
 31
0.0
  0
LINE
  8
0
 62
     0
 10
49.9565
 20
64.6963
 30
0.0
 11
49.9565
 21
65.6967
 31
0.0
  0
LINE
  8
0
 62
     0
 10
49.9565
 20
65.6967
 30
0.0
 11
50.7559
 21
65.6967
 31
0.0
  0
LINE
  8
0
 62
     0
 10
50.7559
 20
65.6967
 30
0.0
 11
50.7559
 21
68.7959
 31
0.0
  0
LINE
  8
0
 62
     0
 10
50.7559
 20
68.7959
 30
0.0
 11
49.9565
 21
68.7959
 31
0.0
  0
LINE
  8
0
 62
     0
 10
49.9565
 20
68.7959
 30
0.0
 11
49.9565
 21
74.5959
 31
0.0
  0
LINE
  8
0
 62
     0
 10
49.9565
 20
74.5959
 30
0.0
 11
50.7559
 21
74.5959
 31
0.0
  0
LINE
  8
0
 62
     0
 10
50.7559
 20
74.5959
 30
0.0
 11
50.7559
 21
77.6965
 31
0.0
  0
LINE
  8
0
 62
     0
 10
50.7559
 20
77.6965
 30
0.0
 11
49.9565
 21
77.6965
 31
0.0
  0
LINE
  8
0
 62
     0
 10
49.9565
 20
77.6965
 30
0.0
 11
49.9565
 21
78.6956
 31
0.0
  0
LINE
  8
0
 62
     0
 10
49.9565
 20
78.6956
 30
0.0
 11
35.9572
 21
78.6956
 31
0.0
  0
LINE
  8
0
 62
     0
 10
55.0072
 20
78.6956
 30
0.0
 11
55.0072
 21
77.6965
 31
0.0
  0
LINE
  8
0
 62
     0
 10
55.0072
 20
77.6965
 30
0.0
 11
54.2064
 21
77.6965
 31
0.0
  0
LINE
  8
0
 62
     0
 10
54.2064
 20
77.6965
 30
0.0
 11
54.2064
 21
74.5959
 31
0.0
  0
LINE
  8
0
 62
     0
 10
54.2064
 20
74.5959
 30
0.0
 11
55.0072
 21
74.5959
 31
0.0
  0
LINE
  8
0
 62
     0
 10
55.0072
 20
74.5959
 30
0.0
 11
55.0072
 21
68.7959
 31
0.0
  0
LINE
  8
0
 62
     0
 10
55.0072
 20
68.7959
 30
0.0
 11
54.2064
 21
68.7959
 31
0.0
  0
LINE
  8
0
 62
     0
 10
54.2064
 20
68.7959
 30
0.0
 11
54.2064
 21
65.6967
 31
0.0
  0
LINE
  8
0
 62
     0
 10
54.2064
 20
65.6967
 30
0.0
 11
55.0072
 21
65.6967
 31
0.0
  0
LINE
  8
0
 62
     0
 10
55.0072
 20
65.6967
 30
0.0
 11
55.0072
 21
64.6963
 31
0.0
  0
LINE
  8
0
 62
     0
 10
55.0072
 20
64.6963
 30
0.0
 11
69.0065
 21
64.6963
 31
0.0
  0
LINE
  8
0
 62
     0
 10
69.0065
 20
64.6963
 30
0.0
 11
69.0065
 21
65.6967
 31
0.0
  0
LINE
  8
0
 62
     0
 10
69.0065
 20
65.6967
 30
0.0
 11
69.8059
 21
65.6967
 31
0.0
  0
LINE
  8
0
 62
     0
 10
69.8059
 20
65.6967
 30
0.0
 11
69.8059
 21
68.7959
 31
0.0
  0
LINE
  8
0
 62
     0
 10
69.8059
 20
68.7959
 30
0.0
 11
69.0065
 21
68.7959
 31
0.0
  0
LINE
  8
0
 62
     0
 10
69.0065
 20
68.7959
 30
0.0
 11
69.0065
 21
74.5959
 31
0.0
  0
LINE
  8
0
 62
     0
 10
69.0065
 20
74.5959
 30
0.0
 11
69.8059
 21
74.5959
 31
0.0
  0
LINE
  8
0
 62
     0
 10
69.8059
 20
74.5959
 30
0.0
 11
69.8059
 21
77.6965
 31
0.0
  0
LINE
  8
0
 62
     0
 10
69.8059
 20
77.6965
 30
0.0
 11
69.0065
 21
77.6965
 31
0.0
  0
LINE
  8
0
 62
     0
 10
69.0065
 20
77.6965
 30
0.0
 11
69.0065
 21
78.6956
 31
0.0
  0
LINE
  8
0
 62
     0
 10
69.0065
 20
78.6956
 30
0.0
 11
55.0072
 21
78.6956
 31
0.0
  0
LINE
  8
0
 62
     0
 10
74.0572
 20
78.6956
 30
0.0
 11
74.0572
 21
77.6965
 31
0.0
  0
LINE
  8
0
 62
     0
 10
74.0572
 20
77.6965
 30
0.0
 11
73.2564
 21
77.6965
 31
0.0
  0
LINE
  8
0
 62
     0
 10
73.2564
 20
77.6965
 30
0.0
 11
73.2564
 21
74.5959
 31
0.0
  0
LINE
  8
0
 62
     0
 10
73.2564
 20
74.5959
 30
0.0
 11
74.0572
 21
74.5959
 31
0.0
  0
LINE
  8
0
 62
     0
 10
74.0572
 20
74.5959
 30
0.0
 11
74.0572
 21
68.7959
 31
0.0
  0
LINE
  8
0
 62
     0
 10
74.0572
 20
68.7959
 30
0.0
 11
73.2564
 21
68.7959
 31
0.0
  0
LINE
  8
0
 62
     0
 10
73.2564
 20
68.7959
 30
0.0
 11
73.2564
 21
65.6967
 31
0.0
  0
LINE
  8
0
 62
     0
 10
73.2564
 20
65.6967
 30
0.0
 11
74.0572
 21
65.6967
 31
0.0
  0
LINE
  8
0
 62
     0
 10
74.0572
 20
65.6967
 30
0.0
 11
74.0572
 21
64.6963
 31
0.0
  0
LINE
  8
0
 62
     0
 10
74.0572
 20
64.6963
 30
0.0
 11
88.0565
 21
64.6963
 31
0.0
  0
LINE
  8
0
 62
     0
 10
88.0565
 20
64.6963
 30
0.0
 11
88.0565
 21
65.6967
 31
0.0
  0
LINE
  8
0
 62
     0
 10
88.0565
 20
65.6967
 30
0.0
 11
88.8559
 21
65.6967
 31
0.0
  0
LINE
  8
0
 62
     0
 10
88.8559
 20
65.6967
 30
0.0
 11
88.8559
 21
68.7959
 31
0.0
  0
LINE
  8
0
 62
     0
 10
88.8559
 20
68.7959
 30
0.0
 11
88.0565
 21
68.7959
 31
0.0
  0
LINE
  8
0
 62
     0
 10
88.0565
 20
68.7959
 30
0.0
 11
88.0565
 21
74.5959
 31
0.0
  0
LINE
  8
0
 62
     0
 10
88.0565
 20
74.5959
 30
0.0
 11
88.8559
 21
74.5959
 31
0.0
  0
LINE
  8
0
 62
     0
 10
88.8559
 20
74.5959
 30
0.0
 11
88.8559
 21
77.6965
 31
0.0
  0
LINE
  8
0
 62
     0
 10
88.8559
 20
77.6965
 30
0.0
 11
88.0565
 21
77.6965
 31
0.0
  0
LINE
  8
0
 62
     0
 10
88.0565
 20
77.6965
 30
0.0
 11
88.0565
 21
78.6956
 31
0.0
  0
LINE
  8
0
 62
     0
 10
88.0565
 20
78.6956
 30
0.0
 11
74.0572
 21
78.6956
 31
0.0
  0
LINE
  8
0
 62
     0
 10
93.1072
 20
78.6956
 30
0.0
 11
93.1072
 21
77.6965
 31
0.0
  0
LINE
  8
0
 62
     0
 10
93.1072
 20
77.6965
 30
0.0
 11
92.3064
 21
77.6965
 31
0.0
  0
LINE
  8
0
 62
     0
 10
92.3064
 20
77.6965
 30
0.0
 11
92.3064
 21
74.5959
 31
0.0
  0
LINE
  8
0
 62
     0
 10
92.3064
 20
74.5959
 30
0.0
 11
93.1072
 21
74.5959
 31
0.0
  0
LINE
  8
0
 62
     0
 10
93.1072
 20
74.5959
 30
0.0
 11
93.1072
 21
68.7959
 31
0.0
  0
LINE
  8
0
 62
     0
 10
93.1072
 20
68.7959
 30
0.0
 11
92.3064
 21
68.7959
 31
0.0
  0
LINE
  8
0
 62
     0
 10
92.3064
 20
68.7959
 30
0.0
 11
92.3064
 21
65.6967
 31
0.0
  0
LINE
  8
0
 62
     0
 10
92.3064
 20
65.6967
 30
0.0
 11
93.1072
 21
65.6967
 31
0.0
  0
LINE
  8
0
 62
     0
 10
93.1072
 20
65.6967
 30
0.0
 11
93.1072
 21
64.6963
 31
0.0
  0
LINE
  8
0
 62
     0
 10
93.1072
 20
64.6963
 30
0.0
 11
107.107
 21
64.6963
 31
0.0
  0
LINE
  8
0
 62
     0
 10
107.107
 20
64.6963
 30
0.0
 11
107.107
 21
65.6967
 31
0.0
  0
LINE
  8
0
 62
     0
 10
107.107
 20
65.6967
 30
0.0
 11
107.906
 21
65.6967
 31
0.0
  0
LINE
  8
0
 62
     0
 10
107.906
 20
65.6967
 30
0.0
 11
107.906
 21
68.7959
 31
0.0
  0
LINE
  8
0
 62
     0
 10
107.906
 20
68.7959
 30
0.0
 11
107.107
 21
68.7959
 31
0.0
  0
LINE
  8
0
 62
     0
 10
107.107
 20
68.7959
 30
0.0
 11
107.107
 21
74.5959
 31
0.0
  0
LINE
  8
0
 62
     0
 10
107.107
 20
74.5959
 30
0.0
 11
107.906
 21
74.5959
 31
0.0
  0
LINE
  8
0
 62
     0
 10
107.906
 20
74.5959
 30
0.0
 11
107.906
 21
77.6965
 31
0.0
  0
LINE
  8
0
 62
     0
 10
107.906
 20
77.6965
 30
0.0
 11
107.107
 21
77.6965
 31
0.0
  0
LINE
  8
0
 62
     0
 10
107.107
 20
77.6965
 30
0.0
 11
107.107
 21
78.6956
 31
0.0
  0
LINE
  8
0
 62
     0
 10
107.107
 20
78.6956
 30
0.0
 11
93.1072
 21
78.6956
 31
0.0
  0
LINE
  8
0
 62
     0
 10
112.157
 20
78.6956
 30
0.0
 11
112.157
 21
77.6965
 31
0.0
  0
LINE
  8
0
 62
     0
 10
112.157
 20
77.6965
 30
0.0
 11
111.356
 21
77.6965
 31
0.0
  0
LINE
  8
0
 62
     0
 10
111.356
 20
77.6965
 30
0.0
 11
111.356
 21
74.5959
 31
0.0
  0
LINE
  8
0
 62
     0
 10
111.356
 20
74.5959
 30
0.0
 11
112.157
 21
74.5959
 31
0.0
  0
LINE
  8
0
 62
     0
 10
112.157
 20
74.5959
 30
0.0
 11
112.157
 21
68.7959
 31
0.0
  0
LINE
  8
0
 62
     0
 10
112.157
 20
68.7959
 30
0.0
 11
111.356
 21
68.7959
 31
0.0
  0
LINE
  8
0
 62
     0
 10
111.356
 20
68.7959
 30
0.0
 11
111.356
 21
65.6967
 31
0.0
  0
LINE
  8
0
 62
     0
 10
111.356
 20
65.6967
 30
0.0
 11
112.157
 21
65.6967
 31
0.0
  0
LINE
  8
0
 62
     0
 10
112.157
 20
65.6967
 30
0.0
 11
112.157
 21
64.6963
 31
0.0
  0
LINE
  8
0
 62
     0
 10
112.157
 20
64.6963
 30
0.0
 11
126.157
 21
64.6963
 31
0.0
  0
LINE
  8
0
 62
     0
 10
126.157
 20
64.6963
 30
0.0
 11
126.157
 21
65.6967
 31
0.0
  0
LINE
  8
0
 62
     0
 10
126.157
 20
65.6967
 30
0.0
 11
126.956
 21
65.6967
 31
0.0
  0
LINE
  8
0
 62
     0
 10
126.956
 20
65.6967
 30
0.0
 11
126.956
 21
68.7959
 31
0.0
  0
LINE
  8
0
 62
     0
 10
126.956
 20
68.7959
 30
0.0
 11
126.157
 21
68.7959
 31
0.0
  0
LINE
  8
0
 62
     0
 10
126.157
 20
68.7959
 30
0.0
 11
126.157
 21
74.5959
 31
0.0
  0
LINE
  8
0
 62
     0
 10
126.157
 20
74.5959
 30
0.0
 11
126.956
 21
74.5959
 31
0.0
  0
LINE
  8
0
 62
     0
 10
126.956
 20
74.5959
 30
0.0
 11
126.956
 21
77.6965
 31
0.0
  0
LINE
  8
0
 62
     0
 10
126.956
 20
77.6965
 30
0.0
 11
126.157
 21
77.6965
 31
0.0
  0
LINE
  8
0
 62
     0
 10
126.157
 20
77.6965
 30
0.0
 11
126.157
 21
78.6956
 31
0.0
  0
LINE
  8
0
 62
     0
 10
126.157
 20
78.6956
 30
0.0
 11
112.157
 21
78.6956
 31
0.0
  0
LINE
  8
0
 62
     0
 10
131.207
 20
78.6956
 30
0.0
 11
131.207
 21
77.6965
 31
0.0
  0
LINE
  8
0
 62
     0
 10
131.207
 20
77.6965
 30
0.0
 11
130.406
 21
77.6965
 31
0.0
  0
LINE
  8
0
 62
     0
 10
130.406
 20
77.6965
 30
0.0
 11
130.406
 21
74.5959
 31
0.0
  0
LINE
  8
0
 62
     0
 10
130.406
 20
74.5959
 30
0.0
 11
131.207
 21
74.5959
 31
0.0
  0
LINE
  8
0
 62
     0
 10
131.207
 20
74.5959
 30
0.0
 11
131.207
 21
68.7959
 31
0.0
  0
LINE
  8
0
 62
     0
 10
131.207
 20
68.7959
 30
0.0
 11
130.406
 21
68.7959
 31
0.0
  0
LINE
  8
0
 62
     0
 10
130.406
 20
68.7959
 30
0.0
 11
130.406
 21
65.6967
 31
0.0
  0
LINE
  8
0
 62
     0
 10
130.406
 20
65.6967
 30
0.0
 11
131.207
 21
65.6967
 31
0.0
  0
LINE
  8
0
 62
     0
 10
131.207
 20
65.6967
 30
0.0
 11
131.207
 21
64.6963
 31
0.0
  0
LINE
  8
0
 62
     0
 10
131.207
 20
64.6963
 30
0.0
 11
145.207
 21
64.6963
 31
0.0
  0
LINE
  8
0
 62
     0
 10
145.207
 20
64.6963
 30
0.0
 11
145.207
 21
65.6967
 31
0.0
  0
LINE
  8
0
 62
     0
 10
145.207
 20
65.6967
 30
0.0
 11
146.006
 21
65.6967
 31
0.0
  0
LINE
  8
0
 62
     0
 10
146.006
 20
65.6967
 30
0.0
 11
146.006
 21
68.7959
 31
0.0
  0
LINE
  8
0
 62
     0
 10
146.006
 20
68.7959
 30
0.0
 11
145.207
 21
68.7959
 31
0.0
  0
LINE
  8
0
 62
     0
 10
145.207
 20
68.7959
 30
0.0
 11
145.207
 21
74.5959
 31
0.0
  0
LINE
  8
0
 62
     0
 10
145.207
 20
74.5959
 30
0.0
 11
146.006
 21
74.5959
 31
0.0
  0
LINE
  8
0
 62
     0
 10
146.006
 20
74.5959
 30
0.0
 11
146.006
 21
77.6965
 31
0.0
  0
LINE
  8
0
 62
     0
 10
146.006
 20
77.6965
 30
0.0
 11
145.207
 21
77.6965
 31
0.0
  0
LINE
  8
0
 62
     0
 10
145.207
 20
77.6965
 30
0.0
 11
145.207
 21
78.6956
 31
0.0
  0
LINE
  8
0
 62
     0
 10
145.207
 20
78.6956
 30
0.0
 11
131.207
 21
78.6956
 31
0.0
  0
LINE
  8
0
 62
     0
 10
150.257
 20
78.6956
 30
0.0
 11
150.257
 21
77.6965
 31
0.0
  0
LINE
  8
0
 62
     0
 10
150.257
 20
77.6965
 30
0.0
 11
149.456
 21
77.6965
 31
0.0
  0
LINE
  8
0
 62
     0
 10
149.456
 20
77.6965
 30
0.0
 11
149.456
 21
74.5959
 31
0.0
  0
LINE
  8
0
 62
     0
 10
149.456
 20
74.5959
 30
0.0
 11
150.257
 21
74.5959
 31
0.0
  0
LINE
  8
0
 62
     0
 10
150.257
 20
74.5959
 30
0.0
 11
150.257
 21
68.7959
 31
0.0
  0
LINE
  8
0
 62
     0
 10
150.257
 20
68.7959
 30
0.0
 11
149.456
 21
68.7959
 31
0.0
  0
LINE
  8
0
 62
     0
 10
149.456
 20
68.7959
 30
0.0
 11
149.456
 21
65.6967
 31
0.0
  0
LINE
  8
0
 62
     0
 10
149.456
 20
65.6967
 30
0.0
 11
150.257
 21
65.6967
 31
0.0
  0
LINE
  8
0
 62
     0
 10
150.257
 20
65.6967
 30
0.0
 11
150.257
 21
64.6963
 31
0.0
  0
LINE
  8
0
 62
     0
 10
150.257
 20
64.6963
 30
0.0
 11
164.257
 21
64.6963
 31
0.0
  0
LINE
  8
0
 62
     0
 10
164.257
 20
64.6963
 30
0.0
 11
164.257
 21
65.6967
 31
0.0
  0
LINE
  8
0
 62
     0
 10
164.257
 20
65.6967
 30
0.0
 11
165.056
 21
65.6967
 31
0.0
  0
LINE
  8
0
 62
     0
 10
165.056
 20
65.6967
 30
0.0
 11
165.056
 21
68.7959
 31
0.0
  0
LINE
  8
0
 62
     0
 10
165.056
 20
68.7959
 30
0.0
 11
164.257
 21
68.7959
 31
0.0
  0
LINE
  8
0
 62
     0
 10
164.257
 20
68.7959
 30
0.0
 11
164.257
 21
74.5959
 31
0.0
  0
LINE
  8
0
 62
     0
 10
164.257
 20
74.5959
 30
0.0
 11
165.056
 21
74.5959
 31
0.0
  0
LINE
  8
0
 62
     0
 10
165.056
 20
74.5959
 30
0.0
 11
165.056
 21
77.6965
 31
0.0
  0
LINE
  8
0
 62
     0
 10
165.056
 20
77.6965
 30
0.0
 11
164.257
 21
77.6965
 31
0.0
  0
LINE
  8
0
 62
     0
 10
164.257
 20
77.6965
 30
0.0
 11
164.257
 21
78.6956
 31
0.0
  0
LINE
  8
0
 62
     0
 10
164.257
 20
78.6956
 30
0.0
 11
150.257
 21
78.6956
 31
0.0
  0
LINE
  8
0
 62
     0
 10
169.307
 20
78.6956
 30
0.0
 11
169.307
 21
77.6965
 31
0.0
  0
LINE
  8
0
 62
     0
 10
169.307
 20
77.6965
 30
0.0
 11
168.506
 21
77.6965
 31
0.0
  0
LINE
  8
0
 62
     0
 10
168.506
 20
77.6965
 30
0.0
 11
168.506
 21
74.5959
 31
0.0
  0
LINE
  8
0
 62
     0
 10
168.506
 20
74.5959
 30
0.0
 11
169.307
 21
74.5959
 31
0.0
  0
LINE
  8
0
 62
     0
 10
169.307
 20
74.5959
 30
0.0
 11
169.307
 21
68.7959
 31
0.0
  0
LINE
  8
0
 62
     0
 10
169.307
 20
68.7959
 30
0.0
 11
168.506
 21
68.7959
 31
0.0
  0
LINE
  8
0
 62
     0
 10
168.506
 20
68.7959
 30
0.0
 11
168.506
 21
65.6967
 31
0.0
  0
LINE
  8
0
 62
     0
 10
168.506
 20
65.6967
 30
0.0
 11
169.307
 21
65.6967
 31
0.0
  0
LINE
  8
0
 62
     0
 10
169.307
 20
65.6967
 30
0.0
 11
169.307
 21
64.6963
 31
0.0
  0
LINE
  8
0
 62
     0
 10
169.307
 20
64.6963
 30
0.0
 11
183.307
 21
64.6963
 31
0.0
  0
LINE
  8
0
 62
     0
 10
183.307
 20
64.6963
 30
0.0
 11
183.307
 21
65.6967
 31
0.0
  0
LINE
  8
0
 62
     0
 10
183.307
 20
65.6967
 30
0.0
 11
184.106
 21
65.6967
 31
0.0
  0
LINE
  8
0
 62
     0
 10
184.106
 20
65.6967
 30
0.0
 11
184.106
 21
68.7959
 31
0.0
  0
LINE
  8
0
 62
     0
 10
184.106
 20
68.7959
 30
0.0
 11
183.307
 21
68.7959
 31
0.0
  0
LINE
  8
0
 62
     0
 10
183.307
 20
68.7959
 30
0.0
 11
183.307
 21
74.5959
 31
0.0
  0
LINE
  8
0
 62
     0
 10
183.307
 20
74.5959
 30
0.0
 11
184.106
 21
74.5959
 31
0.0
  0
LINE
  8
0
 62
     0
 10
184.106
 20
74.5959
 30
0.0
 11
184.106
 21
77.6965
 31
0.0
  0
LINE
  8
0
 62
     0
 10
184.106
 20
77.6965
 30
0.0
 11
183.307
 21
77.6965
 31
0.0
  0
LINE
  8
0
 62
     0
 10
183.307
 20
77.6965
 30
0.0
 11
183.307
 21
78.6956
 31
0.0
  0
LINE
  8
0
 62
     0
 10
183.307
 20
78.6956
 30
0.0
 11
169.307
 21
78.6956
 31
0.0
  0
LINE
  8
0
 62
     0
 10
188.357
 20
78.6956
 30
0.0
 11
188.357
 21
77.6965
 31
0.0
  0
LINE
  8
0
 62
     0
 10
188.357
 20
77.6965
 30
0.0
 11
187.556
 21
77.6965
 31
0.0
  0
LINE
  8
0
 62
     0
 10
187.556
 20
77.6965
 30
0.0
 11
187.556
 21
74.5959
 31
0.0
  0
LINE
  8
0
 62
     0
 10
187.556
 20
74.5959
 30
0.0
 11
188.357
 21
74.5959
 31
0.0
  0
LINE
  8
0
 62
     0
 10
188.357
 20
74.5959
 30
0.0
 11
188.357
 21
68.7959
 31
0.0
  0
LINE
  8
0
 62
     0
 10
188.357
 20
68.7959
 30
0.0
 11
187.556
 21
68.7959
 31
0.0
  0
LINE
  8
0
 62
     0
 10
187.556
 20
68.7959
 30
0.0
 11
187.556
 21
65.6967
 31
0.0
  0
LINE
  8
0
 62
     0
 10
187.556
 20
65.6967
 30
0.0
 11
188.357
 21
65.6967
 31
0.0
  0
LINE
  8
0
 62
     0
 10
188.357
 20
65.6967
 30
0.0
 11
188.357
 21
64.6963
 31
0.0
  0
LINE
  8
0
 62
     0
 10
188.357
 20
64.6963
 30
0.0
 11
202.357
 21
64.6963
 31
0.0
  0
LINE
  8
0
 62
     0
 10
202.357
 20
64.6963
 30
0.0
 11
202.357
 21
65.6967
 31
0.0
  0
LINE
  8
0
 62
     0
 10
202.357
 20
65.6967
 30
0.0
 11
203.156
 21
65.6967
 31
0.0
  0
LINE
  8
0
 62
     0
 10
203.156
 20
65.6967
 30
0.0
 11
203.156
 21
68.7959
 31
0.0
  0
LINE
  8
0
 62
     0
 10
203.156
 20
68.7959
 30
0.0
 11
202.357
 21
68.7959
 31
0.0
  0
LINE
  8
0
 62
     0
 10
202.357
 20
68.7959
 30
0.0
 11
202.357
 21
74.5959
 31
0.0
  0
LINE
  8
0
 62
     0
 10
202.357
 20
74.5959
 30
0.0
 11
203.156
 21
74.5959
 31
0.0
  0
LINE
  8
0
 62
     0
 10
203.156
 20
74.5959
 30
0.0
 11
203.156
 21
77.6965
 31
0.0
  0
LINE
  8
0
 62
     0
 10
203.156
 20
77.6965
 30
0.0
 11
202.357
 21
77.6965
 31
0.0
  0
LINE
  8
0
 62
     0
 10
202.357
 20
77.6965
 30
0.0
 11
202.357
 21
78.6956
 31
0.0
  0
LINE
  8
0
 62
     0
 10
202.357
 20
78.6956
 30
0.0
 11
188.357
 21
78.6956
 31
0.0
  0
LINE
  8
0
 62
     0
 10
207.407
 20
78.6956
 30
0.0
 11
207.407
 21
77.6965
 31
0.0
  0
LINE
  8
0
 62
     0
 10
207.407
 20
77.6965
 30
0.0
 11
206.606
 21
77.6965
 31
0.0
  0
LINE
  8
0
 62
     0
 10
206.606
 20
77.6965
 30
0.0
 11
206.606
 21
74.5959
 31
0.0
  0
LINE
  8
0
 62
     0
 10
206.606
 20
74.5959
 30
0.0
 11
207.407
 21
74.5959
 31
0.0
  0
LINE
  8
0
 62
     0
 10
207.407
 20
74.5959
 30
0.0
 11
207.407
 21
68.7959
 31
0.0
  0
LINE
  8
0
 62
     0
 10
207.407
 20
68.7959
 30
0.0
 11
206.606
 21
68.7959
 31
0.0
  0
LINE
  8
0
 62
     0
 10
206.606
 20
68.7959
 30
0.0
 11
206.606
 21
65.6967
 31
0.0
  0
LINE
  8
0
 62
     0
 10
206.606
 20
65.6967
 30
0.0
 11
207.407
 21
65.6967
 31
0.0
  0
LINE
  8
0
 62
     0
 10
207.407
 20
65.6967
 30
0.0
 11
207.407
 21
64.6963
 31
0.0
  0
LINE
  8
0
 62
     0
 10
207.407
 20
64.6963
 30
0.0
 11
221.407
 21
64.6963
 31
0.0
  0
LINE
  8
0
 62
     0
 10
221.407
 20
64.6963
 30
0.0
 11
221.407
 21
65.6967
 31
0.0
  0
LINE
  8
0
 62
     0
 10
221.407
 20
65.6967
 30
0.0
 11
222.206
 21
65.6967
 31
0.0
  0
LINE
  8
0
 62
     0
 10
222.206
 20
65.6967
 30
0.0
 11
222.206
 21
68.7959
 31
0.0
  0
LINE
  8
0
 62
     0
 10
222.206
 20
68.7959
 30
0.0
 11
221.407
 21
68.7959
 31
0.0
  0
LINE
  8
0
 62
     0
 10
221.407
 20
68.7959
 30
0.0
 11
221.407
 21
74.5959
 31
0.0
  0
LINE
  8
0
 62
     0
 10
221.407
 20
74.5959
 30
0.0
 11
222.206
 21
74.5959
 31
0.0
  0
LINE
  8
0
 62
     0
 10
222.206
 20
74.5959
 30
0.0
 11
222.206
 21
77.6965
 31
0.0
  0
LINE
  8
0
 62
     0
 10
222.206
 20
77.6965
 30
0.0
 11
221.407
 21
77.6965
 31
0.0
  0
LINE
  8
0
 62
     0
 10
221.407
 20
77.6965
 30
0.0
 11
221.407
 21
78.6956
 31
0.0
  0
LINE
  8
0
 62
     0
 10
221.407
 20
78.6956
 30
0.0
 11
207.407
 21
78.6956
 31
0.0
  0
LINE
  8
0
 62
     0
 10
226.457
 20
78.6956
 30
0.0
 11
226.457
 21
77.6965
 31
0.0
  0
LINE
  8
0
 62
     0
 10
226.457
 20
77.6965
 30
0.0
 11
225.656
 21
77.6965
 31
0.0
  0
LINE
  8
0
 62
     0
 10
225.656
 20
77.6965
 30
0.0
 11
225.656
 21
74.5959
 31
0.0
  0
LINE
  8
0
 62
     0
 10
225.656
 20
74.5959
 30
0.0
 11
226.457
 21
74.5959
 31
0.0
  0
LINE
  8
0
 62
     0
 10
226.457
 20
74.5959
 30
0.0
 11
226.457
 21
68.7959
 31
0.0
  0
LINE
  8
0
 62
     0
 10
226.457
 20
68.7959
 30
0.0
 11
225.656
 21
68.7959
 31
0.0
  0
LINE
  8
0
 62
     0
 10
225.656
 20
68.7959
 30
0.0
 11
225.656
 21
65.6967
 31
0.0
  0
LINE
  8
0
 62
     0
 10
225.656
 20
65.6967
 30
0.0
 11
226.457
 21
65.6967
 31
0.0
  0
LINE
  8
0
 62
     0
 10
226.457
 20
65.6967
 30
0.0
 11
226.457
 21
64.6963
 31
0.0
  0
LINE
  8
0
 62
     0
 10
226.457
 20
64.6963
 30
0.0
 11
240.457
 21
64.6963
 31
0.0
  0
LINE
  8
0
 62
     0
 10
240.457
 20
64.6963
 30
0.0
 11
240.457
 21
65.6967
 31
0.0
  0
LINE
  8
0
 62
     0
 10
240.457
 20
65.6967
 30
0.0
 11
241.256
 21
65.6967
 31
0.0
  0
LINE
  8
0
 62
     0
 10
241.256
 20
65.6967
 30
0.0
 11
241.256
 21
68.7959
 31
0.0
  0
LINE
  8
0
 62
     0
 10
241.256
 20
68.7959
 30
0.0
 11
240.457
 21
68.7959
 31
0.0
  0
LINE
  8
0
 62
     0
 10
240.457
 20
68.7959
 30
0.0
 11
240.457
 21
74.5959
 31
0.0
  0
LINE
  8
0
 62
     0
 10
240.457
 20
74.5959
 30
0.0
 11
241.256
 21
74.5959
 31
0.0
  0
LINE
  8
0
 62
     0
 10
241.256
 20
74.5959
 30
0.0
 11
241.256
 21
77.6965
 31
0.0
  0
LINE
  8
0
 62
     0
 10
241.256
 20
77.6965
 30
0.0
 11
240.457
 21
77.6965
 31
0.0
  0
LINE
  8
0
 62
     0
 10
240.457
 20
77.6965
 30
0.0
 11
240.457
 21
78.6956
 31
0.0
  0
LINE
  8
0
 62
     0
 10
240.457
 20
78.6956
 30
0.0
 11
226.457
 21
78.6956
 31
0.0
  0
LINE
  8
0
 62
     0
 10
245.507
 20
78.6956
 30
0.0
 11
245.507
 21
77.6965
 31
0.0
  0
LINE
  8
0
 62
     0
 10
245.507
 20
77.6965
 30
0.0
 11
244.706
 21
77.6965
 31
0.0
  0
LINE
  8
0
 62
     0
 10
244.706
 20
77.6965
 30
0.0
 11
244.706
 21
74.5959
 31
0.0
  0
LINE
  8
0
 62
     0
 10
244.706
 20
74.5959
 30
0.0
 11
245.507
 21
74.5959
 31
0.0
  0
LINE
  8
0
 62
     0
 10
245.507
 20
74.5959
 30
0.0
 11
245.507
 21
68.7959
 31
0.0
  0
LINE
  8
0
 62
     0
 10
245.507
 20
68.7959
 30
0.0
 11
244.706
 21
68.7959
 31
0.0
  0
LINE
  8
0
 62
     0
 10
244.706
 20
68.7959
 30
0.0
 11
244.706
 21
65.6967
 31
0.0
  0
LINE
  8
0
 62
     0
 10
244.706
 20
65.6967
 30
0.0
 11
245.507
 21
65.6967
 31
0.0
  0
LINE
  8
0
 62
     0
 10
245.507
 20
65.6967
 30
0.0
 11
245.507
 21
64.6963
 31
0.0
  0
LINE
  8
0
 62
     0
 10
245.507
 20
64.6963
 30
0.0
 11
259.507
 21
64.6963
 31
0.0
  0
LINE
  8
0
 62
     0
 10
259.507
 20
64.6963
 30
0.0
 11
259.507
 21
65.6967
 31
0.0
  0
LINE
  8
0
 62
     0
 10
259.507
 20
65.6967
 30
0.0
 11
260.306
 21
65.6967
 31
0.0
  0
LINE
  8
0
 62
     0
 10
260.306
 20
65.6967
 30
0.0
 11
260.306
 21
68.7959
 31
0.0
  0
LINE
  8
0
 62
     0
 10
260.306
 20
68.7959
 30
0.0
 11
259.507
 21
68.7959
 31
0.0
  0
LINE
  8
0
 62
     0
 10
259.507
 20
68.7959
 30
0.0
 11
259.507
 21
74.5959
 31
0.0
  0
LINE
  8
0
 62
     0
 10
259.507
 20
74.5959
 30
0.0
 11
260.306
 21
74.5959
 31
0.0
  0
LINE
  8
0
 62
     0
 10
260.306
 20
74.5959
 30
0.0
 11
260.306
 21
77.6965
 31
0.0
  0
LINE
  8
0
 62
     0
 10
260.306
 20
77.6965
 30
0.0
 11
259.507
 21
77.6965
 31
0.0
  0
LINE
  8
0
 62
     0
 10
259.507
 20
77.6965
 30
0.0
 11
259.507
 21
78.6956
 31
0.0
  0
LINE
  8
0
 62
     0
 10
259.507
 20
78.6956
 30
0.0
 11
245.507
 21
78.6956
 31
0.0
  0
LINE
  8
0
 62
     0
 10
269.32
 20
78.6956
 30
0.0
 11
269.32
 21
77.6965
 31
0.0
  0
LINE
  8
0
 62
     0
 10
269.32
 20
77.6965
 30
0.0
 11
268.519
 21
77.6965
 31
0.0
  0
LINE
  8
0
 62
     0
 10
268.519
 20
77.6965
 30
0.0
 11
268.519
 21
74.5959
 31
0.0
  0
LINE
  8
0
 62
     0
 10
268.519
 20
74.5959
 30
0.0
 11
269.32
 21
74.5959
 31
0.0
  0
LINE
  8
0
 62
     0
 10
269.32
 20
74.5959
 30
0.0
 11
269.32
 21
68.7959
 31
0.0
  0
LINE
  8
0
 62
     0
 10
269.32
 20
68.7959
 30
0.0
 11
268.519
 21
68.7959
 31
0.0
  0
LINE
  8
0
 62
     0
 10
268.519
 20
68.7959
 30
0.0
 11
268.519
 21
65.6967
 31
0.0
  0
LINE
  8
0
 62
     0
 10
268.519
 20
65.6967
 30
0.0
 11
269.32
 21
65.6967
 31
0.0
  0
LINE
  8
0
 62
     0
 10
269.32
 20
65.6967
 30
0.0
 11
269.32
 21
64.6963
 31
0.0
  0
LINE
  8
0
 62
     0
 10
269.32
 20
64.6963
 30
0.0
 11
283.319
 21
64.6963
 31
0.0
  0
LINE
  8
0
 62
     0
 10
283.319
 20
64.6963
 30
0.0
 11
283.319
 21
65.6967
 31
0.0
  0
LINE
  8
0
 62
     0
 10
283.319
 20
65.6967
 30
0.0
 11
284.12
 21
65.6967
 31
0.0
  0
LINE
  8
0
 62
     0
 10
284.12
 20
65.6967
 30
0.0
 11
284.12
 21
68.7959
 31
0.0
  0
LINE
  8
0
 62
     0
 10
284.12
 20
68.7959
 30
0.0
 11
283.319
 21
68.7959
 31
0.0
  0
LINE
  8
0
 62
     0
 10
283.319
 20
68.7959
 30
0.0
 11
283.319
 21
74.5959
 31
0.0
  0
LINE
  8
0
 62
     0
 10
283.319
 20
74.5959
 30
0.0
 11
284.12
 21
74.5959
 31
0.0
  0
LINE
  8
0
 62
     0
 10
284.12
 20
74.5959
 30
0.0
 11
284.12
 21
77.6965
 31
0.0
  0
LINE
  8
0
 62
     0
 10
284.12
 20
77.6965
 30
0.0
 11
283.319
 21
77.6965
 31
0.0
  0
LINE
  8
0
 62
     0
 10
283.319
 20
77.6965
 30
0.0
 11
283.319
 21
78.6956
 31
0.0
  0
LINE
  8
0
 62
     0
 10
283.319
 20
78.6956
 30
0.0
 11
269.32
 21
78.6956
 31
0.0
  0
LINE
  8
0
 62
     0
 10
264.557
 20
97.7456
 30
0.0
 11
264.557
 21
96.7465
 31
0.0
  0
LINE
  8
0
 62
     0
 10
264.557
 20
96.7465
 30
0.0
 11
263.756
 21
96.7465
 31
0.0
  0
LINE
  8
0
 62
     0
 10
263.756
 20
96.7465
 30
0.0
 11
263.756
 21
93.6459
 31
0.0
  0
LINE
  8
0
 62
     0
 10
263.756
 20
93.6459
 30
0.0
 11
264.557
 21
93.6459
 31
0.0
  0
LINE
  8
0
 62
     0
 10
264.557
 20
93.6459
 30
0.0
 11
264.557
 21
93.0465
 31
0.0
  0
LINE
  8
0
 62
     0
 10
264.557
 20
93.0465
 30
0.0
 11
263.032
 21
93.0465
 31
0.0
  0
LINE
  8
0
 62
     0
 10
263.032
 20
93.0465
 30
0.0
 11
263.032
 21
96.2766
 31
0.0
  0
LINE
  8
0
 62
     0
 10
263.032
 20
96.2766
 30
0.0
 11
261.306
 21
96.2766
 31
0.0
  0
LINE
  8
0
 62
     0
 10
261.306
 20
96.2766
 30
0.0
 11
261.306
 21
97.1959
 31
0.0
  0
LINE
  8
0
 62
     0
 10
261.306
 20
97.1959
 30
0.0
 11
258.006
 21
97.1959
 31
0.0
  0
LINE
  8
0
 62
     0
 10
258.006
 20
97.1959
 30
0.0
 11
258.006
 21
96.2766
 31
0.0
  0
LINE
  8
0
 62
     0
 10
258.006
 20
96.2766
 30
0.0
 11
256.282
 21
96.2766
 31
0.0
  0
LINE
  8
0
 62
     0
 10
256.282
 20
96.2766
 30
0.0
 11
256.282
 21
93.0465
 31
0.0
  0
LINE
  8
0
 62
     0
 10
256.282
 20
93.0465
 30
0.0
 11
255.457
 21
93.0465
 31
0.0
  0
LINE
  8
0
 62
     0
 10
255.457
 20
93.0465
 30
0.0
 11
255.457
 21
90.2462
 31
0.0
  0
LINE
  8
0
 62
     0
 10
255.457
 20
90.2462
 30
0.0
 11
256.282
 21
90.2462
 31
0.0
  0
LINE
  8
0
 62
     0
 10
256.282
 20
90.2462
 30
0.0
 11
256.282
 21
83.9763
 31
0.0
  0
LINE
  8
0
 62
     0
 10
256.282
 20
83.9763
 30
0.0
 11
258.006
 21
83.9763
 31
0.0
  0
LINE
  8
0
 62
     0
 10
258.006
 20
83.9763
 30
0.0
 11
258.006
 21
82.9966
 31
0.0
  0
LINE
  8
0
 62
     0
 10
258.006
 20
82.9966
 30
0.0
 11
261.306
 21
82.9966
 31
0.0
  0
LINE
  8
0
 62
     0
 10
261.306
 20
82.9966
 30
0.0
 11
261.306
 21
83.9763
 31
0.0
  0
LINE
  8
0
 62
     0
 10
261.306
 20
83.9763
 30
0.0
 11
263.032
 21
83.9763
 31
0.0
  0
LINE
  8
0
 62
     0
 10
263.032
 20
83.9763
 30
0.0
 11
263.032
 21
88.4467
 31
0.0
  0
LINE
  8
0
 62
     0
 10
263.032
 20
88.4467
 30
0.0
 11
264.557
 21
88.4467
 31
0.0
  0
LINE
  8
0
 62
     0
 10
264.557
 20
88.4467
 30
0.0
 11
264.557
 21
87.8459
 31
0.0
  0
LINE
  8
0
 62
     0
 10
264.557
 20
87.8459
 30
0.0
 11
263.756
 21
87.8459
 31
0.0
  0
LINE
  8
0
 62
     0
 10
263.756
 20
87.8459
 30
0.0
 11
263.756
 21
84.7467
 31
0.0
  0
LINE
  8
0
 62
     0
 10
263.756
 20
84.7467
 30
0.0
 11
264.557
 21
84.7467
 31
0.0
  0
LINE
  8
0
 62
     0
 10
264.557
 20
84.7467
 30
0.0
 11
264.557
 21
83.7463
 31
0.0
  0
LINE
  8
0
 62
     0
 10
264.557
 20
83.7463
 30
0.0
 11
278.557
 21
83.7463
 31
0.0
  0
LINE
  8
0
 62
     0
 10
278.557
 20
83.7463
 30
0.0
 11
278.557
 21
84.7467
 31
0.0
  0
LINE
  8
0
 62
     0
 10
278.557
 20
84.7467
 30
0.0
 11
279.356
 21
84.7467
 31
0.0
  0
LINE
  8
0
 62
     0
 10
279.356
 20
84.7467
 30
0.0
 11
279.356
 21
87.8459
 31
0.0
  0
LINE
  8
0
 62
     0
 10
279.356
 20
87.8459
 30
0.0
 11
278.557
 21
87.8459
 31
0.0
  0
LINE
  8
0
 62
     0
 10
278.557
 20
87.8459
 30
0.0
 11
278.557
 21
88.4467
 31
0.0
  0
LINE
  8
0
 62
     0
 10
278.557
 20
88.4467
 30
0.0
 11
280.082
 21
88.4467
 31
0.0
  0
LINE
  8
0
 62
     0
 10
280.082
 20
88.4467
 30
0.0
 11
280.082
 21
83.9763
 31
0.0
  0
LINE
  8
0
 62
     0
 10
280.082
 20
83.9763
 30
0.0
 11
281.806
 21
83.9763
 31
0.0
  0
LINE
  8
0
 62
     0
 10
281.806
 20
83.9763
 30
0.0
 11
281.806
 21
82.9966
 31
0.0
  0
LINE
  8
0
 62
     0
 10
281.806
 20
82.9966
 30
0.0
 11
285.107
 21
82.9966
 31
0.0
  0
LINE
  8
0
 62
     0
 10
285.107
 20
82.9966
 30
0.0
 11
285.107
 21
83.9763
 31
0.0
  0
LINE
  8
0
 62
     0
 10
285.107
 20
83.9763
 30
0.0
 11
286.832
 21
83.9763
 31
0.0
  0
LINE
  8
0
 62
     0
 10
286.832
 20
83.9763
 30
0.0
 11
286.832
 21
90.2462
 31
0.0
  0
LINE
  8
0
 62
     0
 10
286.832
 20
90.2462
 30
0.0
 11
287.656
 21
90.2462
 31
0.0
  0
LINE
  8
0
 62
     0
 10
287.656
 20
90.2462
 30
0.0
 11
287.656
 21
93.0465
 31
0.0
  0
LINE
  8
0
 62
     0
 10
287.656
 20
93.0465
 30
0.0
 11
286.832
 21
93.0465
 31
0.0
  0
LINE
  8
0
 62
     0
 10
286.832
 20
93.0465
 30
0.0
 11
286.832
 21
96.2766
 31
0.0
  0
LINE
  8
0
 62
     0
 10
286.832
 20
96.2766
 30
0.0
 11
285.107
 21
96.2766
 31
0.0
  0
LINE
  8
0
 62
     0
 10
285.107
 20
96.2766
 30
0.0
 11
285.107
 21
97.1959
 31
0.0
  0
LINE
  8
0
 62
     0
 10
285.107
 20
97.1959
 30
0.0
 11
281.806
 21
97.1959
 31
0.0
  0
LINE
  8
0
 62
     0
 10
281.806
 20
97.1959
 30
0.0
 11
281.806
 21
96.2766
 31
0.0
  0
LINE
  8
0
 62
     0
 10
281.806
 20
96.2766
 30
0.0
 11
280.082
 21
96.2766
 31
0.0
  0
LINE
  8
0
 62
     0
 10
280.082
 20
96.2766
 30
0.0
 11
280.082
 21
93.0465
 31
0.0
  0
LINE
  8
0
 62
     0
 10
280.082
 20
93.0465
 30
0.0
 11
278.557
 21
93.0465
 31
0.0
  0
LINE
  8
0
 62
     0
 10
278.557
 20
93.0465
 30
0.0
 11
278.557
 21
93.6459
 31
0.0
  0
LINE
  8
0
 62
     0
 10
278.557
 20
93.6459
 30
0.0
 11
279.356
 21
93.6459
 31
0.0
  0
LINE
  8
0
 62
     0
 10
279.356
 20
93.6459
 30
0.0
 11
279.356
 21
96.7465
 31
0.0
  0
LINE
  8
0
 62
     0
 10
279.356
 20
96.7465
 30
0.0
 11
278.557
 21
96.7465
 31
0.0
  0
LINE
  8
0
 62
     0
 10
278.557
 20
96.7465
 30
0.0
 11
278.557
 21
97.7456
 31
0.0
  0
LINE
  8
0
 62
     0
 10
278.557
 20
97.7456
 30
0.0
 11
264.557
 21
97.7456
 31
0.0
  0
LINE
  8
0
 62
     0
 10
7.38216
 20
97.7456
 30
0.0
 11
7.38216
 21
96.7465
 31
0.0
  0
LINE
  8
0
 62
     0
 10
7.38216
 20
96.7465
 30
0.0
 11
6.58153
 21
96.7465
 31
0.0
  0
LINE
  8
0
 62
     0
 10
6.58153
 20
96.7465
 30
0.0
 11
6.58153
 21
93.6459
 31
0.0
  0
LINE
  8
0
 62
     0
 10
6.58153
 20
93.6459
 30
0.0
 11
7.38216
 21
93.6459
 31
0.0
  0
LINE
  8
0
 62
     0
 10
7.38216
 20
93.6459
 30
0.0
 11
7.38216
 21
87.8459
 31
0.0
  0
LINE
  8
0
 62
     0
 10
7.38216
 20
87.8459
 30
0.0
 11
6.58153
 21
87.8459
 31
0.0
  0
LINE
  8
0
 62
     0
 10
6.58153
 20
87.8459
 30
0.0
 11
6.58153
 21
84.7467
 31
0.0
  0
LINE
  8
0
 62
     0
 10
6.58153
 20
84.7467
 30
0.0
 11
7.38216
 21
84.7467
 31
0.0
  0
LINE
  8
0
 62
     0
 10
7.38216
 20
84.7467
 30
0.0
 11
7.38216
 21
83.7463
 31
0.0
  0
LINE
  8
0
 62
     0
 10
7.38216
 20
83.7463
 30
0.0
 11
21.3817
 21
83.7463
 31
0.0
  0
LINE
  8
0
 62
     0
 10
21.3817
 20
83.7463
 30
0.0
 11
21.3817
 21
84.7467
 31
0.0
  0
LINE
  8
0
 62
     0
 10
21.3817
 20
84.7467
 30
0.0
 11
22.1809
 21
84.7467
 31
0.0
  0
LINE
  8
0
 62
     0
 10
22.1809
 20
84.7467
 30
0.0
 11
22.1809
 21
87.8459
 31
0.0
  0
LINE
  8
0
 62
     0
 10
22.1809
 20
87.8459
 30
0.0
 11
21.3817
 21
87.8459
 31
0.0
  0
LINE
  8
0
 62
     0
 10
21.3817
 20
87.8459
 30
0.0
 11
21.3817
 21
93.6459
 31
0.0
  0
LINE
  8
0
 62
     0
 10
21.3817
 20
93.6459
 30
0.0
 11
22.1809
 21
93.6459
 31
0.0
  0
LINE
  8
0
 62
     0
 10
22.1809
 20
93.6459
 30
0.0
 11
22.1809
 21
96.7465
 31
0.0
  0
LINE
  8
0
 62
     0
 10
22.1809
 20
96.7465
 30
0.0
 11
21.3817
 21
96.7465
 31
0.0
  0
LINE
  8
0
 62
     0
 10
21.3817
 20
96.7465
 30
0.0
 11
21.3817
 21
97.7456
 31
0.0
  0
LINE
  8
0
 62
     0
 10
21.3817
 20
97.7456
 30
0.0
 11
7.38216
 21
97.7456
 31
0.0
  0
LINE
  8
0
 62
     0
 10
26.4322
 20
97.7456
 30
0.0
 11
26.4322
 21
96.7465
 31
0.0
  0
LINE
  8
0
 62
     0
 10
26.4322
 20
96.7465
 30
0.0
 11
25.6315
 21
96.7465
 31
0.0
  0
LINE
  8
0
 62
     0
 10
25.6315
 20
96.7465
 30
0.0
 11
25.6315
 21
93.6459
 31
0.0
  0
LINE
  8
0
 62
     0
 10
25.6315
 20
93.6459
 30
0.0
 11
26.4322
 21
93.6459
 31
0.0
  0
LINE
  8
0
 62
     0
 10
26.4322
 20
93.6459
 30
0.0
 11
26.4322
 21
87.8459
 31
0.0
  0
LINE
  8
0
 62
     0
 10
26.4322
 20
87.8459
 30
0.0
 11
25.6315
 21
87.8459
 31
0.0
  0
LINE
  8
0
 62
     0
 10
25.6315
 20
87.8459
 30
0.0
 11
25.6315
 21
84.7467
 31
0.0
  0
LINE
  8
0
 62
     0
 10
25.6315
 20
84.7467
 30
0.0
 11
26.4322
 21
84.7467
 31
0.0
  0
LINE
  8
0
 62
     0
 10
26.4322
 20
84.7467
 30
0.0
 11
26.4322
 21
83.7463
 31
0.0
  0
LINE
  8
0
 62
     0
 10
26.4322
 20
83.7463
 30
0.0
 11
40.4315
 21
83.7463
 31
0.0
  0
LINE
  8
0
 62
     0
 10
40.4315
 20
83.7463
 30
0.0
 11
40.4315
 21
84.7467
 31
0.0
  0
LINE
  8
0
 62
     0
 10
40.4315
 20
84.7467
 30
0.0
 11
41.2309
 21
84.7467
 31
0.0
  0
LINE
  8
0
 62
     0
 10
41.2309
 20
84.7467
 30
0.0
 11
41.2309
 21
87.8459
 31
0.0
  0
LINE
  8
0
 62
     0
 10
41.2309
 20
87.8459
 30
0.0
 11
40.4315
 21
87.8459
 31
0.0
  0
LINE
  8
0
 62
     0
 10
40.4315
 20
87.8459
 30
0.0
 11
40.4315
 21
93.6459
 31
0.0
  0
LINE
  8
0
 62
     0
 10
40.4315
 20
93.6459
 30
0.0
 11
41.2309
 21
93.6459
 31
0.0
  0
LINE
  8
0
 62
     0
 10
41.2309
 20
93.6459
 30
0.0
 11
41.2309
 21
96.7465
 31
0.0
  0
LINE
  8
0
 62
     0
 10
41.2309
 20
96.7465
 30
0.0
 11
40.4315
 21
96.7465
 31
0.0
  0
LINE
  8
0
 62
     0
 10
40.4315
 20
96.7465
 30
0.0
 11
40.4315
 21
97.7456
 31
0.0
  0
LINE
  8
0
 62
     0
 10
40.4315
 20
97.7456
 30
0.0
 11
26.4322
 21
97.7456
 31
0.0
  0
LINE
  8
0
 62
     0
 10
45.4822
 20
97.7456
 30
0.0
 11
45.4822
 21
96.7465
 31
0.0
  0
LINE
  8
0
 62
     0
 10
45.4822
 20
96.7465
 30
0.0
 11
44.6814
 21
96.7465
 31
0.0
  0
LINE
  8
0
 62
     0
 10
44.6814
 20
96.7465
 30
0.0
 11
44.6814
 21
93.6459
 31
0.0
  0
LINE
  8
0
 62
     0
 10
44.6814
 20
93.6459
 30
0.0
 11
45.4822
 21
93.6459
 31
0.0
  0
LINE
  8
0
 62
     0
 10
45.4822
 20
93.6459
 30
0.0
 11
45.4822
 21
87.8459
 31
0.0
  0
LINE
  8
0
 62
     0
 10
45.4822
 20
87.8459
 30
0.0
 11
44.6814
 21
87.8459
 31
0.0
  0
LINE
  8
0
 62
     0
 10
44.6814
 20
87.8459
 30
0.0
 11
44.6814
 21
84.7467
 31
0.0
  0
LINE
  8
0
 62
     0
 10
44.6814
 20
84.7467
 30
0.0
 11
45.4822
 21
84.7467
 31
0.0
  0
LINE
  8
0
 62
     0
 10
45.4822
 20
84.7467
 30
0.0
 11
45.4822
 21
83.7463
 31
0.0
  0
LINE
  8
0
 62
     0
 10
45.4822
 20
83.7463
 30
0.0
 11
59.4815
 21
83.7463
 31
0.0
  0
LINE
  8
0
 62
     0
 10
59.4815
 20
83.7463
 30
0.0
 11
59.4815
 21
84.7467
 31
0.0
  0
LINE
  8
0
 62
     0
 10
59.4815
 20
84.7467
 30
0.0
 11
60.2809
 21
84.7467
 31
0.0
  0
LINE
  8
0
 62
     0
 10
60.2809
 20
84.7467
 30
0.0
 11
60.2809
 21
87.8459
 31
0.0
  0
LINE
  8
0
 62
     0
 10
60.2809
 20
87.8459
 30
0.0
 11
59.4815
 21
87.8459
 31
0.0
  0
LINE
  8
0
 62
     0
 10
59.4815
 20
87.8459
 30
0.0
 11
59.4815
 21
93.6459
 31
0.0
  0
LINE
  8
0
 62
     0
 10
59.4815
 20
93.6459
 30
0.0
 11
60.2809
 21
93.6459
 31
0.0
  0
LINE
  8
0
 62
     0
 10
60.2809
 20
93.6459
 30
0.0
 11
60.2809
 21
96.7465
 31
0.0
  0
LINE
  8
0
 62
     0
 10
60.2809
 20
96.7465
 30
0.0
 11
59.4815
 21
96.7465
 31
0.0
  0
LINE
  8
0
 62
     0
 10
59.4815
 20
96.7465
 30
0.0
 11
59.4815
 21
97.7456
 31
0.0
  0
LINE
  8
0
 62
     0
 10
59.4815
 20
97.7456
 30
0.0
 11
45.4822
 21
97.7456
 31
0.0
  0
LINE
  8
0
 62
     0
 10
64.5322
 20
97.7456
 30
0.0
 11
64.5322
 21
96.7465
 31
0.0
  0
LINE
  8
0
 62
     0
 10
64.5322
 20
96.7465
 30
0.0
 11
63.7314
 21
96.7465
 31
0.0
  0
LINE
  8
0
 62
     0
 10
63.7314
 20
96.7465
 30
0.0
 11
63.7314
 21
93.6459
 31
0.0
  0
LINE
  8
0
 62
     0
 10
63.7314
 20
93.6459
 30
0.0
 11
64.5322
 21
93.6459
 31
0.0
  0
LINE
  8
0
 62
     0
 10
64.5322
 20
93.6459
 30
0.0
 11
64.5322
 21
87.8459
 31
0.0
  0
LINE
  8
0
 62
     0
 10
64.5322
 20
87.8459
 30
0.0
 11
63.7314
 21
87.8459
 31
0.0
  0
LINE
  8
0
 62
     0
 10
63.7314
 20
87.8459
 30
0.0
 11
63.7314
 21
84.7467
 31
0.0
  0
LINE
  8
0
 62
     0
 10
63.7314
 20
84.7467
 30
0.0
 11
64.5322
 21
84.7467
 31
0.0
  0
LINE
  8
0
 62
     0
 10
64.5322
 20
84.7467
 30
0.0
 11
64.5322
 21
83.7463
 31
0.0
  0
LINE
  8
0
 62
     0
 10
64.5322
 20
83.7463
 30
0.0
 11
78.5315
 21
83.7463
 31
0.0
  0
LINE
  8
0
 62
     0
 10
78.5315
 20
83.7463
 30
0.0
 11
78.5315
 21
84.7467
 31
0.0
  0
LINE
  8
0
 62
     0
 10
78.5315
 20
84.7467
 30
0.0
 11
79.3309
 21
84.7467
 31
0.0
  0
LINE
  8
0
 62
     0
 10
79.3309
 20
84.7467
 30
0.0
 11
79.3309
 21
87.8459
 31
0.0
  0
LINE
  8
0
 62
     0
 10
79.3309
 20
87.8459
 30
0.0
 11
78.5315
 21
87.8459
 31
0.0
  0
LINE
  8
0
 62
     0
 10
78.5315
 20
87.8459
 30
0.0
 11
78.5315
 21
93.6459
 31
0.0
  0
LINE
  8
0
 62
     0
 10
78.5315
 20
93.6459
 30
0.0
 11
79.3309
 21
93.6459
 31
0.0
  0
LINE
  8
0
 62
     0
 10
79.3309
 20
93.6459
 30
0.0
 11
79.3309
 21
96.7465
 31
0.0
  0
LINE
  8
0
 62
     0
 10
79.3309
 20
96.7465
 30
0.0
 11
78.5315
 21
96.7465
 31
0.0
  0
LINE
  8
0
 62
     0
 10
78.5315
 20
96.7465
 30
0.0
 11
78.5315
 21
97.7456
 31
0.0
  0
LINE
  8
0
 62
     0
 10
78.5315
 20
97.7456
 30
0.0
 11
64.5322
 21
97.7456
 31
0.0
  0
LINE
  8
0
 62
     0
 10
83.5822
 20
97.7456
 30
0.0
 11
83.5822
 21
96.7465
 31
0.0
  0
LINE
  8
0
 62
     0
 10
83.5822
 20
96.7465
 30
0.0
 11
82.7814
 21
96.7465
 31
0.0
  0
LINE
  8
0
 62
     0
 10
82.7814
 20
96.7465
 30
0.0
 11
82.7814
 21
93.6459
 31
0.0
  0
LINE
  8
0
 62
     0
 10
82.7814
 20
93.6459
 30
0.0
 11
83.5822
 21
93.6459
 31
0.0
  0
LINE
  8
0
 62
     0
 10
83.5822
 20
93.6459
 30
0.0
 11
83.5822
 21
87.8459
 31
0.0
  0
LINE
  8
0
 62
     0
 10
83.5822
 20
87.8459
 30
0.0
 11
82.7814
 21
87.8459
 31
0.0
  0
LINE
  8
0
 62
     0
 10
82.7814
 20
87.8459
 30
0.0
 11
82.7814
 21
84.7467
 31
0.0
  0
LINE
  8
0
 62
     0
 10
82.7814
 20
84.7467
 30
0.0
 11
83.5822
 21
84.7467
 31
0.0
  0
LINE
  8
0
 62
     0
 10
83.5822
 20
84.7467
 30
0.0
 11
83.5822
 21
83.7463
 31
0.0
  0
LINE
  8
0
 62
     0
 10
83.5822
 20
83.7463
 30
0.0
 11
97.5815
 21
83.7463
 31
0.0
  0
LINE
  8
0
 62
     0
 10
97.5815
 20
83.7463
 30
0.0
 11
97.5815
 21
84.7467
 31
0.0
  0
LINE
  8
0
 62
     0
 10
97.5815
 20
84.7467
 30
0.0
 11
98.3809
 21
84.7467
 31
0.0
  0
LINE
  8
0
 62
     0
 10
98.3809
 20
84.7467
 30
0.0
 11
98.3809
 21
87.8459
 31
0.0
  0
LINE
  8
0
 62
     0
 10
98.3809
 20
87.8459
 30
0.0
 11
97.5815
 21
87.8459
 31
0.0
  0
LINE
  8
0
 62
     0
 10
97.5815
 20
87.8459
 30
0.0
 11
97.5815
 21
93.6459
 31
0.0
  0
LINE
  8
0
 62
     0
 10
97.5815
 20
93.6459
 30
0.0
 11
98.3809
 21
93.6459
 31
0.0
  0
LINE
  8
0
 62
     0
 10
98.3809
 20
93.6459
 30
0.0
 11
98.3809
 21
96.7465
 31
0.0
  0
LINE
  8
0
 62
     0
 10
98.3809
 20
96.7465
 30
0.0
 11
97.5815
 21
96.7465
 31
0.0
  0
LINE
  8
0
 62
     0
 10
97.5815
 20
96.7465
 30
0.0
 11
97.5815
 21
97.7456
 31
0.0
  0
LINE
  8
0
 62
     0
 10
97.5815
 20
97.7456
 30
0.0
 11
83.5822
 21
97.7456
 31
0.0
  0
LINE
  8
0
 62
     0
 10
102.632
 20
97.7456
 30
0.0
 11
102.632
 21
96.7465
 31
0.0
  0
LINE
  8
0
 62
     0
 10
102.632
 20
96.7465
 30
0.0
 11
101.831
 21
96.7465
 31
0.0
  0
LINE
  8
0
 62
     0
 10
101.831
 20
96.7465
 30
0.0
 11
101.831
 21
93.6459
 31
0.0
  0
LINE
  8
0
 62
     0
 10
101.831
 20
93.6459
 30
0.0
 11
102.632
 21
93.6459
 31
0.0
  0
LINE
  8
0
 62
     0
 10
102.632
 20
93.6459
 30
0.0
 11
102.632
 21
87.8459
 31
0.0
  0
LINE
  8
0
 62
     0
 10
102.632
 20
87.8459
 30
0.0
 11
101.831
 21
87.8459
 31
0.0
  0
LINE
  8
0
 62
     0
 10
101.831
 20
87.8459
 30
0.0
 11
101.831
 21
84.7467
 31
0.0
  0
LINE
  8
0
 62
     0
 10
101.831
 20
84.7467
 30
0.0
 11
102.632
 21
84.7467
 31
0.0
  0
LINE
  8
0
 62
     0
 10
102.632
 20
84.7467
 30
0.0
 11
102.632
 21
83.7463
 31
0.0
  0
LINE
  8
0
 62
     0
 10
102.632
 20
83.7463
 30
0.0
 11
116.632
 21
83.7463
 31
0.0
  0
LINE
  8
0
 62
     0
 10
116.632
 20
83.7463
 30
0.0
 11
116.632
 21
84.7467
 31
0.0
  0
LINE
  8
0
 62
     0
 10
116.632
 20
84.7467
 30
0.0
 11
117.431
 21
84.7467
 31
0.0
  0
LINE
  8
0
 62
     0
 10
117.431
 20
84.7467
 30
0.0
 11
117.431
 21
87.8459
 31
0.0
  0
LINE
  8
0
 62
     0
 10
117.431
 20
87.8459
 30
0.0
 11
116.632
 21
87.8459
 31
0.0
  0
LINE
  8
0
 62
     0
 10
116.632
 20
87.8459
 30
0.0
 11
116.632
 21
93.6459
 31
0.0
  0
LINE
  8
0
 62
     0
 10
116.632
 20
93.6459
 30
0.0
 11
117.431
 21
93.6459
 31
0.0
  0
LINE
  8
0
 62
     0
 10
117.431
 20
93.6459
 30
0.0
 11
117.431
 21
96.7465
 31
0.0
  0
LINE
  8
0
 62
     0
 10
117.431
 20
96.7465
 30
0.0
 11
116.632
 21
96.7465
 31
0.0
  0
LINE
  8
0
 62
     0
 10
116.632
 20
96.7465
 30
0.0
 11
116.632
 21
97.7456
 31
0.0
  0
LINE
  8
0
 62
     0
 10
116.632
 20
97.7456
 30
0.0
 11
102.632
 21
97.7456
 31
0.0
  0
LINE
  8
0
 62
     0
 10
121.682
 20
97.7456
 30
0.0
 11
121.682
 21
96.7465
 31
0.0
  0
LINE
  8
0
 62
     0
 10
121.682
 20
96.7465
 30
0.0
 11
120.881
 21
96.7465
 31
0.0
  0
LINE
  8
0
 62
     0
 10
120.881
 20
96.7465
 30
0.0
 11
120.881
 21
93.6459
 31
0.0
  0
LINE
  8
0
 62
     0
 10
120.881
 20
93.6459
 30
0.0
 11
121.682
 21
93.6459
 31
0.0
  0
LINE
  8
0
 62
     0
 10
121.682
 20
93.6459
 30
0.0
 11
121.682
 21
87.8459
 31
0.0
  0
LINE
  8
0
 62
     0
 10
121.682
 20
87.8459
 30
0.0
 11
120.881
 21
87.8459
 31
0.0
  0
LINE
  8
0
 62
     0
 10
120.881
 20
87.8459
 30
0.0
 11
120.881
 21
84.7467
 31
0.0
  0
LINE
  8
0
 62
     0
 10
120.881
 20
84.7467
 30
0.0
 11
121.682
 21
84.7467
 31
0.0
  0
LINE
  8
0
 62
     0
 10
121.682
 20
84.7467
 30
0.0
 11
121.682
 21
83.7463
 31
0.0
  0
LINE
  8
0
 62
     0
 10
121.682
 20
83.7463
 30
0.0
 11
135.682
 21
83.7463
 31
0.0
  0
LINE
  8
0
 62
     0
 10
135.682
 20
83.7463
 30
0.0
 11
135.682
 21
84.7467
 31
0.0
  0
LINE
  8
0
 62
     0
 10
135.682
 20
84.7467
 30
0.0
 11
136.481
 21
84.7467
 31
0.0
  0
LINE
  8
0
 62
     0
 10
136.481
 20
84.7467
 30
0.0
 11
136.481
 21
87.8459
 31
0.0
  0
LINE
  8
0
 62
     0
 10
136.481
 20
87.8459
 30
0.0
 11
135.682
 21
87.8459
 31
0.0
  0
LINE
  8
0
 62
     0
 10
135.682
 20
87.8459
 30
0.0
 11
135.682
 21
93.6459
 31
0.0
  0
LINE
  8
0
 62
     0
 10
135.682
 20
93.6459
 30
0.0
 11
136.481
 21
93.6459
 31
0.0
  0
LINE
  8
0
 62
     0
 10
136.481
 20
93.6459
 30
0.0
 11
136.481
 21
96.7465
 31
0.0
  0
LINE
  8
0
 62
     0
 10
136.481
 20
96.7465
 30
0.0
 11
135.682
 21
96.7465
 31
0.0
  0
LINE
  8
0
 62
     0
 10
135.682
 20
96.7465
 30
0.0
 11
135.682
 21
97.7456
 31
0.0
  0
LINE
  8
0
 62
     0
 10
135.682
 20
97.7456
 30
0.0
 11
121.682
 21
97.7456
 31
0.0
  0
LINE
  8
0
 62
     0
 10
140.732
 20
97.7456
 30
0.0
 11
140.732
 21
96.7465
 31
0.0
  0
LINE
  8
0
 62
     0
 10
140.732
 20
96.7465
 30
0.0
 11
139.931
 21
96.7465
 31
0.0
  0
LINE
  8
0
 62
     0
 10
139.931
 20
96.7465
 30
0.0
 11
139.931
 21
93.6459
 31
0.0
  0
LINE
  8
0
 62
     0
 10
139.931
 20
93.6459
 30
0.0
 11
140.732
 21
93.6459
 31
0.0
  0
LINE
  8
0
 62
     0
 10
140.732
 20
93.6459
 30
0.0
 11
140.732
 21
87.8459
 31
0.0
  0
LINE
  8
0
 62
     0
 10
140.732
 20
87.8459
 30
0.0
 11
139.931
 21
87.8459
 31
0.0
  0
LINE
  8
0
 62
     0
 10
139.931
 20
87.8459
 30
0.0
 11
139.931
 21
84.7467
 31
0.0
  0
LINE
  8
0
 62
     0
 10
139.931
 20
84.7467
 30
0.0
 11
140.732
 21
84.7467
 31
0.0
  0
LINE
  8
0
 62
     0
 10
140.732
 20
84.7467
 30
0.0
 11
140.732
 21
83.7463
 31
0.0
  0
LINE
  8
0
 62
     0
 10
140.732
 20
83.7463
 30
0.0
 11
154.732
 21
83.7463
 31
0.0
  0
LINE
  8
0
 62
     0
 10
154.732
 20
83.7463
 30
0.0
 11
154.732
 21
84.7467
 31
0.0
  0
LINE
  8
0
 62
     0
 10
154.732
 20
84.7467
 30
0.0
 11
155.531
 21
84.7467
 31
0.0
  0
LINE
  8
0
 62
     0
 10
155.531
 20
84.7467
 30
0.0
 11
155.531
 21
87.8459
 31
0.0
  0
LINE
  8
0
 62
     0
 10
155.531
 20
87.8459
 30
0.0
 11
154.732
 21
87.8459
 31
0.0
  0
LINE
  8
0
 62
     0
 10
154.732
 20
87.8459
 30
0.0
 11
154.732
 21
93.6459
 31
0.0
  0
LINE
  8
0
 62
     0
 10
154.732
 20
93.6459
 30
0.0
 11
155.531
 21
93.6459
 31
0.0
  0
LINE
  8
0
 62
     0
 10
155.531
 20
93.6459
 30
0.0
 11
155.531
 21
96.7465
 31
0.0
  0
LINE
  8
0
 62
     0
 10
155.531
 20
96.7465
 30
0.0
 11
154.732
 21
96.7465
 31
0.0
  0
LINE
  8
0
 62
     0
 10
154.732
 20
96.7465
 30
0.0
 11
154.732
 21
97.7456
 31
0.0
  0
LINE
  8
0
 62
     0
 10
154.732
 20
97.7456
 30
0.0
 11
140.732
 21
97.7456
 31
0.0
  0
LINE
  8
0
 62
     0
 10
159.782
 20
97.7456
 30
0.0
 11
159.782
 21
96.7465
 31
0.0
  0
LINE
  8
0
 62
     0
 10
159.782
 20
96.7465
 30
0.0
 11
158.981
 21
96.7465
 31
0.0
  0
LINE
  8
0
 62
     0
 10
158.981
 20
96.7465
 30
0.0
 11
158.981
 21
93.6459
 31
0.0
  0
LINE
  8
0
 62
     0
 10
158.981
 20
93.6459
 30
0.0
 11
159.782
 21
93.6459
 31
0.0
  0
LINE
  8
0
 62
     0
 10
159.782
 20
93.6459
 30
0.0
 11
159.782
 21
87.8459
 31
0.0
  0
LINE
  8
0
 62
     0
 10
159.782
 20
87.8459
 30
0.0
 11
158.981
 21
87.8459
 31
0.0
  0
LINE
  8
0
 62
     0
 10
158.981
 20
87.8459
 30
0.0
 11
158.981
 21
84.7467
 31
0.0
  0
LINE
  8
0
 62
     0
 10
158.981
 20
84.7467
 30
0.0
 11
159.782
 21
84.7467
 31
0.0
  0
LINE
  8
0
 62
     0
 10
159.782
 20
84.7467
 30
0.0
 11
159.782
 21
83.7463
 31
0.0
  0
LINE
  8
0
 62
     0
 10
159.782
 20
83.7463
 30
0.0
 11
173.782
 21
83.7463
 31
0.0
  0
LINE
  8
0
 62
     0
 10
173.782
 20
83.7463
 30
0.0
 11
173.782
 21
84.7467
 31
0.0
  0
LINE
  8
0
 62
     0
 10
173.782
 20
84.7467
 30
0.0
 11
174.581
 21
84.7467
 31
0.0
  0
LINE
  8
0
 62
     0
 10
174.581
 20
84.7467
 30
0.0
 11
174.581
 21
87.8459
 31
0.0
  0
LINE
  8
0
 62
     0
 10
174.581
 20
87.8459
 30
0.0
 11
173.782
 21
87.8459
 31
0.0
  0
LINE
  8
0
 62
     0
 10
173.782
 20
87.8459
 30
0.0
 11
173.782
 21
93.6459
 31
0.0
  0
LINE
  8
0
 62
     0
 10
173.782
 20
93.6459
 30
0.0
 11
174.581
 21
93.6459
 31
0.0
  0
LINE
  8
0
 62
     0
 10
174.581
 20
93.6459
 30
0.0
 11
174.581
 21
96.7465
 31
0.0
  0
LINE
  8
0
 62
     0
 10
174.581
 20
96.7465
 30
0.0
 11
173.782
 21
96.7465
 31
0.0
  0
LINE
  8
0
 62
     0
 10
173.782
 20
96.7465
 30
0.0
 11
173.782
 21
97.7456
 31
0.0
  0
LINE
  8
0
 62
     0
 10
173.782
 20
97.7456
 30
0.0
 11
159.782
 21
97.7456
 31
0.0
  0
LINE
  8
0
 62
     0
 10
178.832
 20
97.7456
 30
0.0
 11
178.832
 21
96.7465
 31
0.0
  0
LINE
  8
0
 62
     0
 10
178.832
 20
96.7465
 30
0.0
 11
178.031
 21
96.7465
 31
0.0
  0
LINE
  8
0
 62
     0
 10
178.031
 20
96.7465
 30
0.0
 11
178.031
 21
93.6459
 31
0.0
  0
LINE
  8
0
 62
     0
 10
178.031
 20
93.6459
 30
0.0
 11
178.832
 21
93.6459
 31
0.0
  0
LINE
  8
0
 62
     0
 10
178.832
 20
93.6459
 30
0.0
 11
178.832
 21
87.8459
 31
0.0
  0
LINE
  8
0
 62
     0
 10
178.832
 20
87.8459
 30
0.0
 11
178.031
 21
87.8459
 31
0.0
  0
LINE
  8
0
 62
     0
 10
178.031
 20
87.8459
 30
0.0
 11
178.031
 21
84.7467
 31
0.0
  0
LINE
  8
0
 62
     0
 10
178.031
 20
84.7467
 30
0.0
 11
178.832
 21
84.7467
 31
0.0
  0
LINE
  8
0
 62
     0
 10
178.832
 20
84.7467
 30
0.0
 11
178.832
 21
83.7463
 31
0.0
  0
LINE
  8
0
 62
     0
 10
178.832
 20
83.7463
 30
0.0
 11
192.832
 21
83.7463
 31
0.0
  0
LINE
  8
0
 62
     0
 10
192.832
 20
83.7463
 30
0.0
 11
192.832
 21
84.7467
 31
0.0
  0
LINE
  8
0
 62
     0
 10
192.832
 20
84.7467
 30
0.0
 11
193.631
 21
84.7467
 31
0.0
  0
LINE
  8
0
 62
     0
 10
193.631
 20
84.7467
 30
0.0
 11
193.631
 21
87.8459
 31
0.0
  0
LINE
  8
0
 62
     0
 10
193.631
 20
87.8459
 30
0.0
 11
192.832
 21
87.8459
 31
0.0
  0
LINE
  8
0
 62
     0
 10
192.832
 20
87.8459
 30
0.0
 11
192.832
 21
93.6459
 31
0.0
  0
LINE
  8
0
 62
     0
 10
192.832
 20
93.6459
 30
0.0
 11
193.631
 21
93.6459
 31
0.0
  0
LINE
  8
0
 62
     0
 10
193.631
 20
93.6459
 30
0.0
 11
193.631
 21
96.7465
 31
0.0
  0
LINE
  8
0
 62
     0
 10
193.631
 20
96.7465
 30
0.0
 11
192.832
 21
96.7465
 31
0.0
  0
LINE
  8
0
 62
     0
 10
192.832
 20
96.7465
 30
0.0
 11
192.832
 21
97.7456
 31
0.0
  0
LINE
  8
0
 62
     0
 10
192.832
 20
97.7456
 30
0.0
 11
178.832
 21
97.7456
 31
0.0
  0
LINE
  8
0
 62
     0
 10
197.882
 20
97.7456
 30
0.0
 11
197.882
 21
96.7465
 31
0.0
  0
LINE
  8
0
 62
     0
 10
197.882
 20
96.7465
 30
0.0
 11
197.081
 21
96.7465
 31
0.0
  0
LINE
  8
0
 62
     0
 10
197.081
 20
96.7465
 30
0.0
 11
197.081
 21
93.6459
 31
0.0
  0
LINE
  8
0
 62
     0
 10
197.081
 20
93.6459
 30
0.0
 11
197.882
 21
93.6459
 31
0.0
  0
LINE
  8
0
 62
     0
 10
197.882
 20
93.6459
 30
0.0
 11
197.882
 21
87.8459
 31
0.0
  0
LINE
  8
0
 62
     0
 10
197.882
 20
87.8459
 30
0.0
 11
197.081
 21
87.8459
 31
0.0
  0
LINE
  8
0
 62
     0
 10
197.081
 20
87.8459
 30
0.0
 11
197.081
 21
84.7467
 31
0.0
  0
LINE
  8
0
 62
     0
 10
197.081
 20
84.7467
 30
0.0
 11
197.882
 21
84.7467
 31
0.0
  0
LINE
  8
0
 62
     0
 10
197.882
 20
84.7467
 30
0.0
 11
197.882
 21
83.7463
 31
0.0
  0
LINE
  8
0
 62
     0
 10
197.882
 20
83.7463
 30
0.0
 11
211.882
 21
83.7463
 31
0.0
  0
LINE
  8
0
 62
     0
 10
211.882
 20
83.7463
 30
0.0
 11
211.882
 21
84.7467
 31
0.0
  0
LINE
  8
0
 62
     0
 10
211.882
 20
84.7467
 30
0.0
 11
212.681
 21
84.7467
 31
0.0
  0
LINE
  8
0
 62
     0
 10
212.681
 20
84.7467
 30
0.0
 11
212.681
 21
87.8459
 31
0.0
  0
LINE
  8
0
 62
     0
 10
212.681
 20
87.8459
 30
0.0
 11
211.882
 21
87.8459
 31
0.0
  0
LINE
  8
0
 62
     0
 10
211.882
 20
87.8459
 30
0.0
 11
211.882
 21
93.6459
 31
0.0
  0
LINE
  8
0
 62
     0
 10
211.882
 20
93.6459
 30
0.0
 11
212.681
 21
93.6459
 31
0.0
  0
LINE
  8
0
 62
     0
 10
212.681
 20
93.6459
 30
0.0
 11
212.681
 21
96.7465
 31
0.0
  0
LINE
  8
0
 62
     0
 10
212.681
 20
96.7465
 30
0.0
 11
211.882
 21
96.7465
 31
0.0
  0
LINE
  8
0
 62
     0
 10
211.882
 20
96.7465
 30
0.0
 11
211.882
 21
97.7456
 31
0.0
  0
LINE
  8
0
 62
     0
 10
211.882
 20
97.7456
 30
0.0
 11
197.882
 21
97.7456
 31
0.0
  0
LINE
  8
0
 62
     0
 10
216.932
 20
97.7456
 30
0.0
 11
216.932
 21
96.7465
 31
0.0
  0
LINE
  8
0
 62
     0
 10
216.932
 20
96.7465
 30
0.0
 11
216.131
 21
96.7465
 31
0.0
  0
LINE
  8
0
 62
     0
 10
216.131
 20
96.7465
 30
0.0
 11
216.131
 21
93.6459
 31
0.0
  0
LINE
  8
0
 62
     0
 10
216.131
 20
93.6459
 30
0.0
 11
216.932
 21
93.6459
 31
0.0
  0
LINE
  8
0
 62
     0
 10
216.932
 20
93.6459
 30
0.0
 11
216.932
 21
87.8459
 31
0.0
  0
LINE
  8
0
 62
     0
 10
216.932
 20
87.8459
 30
0.0
 11
216.131
 21
87.8459
 31
0.0
  0
LINE
  8
0
 62
     0
 10
216.131
 20
87.8459
 30
0.0
 11
216.131
 21
84.7467
 31
0.0
  0
LINE
  8
0
 62
     0
 10
216.131
 20
84.7467
 30
0.0
 11
216.932
 21
84.7467
 31
0.0
  0
LINE
  8
0
 62
     0
 10
216.932
 20
84.7467
 30
0.0
 11
216.932
 21
83.7463
 31
0.0
  0
LINE
  8
0
 62
     0
 10
216.932
 20
83.7463
 30
0.0
 11
230.932
 21
83.7463
 31
0.0
  0
LINE
  8
0
 62
     0
 10
230.932
 20
83.7463
 30
0.0
 11
230.932
 21
84.7467
 31
0.0
  0
LINE
  8
0
 62
     0
 10
230.932
 20
84.7467
 30
0.0
 11
231.731
 21
84.7467
 31
0.0
  0
LINE
  8
0
 62
     0
 10
231.731
 20
84.7467
 30
0.0
 11
231.731
 21
87.8459
 31
0.0
  0
LINE
  8
0
 62
     0
 10
231.731
 20
87.8459
 30
0.0
 11
230.932
 21
87.8459
 31
0.0
  0
LINE
  8
0
 62
     0
 10
230.932
 20
87.8459
 30
0.0
 11
230.932
 21
93.6459
 31
0.0
  0
LINE
  8
0
 62
     0
 10
230.932
 20
93.6459
 30
0.0
 11
231.731
 21
93.6459
 31
0.0
  0
LINE
  8
0
 62
     0
 10
231.731
 20
93.6459
 30
0.0
 11
231.731
 21
96.7465
 31
0.0
  0
LINE
  8
0
 62
     0
 10
231.731
 20
96.7465
 30
0.0
 11
230.932
 21
96.7465
 31
0.0
  0
LINE
  8
0
 62
     0
 10
230.932
 20
96.7465
 30
0.0
 11
230.932
 21
97.7456
 31
0.0
  0
LINE
  8
0
 62
     0
 10
230.932
 20
97.7456
 30
0.0
 11
216.932
 21
97.7456
 31
0.0
  0
LINE
  8
0
 62
     0
 10
235.982
 20
97.7456
 30
0.0
 11
235.982
 21
96.7465
 31
0.0
  0
LINE
  8
0
 62
     0
 10
235.982
 20
96.7465
 30
0.0
 11
235.181
 21
96.7465
 31
0.0
  0
LINE
  8
0
 62
     0
 10
235.181
 20
96.7465
 30
0.0
 11
235.181
 21
93.6459
 31
0.0
  0
LINE
  8
0
 62
     0
 10
235.181
 20
93.6459
 30
0.0
 11
235.982
 21
93.6459
 31
0.0
  0
LINE
  8
0
 62
     0
 10
235.982
 20
93.6459
 30
0.0
 11
235.982
 21
87.8459
 31
0.0
  0
LINE
  8
0
 62
     0
 10
235.982
 20
87.8459
 30
0.0
 11
235.181
 21
87.8459
 31
0.0
  0
LINE
  8
0
 62
     0
 10
235.181
 20
87.8459
 30
0.0
 11
235.181
 21
84.7467
 31
0.0
  0
LINE
  8
0
 62
     0
 10
235.181
 20
84.7467
 30
0.0
 11
235.982
 21
84.7467
 31
0.0
  0
LINE
  8
0
 62
     0
 10
235.982
 20
84.7467
 30
0.0
 11
235.982
 21
83.7463
 31
0.0
  0
LINE
  8
0
 62
     0
 10
235.982
 20
83.7463
 30
0.0
 11
249.982
 21
83.7463
 31
0.0
  0
LINE
  8
0
 62
     0
 10
249.982
 20
83.7463
 30
0.0
 11
249.982
 21
84.7467
 31
0.0
  0
LINE
  8
0
 62
     0
 10
249.982
 20
84.7467
 30
0.0
 11
250.781
 21
84.7467
 31
0.0
  0
LINE
  8
0
 62
     0
 10
250.781
 20
84.7467
 30
0.0
 11
250.781
 21
87.8459
 31
0.0
  0
LINE
  8
0
 62
     0
 10
250.781
 20
87.8459
 30
0.0
 11
249.982
 21
87.8459
 31
0.0
  0
LINE
  8
0
 62
     0
 10
249.982
 20
87.8459
 30
0.0
 11
249.982
 21
93.6459
 31
0.0
  0
LINE
  8
0
 62
     0
 10
249.982
 20
93.6459
 30
0.0
 11
250.781
 21
93.6459
 31
0.0
  0
LINE
  8
0
 62
     0
 10
250.781
 20
93.6459
 30
0.0
 11
250.781
 21
96.7465
 31
0.0
  0
LINE
  8
0
 62
     0
 10
250.781
 20
96.7465
 30
0.0
 11
249.982
 21
96.7465
 31
0.0
  0
LINE
  8
0
 62
     0
 10
249.982
 20
96.7465
 30
0.0
 11
249.982
 21
97.7456
 31
0.0
  0
LINE
  8
0
 62
     0
 10
249.982
 20
97.7456
 30
0.0
 11
235.982
 21
97.7456
 31
0.0
  0
LINE
  8
0
 62
     0
 10
7.38216
 20
116.796
 30
0.0
 11
7.38216
 21
115.796
 31
0.0
  0
LINE
  8
0
 62
     0
 10
7.38216
 20
115.796
 30
0.0
 11
6.58153
 21
115.796
 31
0.0
  0
LINE
  8
0
 62
     0
 10
6.58153
 20
115.796
 30
0.0
 11
6.58153
 21
112.696
 31
0.0
  0
LINE
  8
0
 62
     0
 10
6.58153
 20
112.696
 30
0.0
 11
7.38216
 21
112.696
 31
0.0
  0
LINE
  8
0
 62
     0
 10
7.38216
 20
112.696
 30
0.0
 11
7.38216
 21
106.896
 31
0.0
  0
LINE
  8
0
 62
     0
 10
7.38216
 20
106.896
 30
0.0
 11
6.58153
 21
106.896
 31
0.0
  0
LINE
  8
0
 62
     0
 10
6.58153
 20
106.896
 30
0.0
 11
6.58153
 21
103.797
 31
0.0
  0
LINE
  8
0
 62
     0
 10
6.58153
 20
103.797
 30
0.0
 11
7.38216
 21
103.797
 31
0.0
  0
LINE
  8
0
 62
     0
 10
7.38216
 20
103.797
 30
0.0
 11
7.38216
 21
102.796
 31
0.0
  0
LINE
  8
0
 62
     0
 10
7.38216
 20
102.796
 30
0.0
 11
21.3817
 21
102.796
 31
0.0
  0
LINE
  8
0
 62
     0
 10
21.3817
 20
102.796
 30
0.0
 11
21.3817
 21
103.797
 31
0.0
  0
LINE
  8
0
 62
     0
 10
21.3817
 20
103.797
 30
0.0
 11
22.1809
 21
103.797
 31
0.0
  0
LINE
  8
0
 62
     0
 10
22.1809
 20
103.797
 30
0.0
 11
22.1809
 21
106.896
 31
0.0
  0
LINE
  8
0
 62
     0
 10
22.1809
 20
106.896
 30
0.0
 11
21.3817
 21
106.896
 31
0.0
  0
LINE
  8
0
 62
     0
 10
21.3817
 20
106.896
 30
0.0
 11
21.3817
 21
112.696
 31
0.0
  0
LINE
  8
0
 62
     0
 10
21.3817
 20
112.696
 30
0.0
 11
22.1809
 21
112.696
 31
0.0
  0
LINE
  8
0
 62
     0
 10
22.1809
 20
112.696
 30
0.0
 11
22.1809
 21
115.796
 31
0.0
  0
LINE
  8
0
 62
     0
 10
22.1809
 20
115.796
 30
0.0
 11
21.3817
 21
115.796
 31
0.0
  0
LINE
  8
0
 62
     0
 10
21.3817
 20
115.796
 30
0.0
 11
21.3817
 21
116.796
 31
0.0
  0
LINE
  8
0
 62
     0
 10
21.3817
 20
116.796
 30
0.0
 11
7.38216
 21
116.796
 31
0.0
  0
LINE
  8
0
 62
     0
 10
26.4322
 20
116.796
 30
0.0
 11
26.4322
 21
115.796
 31
0.0
  0
LINE
  8
0
 62
     0
 10
26.4322
 20
115.796
 30
0.0
 11
25.6315
 21
115.796
 31
0.0
  0
LINE
  8
0
 62
     0
 10
25.6315
 20
115.796
 30
0.0
 11
25.6315
 21
112.696
 31
0.0
  0
LINE
  8
0
 62
     0
 10
25.6315
 20
112.696
 30
0.0
 11
26.4322
 21
112.696
 31
0.0
  0
LINE
  8
0
 62
     0
 10
26.4322
 20
112.696
 30
0.0
 11
26.4322
 21
106.896
 31
0.0
  0
LINE
  8
0
 62
     0
 10
26.4322
 20
106.896
 30
0.0
 11
25.6315
 21
106.896
 31
0.0
  0
LINE
  8
0
 62
     0
 10
25.6315
 20
106.896
 30
0.0
 11
25.6315
 21
103.797
 31
0.0
  0
LINE
  8
0
 62
     0
 10
25.6315
 20
103.797
 30
0.0
 11
26.4322
 21
103.797
 31
0.0
  0
LINE
  8
0
 62
     0
 10
26.4322
 20
103.797
 30
0.0
 11
26.4322
 21
102.796
 31
0.0
  0
LINE
  8
0
 62
     0
 10
26.4322
 20
102.796
 30
0.0
 11
40.4315
 21
102.796
 31
0.0
  0
LINE
  8
0
 62
     0
 10
40.4315
 20
102.796
 30
0.0
 11
40.4315
 21
103.797
 31
0.0
  0
LINE
  8
0
 62
     0
 10
40.4315
 20
103.797
 30
0.0
 11
41.2309
 21
103.797
 31
0.0
  0
LINE
  8
0
 62
     0
 10
41.2309
 20
103.797
 30
0.0
 11
41.2309
 21
106.896
 31
0.0
  0
LINE
  8
0
 62
     0
 10
41.2309
 20
106.896
 30
0.0
 11
40.4315
 21
106.896
 31
0.0
  0
LINE
  8
0
 62
     0
 10
40.4315
 20
106.896
 30
0.0
 11
40.4315
 21
112.696
 31
0.0
  0
LINE
  8
0
 62
     0
 10
40.4315
 20
112.696
 30
0.0
 11
41.2309
 21
112.696
 31
0.0
  0
LINE
  8
0
 62
     0
 10
41.2309
 20
112.696
 30
0.0
 11
41.2309
 21
115.796
 31
0.0
  0
LINE
  8
0
 62
     0
 10
41.2309
 20
115.796
 30
0.0
 11
40.4315
 21
115.796
 31
0.0
  0
LINE
  8
0
 62
     0
 10
40.4315
 20
115.796
 30
0.0
 11
40.4315
 21
116.796
 31
0.0
  0
LINE
  8
0
 62
     0
 10
40.4315
 20
116.796
 30
0.0
 11
26.4322
 21
116.796
 31
0.0
  0
LINE
  8
0
 62
     0
 10
45.4822
 20
116.796
 30
0.0
 11
45.4822
 21
115.796
 31
0.0
  0
LINE
  8
0
 62
     0
 10
45.4822
 20
115.796
 30
0.0
 11
44.6814
 21
115.796
 31
0.0
  0
LINE
  8
0
 62
     0
 10
44.6814
 20
115.796
 30
0.0
 11
44.6814
 21
112.696
 31
0.0
  0
LINE
  8
0
 62
     0
 10
44.6814
 20
112.696
 30
0.0
 11
45.4822
 21
112.696
 31
0.0
  0
LINE
  8
0
 62
     0
 10
45.4822
 20
112.696
 30
0.0
 11
45.4822
 21
106.896
 31
0.0
  0
LINE
  8
0
 62
     0
 10
45.4822
 20
106.896
 30
0.0
 11
44.6814
 21
106.896
 31
0.0
  0
LINE
  8
0
 62
     0
 10
44.6814
 20
106.896
 30
0.0
 11
44.6814
 21
103.797
 31
0.0
  0
LINE
  8
0
 62
     0
 10
44.6814
 20
103.797
 30
0.0
 11
45.4822
 21
103.797
 31
0.0
  0
LINE
  8
0
 62
     0
 10
45.4822
 20
103.797
 30
0.0
 11
45.4822
 21
102.796
 31
0.0
  0
LINE
  8
0
 62
     0
 10
45.4822
 20
102.796
 30
0.0
 11
59.4815
 21
102.796
 31
0.0
  0
LINE
  8
0
 62
     0
 10
59.4815
 20
102.796
 30
0.0
 11
59.4815
 21
103.797
 31
0.0
  0
LINE
  8
0
 62
     0
 10
59.4815
 20
103.797
 30
0.0
 11
60.2809
 21
103.797
 31
0.0
  0
LINE
  8
0
 62
     0
 10
60.2809
 20
103.797
 30
0.0
 11
60.2809
 21
106.896
 31
0.0
  0
LINE
  8
0
 62
     0
 10
60.2809
 20
106.896
 30
0.0
 11
59.4815
 21
106.896
 31
0.0
  0
LINE
  8
0
 62
     0
 10
59.4815
 20
106.896
 30
0.0
 11
59.4815
 21
112.696
 31
0.0
  0
LINE
  8
0
 62
     0
 10
59.4815
 20
112.696
 30
0.0
 11
60.2809
 21
112.696
 31
0.0
  0
LINE
  8
0
 62
     0
 10
60.2809
 20
112.696
 30
0.0
 11
60.2809
 21
115.796
 31
0.0
  0
LINE
  8
0
 62
     0
 10
60.2809
 20
115.796
 30
0.0
 11
59.4815
 21
115.796
 31
0.0
  0
LINE
  8
0
 62
     0
 10
59.4815
 20
115.796
 30
0.0
 11
59.4815
 21
116.796
 31
0.0
  0
LINE
  8
0
 62
     0
 10
59.4815
 20
116.796
 30
0.0
 11
45.4822
 21
116.796
 31
0.0
  0
LINE
  8
0
 62
     0
 10
64.5322
 20
116.796
 30
0.0
 11
64.5322
 21
115.796
 31
0.0
  0
LINE
  8
0
 62
     0
 10
64.5322
 20
115.796
 30
0.0
 11
63.7314
 21
115.796
 31
0.0
  0
LINE
  8
0
 62
     0
 10
63.7314
 20
115.796
 30
0.0
 11
63.7314
 21
112.696
 31
0.0
  0
LINE
  8
0
 62
     0
 10
63.7314
 20
112.696
 30
0.0
 11
64.5322
 21
112.696
 31
0.0
  0
LINE
  8
0
 62
     0
 10
64.5322
 20
112.696
 30
0.0
 11
64.5322
 21
106.896
 31
0.0
  0
LINE
  8
0
 62
     0
 10
64.5322
 20
106.896
 30
0.0
 11
63.7314
 21
106.896
 31
0.0
  0
LINE
  8
0
 62
     0
 10
63.7314
 20
106.896
 30
0.0
 11
63.7314
 21
103.797
 31
0.0
  0
LINE
  8
0
 62
     0
 10
63.7314
 20
103.797
 30
0.0
 11
64.5322
 21
103.797
 31
0.0
  0
LINE
  8
0
 62
     0
 10
64.5322
 20
103.797
 30
0.0
 11
64.5322
 21
102.796
 31
0.0
  0
LINE
  8
0
 62
     0
 10
64.5322
 20
102.796
 30
0.0
 11
78.5315
 21
102.796
 31
0.0
  0
LINE
  8
0
 62
     0
 10
78.5315
 20
102.796
 30
0.0
 11
78.5315
 21
103.797
 31
0.0
  0
LINE
  8
0
 62
     0
 10
78.5315
 20
103.797
 30
0.0
 11
79.3309
 21
103.797
 31
0.0
  0
LINE
  8
0
 62
     0
 10
79.3309
 20
103.797
 30
0.0
 11
79.3309
 21
106.896
 31
0.0
  0
LINE
  8
0
 62
     0
 10
79.3309
 20
106.896
 30
0.0
 11
78.5315
 21
106.896
 31
0.0
  0
LINE
  8
0
 62
     0
 10
78.5315
 20
106.896
 30
0.0
 11
78.5315
 21
112.696
 31
0.0
  0
LINE
  8
0
 62
     0
 10
78.5315
 20
112.696
 30
0.0
 11
79.3309
 21
112.696
 31
0.0
  0
LINE
  8
0
 62
     0
 10
79.3309
 20
112.696
 30
0.0
 11
79.3309
 21
115.796
 31
0.0
  0
LINE
  8
0
 62
     0
 10
79.3309
 20
115.796
 30
0.0
 11
78.5315
 21
115.796
 31
0.0
  0
LINE
  8
0
 62
     0
 10
78.5315
 20
115.796
 30
0.0
 11
78.5315
 21
116.796
 31
0.0
  0
LINE
  8
0
 62
     0
 10
78.5315
 20
116.796
 30
0.0
 11
64.5322
 21
116.796
 31
0.0
  0
LINE
  8
0
 62
     0
 10
83.5822
 20
116.796
 30
0.0
 11
83.5822
 21
115.796
 31
0.0
  0
LINE
  8
0
 62
     0
 10
83.5822
 20
115.796
 30
0.0
 11
82.7814
 21
115.796
 31
0.0
  0
LINE
  8
0
 62
     0
 10
82.7814
 20
115.796
 30
0.0
 11
82.7814
 21
112.696
 31
0.0
  0
LINE
  8
0
 62
     0
 10
82.7814
 20
112.696
 30
0.0
 11
83.5822
 21
112.696
 31
0.0
  0
LINE
  8
0
 62
     0
 10
83.5822
 20
112.696
 30
0.0
 11
83.5822
 21
106.896
 31
0.0
  0
LINE
  8
0
 62
     0
 10
83.5822
 20
106.896
 30
0.0
 11
82.7814
 21
106.896
 31
0.0
  0
LINE
  8
0
 62
     0
 10
82.7814
 20
106.896
 30
0.0
 11
82.7814
 21
103.797
 31
0.0
  0
LINE
  8
0
 62
     0
 10
82.7814
 20
103.797
 30
0.0
 11
83.5822
 21
103.797
 31
0.0
  0
LINE
  8
0
 62
     0
 10
83.5822
 20
103.797
 30
0.0
 11
83.5822
 21
102.796
 31
0.0
  0
LINE
  8
0
 62
     0
 10
83.5822
 20
102.796
 30
0.0
 11
97.5815
 21
102.796
 31
0.0
  0
LINE
  8
0
 62
     0
 10
97.5815
 20
102.796
 30
0.0
 11
97.5815
 21
103.797
 31
0.0
  0
LINE
  8
0
 62
     0
 10
97.5815
 20
103.797
 30
0.0
 11
98.3809
 21
103.797
 31
0.0
  0
LINE
  8
0
 62
     0
 10
98.3809
 20
103.797
 30
0.0
 11
98.3809
 21
106.896
 31
0.0
  0
LINE
  8
0
 62
     0
 10
98.3809
 20
106.896
 30
0.0
 11
97.5815
 21
106.896
 31
0.0
  0
LINE
  8
0
 62
     0
 10
97.5815
 20
106.896
 30
0.0
 11
97.5815
 21
112.696
 31
0.0
  0
LINE
  8
0
 62
     0
 10
97.5815
 20
112.696
 30
0.0
 11
98.3809
 21
112.696
 31
0.0
  0
LINE
  8
0
 62
     0
 10
98.3809
 20
112.696
 30
0.0
 11
98.3809
 21
115.796
 31
0.0
  0
LINE
  8
0
 62
     0
 10
98.3809
 20
115.796
 30
0.0
 11
97.5815
 21
115.796
 31
0.0
  0
LINE
  8
0
 62
     0
 10
97.5815
 20
115.796
 30
0.0
 11
97.5815
 21
116.796
 31
0.0
  0
LINE
  8
0
 62
     0
 10
97.5815
 20
116.796
 30
0.0
 11
83.5822
 21
116.796
 31
0.0
  0
LINE
  8
0
 62
     0
 10
102.632
 20
116.796
 30
0.0
 11
102.632
 21
115.796
 31
0.0
  0
LINE
  8
0
 62
     0
 10
102.632
 20
115.796
 30
0.0
 11
101.831
 21
115.796
 31
0.0
  0
LINE
  8
0
 62
     0
 10
101.831
 20
115.796
 30
0.0
 11
101.831
 21
112.696
 31
0.0
  0
LINE
  8
0
 62
     0
 10
101.831
 20
112.696
 30
0.0
 11
102.632
 21
112.696
 31
0.0
  0
LINE
  8
0
 62
     0
 10
102.632
 20
112.696
 30
0.0
 11
102.632
 21
106.896
 31
0.0
  0
LINE
  8
0
 62
     0
 10
102.632
 20
106.896
 30
0.0
 11
101.831
 21
106.896
 31
0.0
  0
LINE
  8
0
 62
     0
 10
101.831
 20
106.896
 30
0.0
 11
101.831
 21
103.797
 31
0.0
  0
LINE
  8
0
 62
     0
 10
101.831
 20
103.797
 30
0.0
 11
102.632
 21
103.797
 31
0.0
  0
LINE
  8
0
 62
     0
 10
102.632
 20
103.797
 30
0.0
 11
102.632
 21
102.796
 31
0.0
  0
LINE
  8
0
 62
     0
 10
102.632
 20
102.796
 30
0.0
 11
116.632
 21
102.796
 31
0.0
  0
LINE
  8
0
 62
     0
 10
116.632
 20
102.796
 30
0.0
 11
116.632
 21
103.797
 31
0.0
  0
LINE
  8
0
 62
     0
 10
116.632
 20
103.797
 30
0.0
 11
117.431
 21
103.797
 31
0.0
  0
LINE
  8
0
 62
     0
 10
117.431
 20
103.797
 30
0.0
 11
117.431
 21
106.896
 31
0.0
  0
LINE
  8
0
 62
     0
 10
117.431
 20
106.896
 30
0.0
 11
116.632
 21
106.896
 31
0.0
  0
LINE
  8
0
 62
     0
 10
116.632
 20
106.896
 30
0.0
 11
116.632
 21
112.696
 31
0.0
  0
LINE
  8
0
 62
     0
 10
116.632
 20
112.696
 30
0.0
 11
117.431
 21
112.696
 31
0.0
  0
LINE
  8
0
 62
     0
 10
117.431
 20
112.696
 30
0.0
 11
117.431
 21
115.796
 31
0.0
  0
LINE
  8
0
 62
     0
 10
117.431
 20
115.796
 30
0.0
 11
116.632
 21
115.796
 31
0.0
  0
LINE
  8
0
 62
     0
 10
116.632
 20
115.796
 30
0.0
 11
116.632
 21
116.796
 31
0.0
  0
LINE
  8
0
 62
     0
 10
116.632
 20
116.796
 30
0.0
 11
102.632
 21
116.796
 31
0.0
  0
LINE
  8
0
 62
     0
 10
121.682
 20
116.796
 30
0.0
 11
121.682
 21
115.796
 31
0.0
  0
LINE
  8
0
 62
     0
 10
121.682
 20
115.796
 30
0.0
 11
120.881
 21
115.796
 31
0.0
  0
LINE
  8
0
 62
     0
 10
120.881
 20
115.796
 30
0.0
 11
120.881
 21
112.696
 31
0.0
  0
LINE
  8
0
 62
     0
 10
120.881
 20
112.696
 30
0.0
 11
121.682
 21
112.696
 31
0.0
  0
LINE
  8
0
 62
     0
 10
121.682
 20
112.696
 30
0.0
 11
121.682
 21
106.896
 31
0.0
  0
LINE
  8
0
 62
     0
 10
121.682
 20
106.896
 30
0.0
 11
120.881
 21
106.896
 31
0.0
  0
LINE
  8
0
 62
     0
 10
120.881
 20
106.896
 30
0.0
 11
120.881
 21
103.797
 31
0.0
  0
LINE
  8
0
 62
     0
 10
120.881
 20
103.797
 30
0.0
 11
121.682
 21
103.797
 31
0.0
  0
LINE
  8
0
 62
     0
 10
121.682
 20
103.797
 30
0.0
 11
121.682
 21
102.796
 31
0.0
  0
LINE
  8
0
 62
     0
 10
121.682
 20
102.796
 30
0.0
 11
135.682
 21
102.796
 31
0.0
  0
LINE
  8
0
 62
     0
 10
135.682
 20
102.796
 30
0.0
 11
135.682
 21
103.797
 31
0.0
  0
LINE
  8
0
 62
     0
 10
135.682
 20
103.797
 30
0.0
 11
136.481
 21
103.797
 31
0.0
  0
LINE
  8
0
 62
     0
 10
136.481
 20
103.797
 30
0.0
 11
136.481
 21
106.896
 31
0.0
  0
LINE
  8
0
 62
     0
 10
136.481
 20
106.896
 30
0.0
 11
135.682
 21
106.896
 31
0.0
  0
LINE
  8
0
 62
     0
 10
135.682
 20
106.896
 30
0.0
 11
135.682
 21
112.696
 31
0.0
  0
LINE
  8
0
 62
     0
 10
135.682
 20
112.696
 30
0.0
 11
136.481
 21
112.696
 31
0.0
  0
LINE
  8
0
 62
     0
 10
136.481
 20
112.696
 30
0.0
 11
136.481
 21
115.796
 31
0.0
  0
LINE
  8
0
 62
     0
 10
136.481
 20
115.796
 30
0.0
 11
135.682
 21
115.796
 31
0.0
  0
LINE
  8
0
 62
     0
 10
135.682
 20
115.796
 30
0.0
 11
135.682
 21
116.796
 31
0.0
  0
LINE
  8
0
 62
     0
 10
135.682
 20
116.796
 30
0.0
 11
121.682
 21
116.796
 31
0.0
  0
LINE
  8
0
 62
     0
 10
140.732
 20
116.796
 30
0.0
 11
140.732
 21
115.796
 31
0.0
  0
LINE
  8
0
 62
     0
 10
140.732
 20
115.796
 30
0.0
 11
139.931
 21
115.796
 31
0.0
  0
LINE
  8
0
 62
     0
 10
139.931
 20
115.796
 30
0.0
 11
139.931
 21
112.696
 31
0.0
  0
LINE
  8
0
 62
     0
 10
139.931
 20
112.696
 30
0.0
 11
140.732
 21
112.696
 31
0.0
  0
LINE
  8
0
 62
     0
 10
140.732
 20
112.696
 30
0.0
 11
140.732
 21
106.896
 31
0.0
  0
LINE
  8
0
 62
     0
 10
140.732
 20
106.896
 30
0.0
 11
139.931
 21
106.896
 31
0.0
  0
LINE
  8
0
 62
     0
 10
139.931
 20
106.896
 30
0.0
 11
139.931
 21
103.797
 31
0.0
  0
LINE
  8
0
 62
     0
 10
139.931
 20
103.797
 30
0.0
 11
140.732
 21
103.797
 31
0.0
  0
LINE
  8
0
 62
     0
 10
140.732
 20
103.797
 30
0.0
 11
140.732
 21
102.796
 31
0.0
  0
LINE
  8
0
 62
     0
 10
140.732
 20
102.796
 30
0.0
 11
154.732
 21
102.796
 31
0.0
  0
LINE
  8
0
 62
     0
 10
154.732
 20
102.796
 30
0.0
 11
154.732
 21
103.797
 31
0.0
  0
LINE
  8
0
 62
     0
 10
154.732
 20
103.797
 30
0.0
 11
155.531
 21
103.797
 31
0.0
  0
LINE
  8
0
 62
     0
 10
155.531
 20
103.797
 30
0.0
 11
155.531
 21
106.896
 31
0.0
  0
LINE
  8
0
 62
     0
 10
155.531
 20
106.896
 30
0.0
 11
154.732
 21
106.896
 31
0.0
  0
LINE
  8
0
 62
     0
 10
154.732
 20
106.896
 30
0.0
 11
154.732
 21
112.696
 31
0.0
  0
LINE
  8
0
 62
     0
 10
154.732
 20
112.696
 30
0.0
 11
155.531
 21
112.696
 31
0.0
  0
LINE
  8
0
 62
     0
 10
155.531
 20
112.696
 30
0.0
 11
155.531
 21
115.796
 31
0.0
  0
LINE
  8
0
 62
     0
 10
155.531
 20
115.796
 30
0.0
 11
154.732
 21
115.796
 31
0.0
  0
LINE
  8
0
 62
     0
 10
154.732
 20
115.796
 30
0.0
 11
154.732
 21
116.796
 31
0.0
  0
LINE
  8
0
 62
     0
 10
154.732
 20
116.796
 30
0.0
 11
140.732
 21
116.796
 31
0.0
  0
LINE
  8
0
 62
     0
 10
159.782
 20
116.796
 30
0.0
 11
159.782
 21
115.796
 31
0.0
  0
LINE
  8
0
 62
     0
 10
159.782
 20
115.796
 30
0.0
 11
158.981
 21
115.796
 31
0.0
  0
LINE
  8
0
 62
     0
 10
158.981
 20
115.796
 30
0.0
 11
158.981
 21
112.696
 31
0.0
  0
LINE
  8
0
 62
     0
 10
158.981
 20
112.696
 30
0.0
 11
159.782
 21
112.696
 31
0.0
  0
LINE
  8
0
 62
     0
 10
159.782
 20
112.696
 30
0.0
 11
159.782
 21
106.896
 31
0.0
  0
LINE
  8
0
 62
     0
 10
159.782
 20
106.896
 30
0.0
 11
158.981
 21
106.896
 31
0.0
  0
LINE
  8
0
 62
     0
 10
158.981
 20
106.896
 30
0.0
 11
158.981
 21
103.797
 31
0.0
  0
LINE
  8
0
 62
     0
 10
158.981
 20
103.797
 30
0.0
 11
159.782
 21
103.797
 31
0.0
  0
LINE
  8
0
 62
     0
 10
159.782
 20
103.797
 30
0.0
 11
159.782
 21
102.796
 31
0.0
  0
LINE
  8
0
 62
     0
 10
159.782
 20
102.796
 30
0.0
 11
173.782
 21
102.796
 31
0.0
  0
LINE
  8
0
 62
     0
 10
173.782
 20
102.796
 30
0.0
 11
173.782
 21
103.797
 31
0.0
  0
LINE
  8
0
 62
     0
 10
173.782
 20
103.797
 30
0.0
 11
174.581
 21
103.797
 31
0.0
  0
LINE
  8
0
 62
     0
 10
174.581
 20
103.797
 30
0.0
 11
174.581
 21
106.896
 31
0.0
  0
LINE
  8
0
 62
     0
 10
174.581
 20
106.896
 30
0.0
 11
173.782
 21
106.896
 31
0.0
  0
LINE
  8
0
 62
     0
 10
173.782
 20
106.896
 30
0.0
 11
173.782
 21
112.696
 31
0.0
  0
LINE
  8
0
 62
     0
 10
173.782
 20
112.696
 30
0.0
 11
174.581
 21
112.696
 31
0.0
  0
LINE
  8
0
 62
     0
 10
174.581
 20
112.696
 30
0.0
 11
174.581
 21
115.796
 31
0.0
  0
LINE
  8
0
 62
     0
 10
174.581
 20
115.796
 30
0.0
 11
173.782
 21
115.796
 31
0.0
  0
LINE
  8
0
 62
     0
 10
173.782
 20
115.796
 30
0.0
 11
173.782
 21
116.796
 31
0.0
  0
LINE
  8
0
 62
     0
 10
173.782
 20
116.796
 30
0.0
 11
159.782
 21
116.796
 31
0.0
  0
LINE
  8
0
 62
     0
 10
178.832
 20
116.796
 30
0.0
 11
178.832
 21
115.796
 31
0.0
  0
LINE
  8
0
 62
     0
 10
178.832
 20
115.796
 30
0.0
 11
178.031
 21
115.796
 31
0.0
  0
LINE
  8
0
 62
     0
 10
178.031
 20
115.796
 30
0.0
 11
178.031
 21
112.696
 31
0.0
  0
LINE
  8
0
 62
     0
 10
178.031
 20
112.696
 30
0.0
 11
178.832
 21
112.696
 31
0.0
  0
LINE
  8
0
 62
     0
 10
178.832
 20
112.696
 30
0.0
 11
178.832
 21
106.896
 31
0.0
  0
LINE
  8
0
 62
     0
 10
178.832
 20
106.896
 30
0.0
 11
178.031
 21
106.896
 31
0.0
  0
LINE
  8
0
 62
     0
 10
178.031
 20
106.896
 30
0.0
 11
178.031
 21
103.797
 31
0.0
  0
LINE
  8
0
 62
     0
 10
178.031
 20
103.797
 30
0.0
 11
178.832
 21
103.797
 31
0.0
  0
LINE
  8
0
 62
     0
 10
178.832
 20
103.797
 30
0.0
 11
178.832
 21
102.796
 31
0.0
  0
LINE
  8
0
 62
     0
 10
178.832
 20
102.796
 30
0.0
 11
192.832
 21
102.796
 31
0.0
  0
LINE
  8
0
 62
     0
 10
192.832
 20
102.796
 30
0.0
 11
192.832
 21
103.797
 31
0.0
  0
LINE
  8
0
 62
     0
 10
192.832
 20
103.797
 30
0.0
 11
193.631
 21
103.797
 31
0.0
  0
LINE
  8
0
 62
     0
 10
193.631
 20
103.797
 30
0.0
 11
193.631
 21
106.896
 31
0.0
  0
LINE
  8
0
 62
     0
 10
193.631
 20
106.896
 30
0.0
 11
192.832
 21
106.896
 31
0.0
  0
LINE
  8
0
 62
     0
 10
192.832
 20
106.896
 30
0.0
 11
192.832
 21
112.696
 31
0.0
  0
LINE
  8
0
 62
     0
 10
192.832
 20
112.696
 30
0.0
 11
193.631
 21
112.696
 31
0.0
  0
LINE
  8
0
 62
     0
 10
193.631
 20
112.696
 30
0.0
 11
193.631
 21
115.796
 31
0.0
  0
LINE
  8
0
 62
     0
 10
193.631
 20
115.796
 30
0.0
 11
192.832
 21
115.796
 31
0.0
  0
LINE
  8
0
 62
     0
 10
192.832
 20
115.796
 30
0.0
 11
192.832
 21
116.796
 31
0.0
  0
LINE
  8
0
 62
     0
 10
192.832
 20
116.796
 30
0.0
 11
178.832
 21
116.796
 31
0.0
  0
LINE
  8
0
 62
     0
 10
197.882
 20
116.796
 30
0.0
 11
197.882
 21
115.796
 31
0.0
  0
LINE
  8
0
 62
     0
 10
197.882
 20
115.796
 30
0.0
 11
197.081
 21
115.796
 31
0.0
  0
LINE
  8
0
 62
     0
 10
197.081
 20
115.796
 30
0.0
 11
197.081
 21
112.696
 31
0.0
  0
LINE
  8
0
 62
     0
 10
197.081
 20
112.696
 30
0.0
 11
197.882
 21
112.696
 31
0.0
  0
LINE
  8
0
 62
     0
 10
197.882
 20
112.696
 30
0.0
 11
197.882
 21
106.896
 31
0.0
  0
LINE
  8
0
 62
     0
 10
197.882
 20
106.896
 30
0.0
 11
197.081
 21
106.896
 31
0.0
  0
LINE
  8
0
 62
     0
 10
197.081
 20
106.896
 30
0.0
 11
197.081
 21
103.797
 31
0.0
  0
LINE
  8
0
 62
     0
 10
197.081
 20
103.797
 30
0.0
 11
197.882
 21
103.797
 31
0.0
  0
LINE
  8
0
 62
     0
 10
197.882
 20
103.797
 30
0.0
 11
197.882
 21
102.796
 31
0.0
  0
LINE
  8
0
 62
     0
 10
197.882
 20
102.796
 30
0.0
 11
211.882
 21
102.796
 31
0.0
  0
LINE
  8
0
 62
     0
 10
211.882
 20
102.796
 30
0.0
 11
211.882
 21
103.797
 31
0.0
  0
LINE
  8
0
 62
     0
 10
211.882
 20
103.797
 30
0.0
 11
212.681
 21
103.797
 31
0.0
  0
LINE
  8
0
 62
     0
 10
212.681
 20
103.797
 30
0.0
 11
212.681
 21
106.896
 31
0.0
  0
LINE
  8
0
 62
     0
 10
212.681
 20
106.896
 30
0.0
 11
211.882
 21
106.896
 31
0.0
  0
LINE
  8
0
 62
     0
 10
211.882
 20
106.896
 30
0.0
 11
211.882
 21
112.696
 31
0.0
  0
LINE
  8
0
 62
     0
 10
211.882
 20
112.696
 30
0.0
 11
212.681
 21
112.696
 31
0.0
  0
LINE
  8
0
 62
     0
 10
212.681
 20
112.696
 30
0.0
 11
212.681
 21
115.796
 31
0.0
  0
LINE
  8
0
 62
     0
 10
212.681
 20
115.796
 30
0.0
 11
211.882
 21
115.796
 31
0.0
  0
LINE
  8
0
 62
     0
 10
211.882
 20
115.796
 30
0.0
 11
211.882
 21
116.796
 31
0.0
  0
LINE
  8
0
 62
     0
 10
211.882
 20
116.796
 30
0.0
 11
197.882
 21
116.796
 31
0.0
  0
LINE
  8
0
 62
     0
 10
216.932
 20
116.796
 30
0.0
 11
216.932
 21
115.796
 31
0.0
  0
LINE
  8
0
 62
     0
 10
216.932
 20
115.796
 30
0.0
 11
216.131
 21
115.796
 31
0.0
  0
LINE
  8
0
 62
     0
 10
216.131
 20
115.796
 30
0.0
 11
216.131
 21
112.696
 31
0.0
  0
LINE
  8
0
 62
     0
 10
216.131
 20
112.696
 30
0.0
 11
216.932
 21
112.696
 31
0.0
  0
LINE
  8
0
 62
     0
 10
216.932
 20
112.696
 30
0.0
 11
216.932
 21
106.896
 31
0.0
  0
LINE
  8
0
 62
     0
 10
216.932
 20
106.896
 30
0.0
 11
216.131
 21
106.896
 31
0.0
  0
LINE
  8
0
 62
     0
 10
216.131
 20
106.896
 30
0.0
 11
216.131
 21
103.797
 31
0.0
  0
LINE
  8
0
 62
     0
 10
216.131
 20
103.797
 30
0.0
 11
216.932
 21
103.797
 31
0.0
  0
LINE
  8
0
 62
     0
 10
216.932
 20
103.797
 30
0.0
 11
216.932
 21
102.796
 31
0.0
  0
LINE
  8
0
 62
     0
 10
216.932
 20
102.796
 30
0.0
 11
230.932
 21
102.796
 31
0.0
  0
LINE
  8
0
 62
     0
 10
230.932
 20
102.796
 30
0.0
 11
230.932
 21
103.797
 31
0.0
  0
LINE
  8
0
 62
     0
 10
230.932
 20
103.797
 30
0.0
 11
231.731
 21
103.797
 31
0.0
  0
LINE
  8
0
 62
     0
 10
231.731
 20
103.797
 30
0.0
 11
231.731
 21
106.896
 31
0.0
  0
LINE
  8
0
 62
     0
 10
231.731
 20
106.896
 30
0.0
 11
230.932
 21
106.896
 31
0.0
  0
LINE
  8
0
 62
     0
 10
230.932
 20
106.896
 30
0.0
 11
230.932
 21
112.696
 31
0.0
  0
LINE
  8
0
 62
     0
 10
230.932
 20
112.696
 30
0.0
 11
231.731
 21
112.696
 31
0.0
  0
LINE
  8
0
 62
     0
 10
231.731
 20
112.696
 30
0.0
 11
231.731
 21
115.796
 31
0.0
  0
LINE
  8
0
 62
     0
 10
231.731
 20
115.796
 30
0.0
 11
230.932
 21
115.796
 31
0.0
  0
LINE
  8
0
 62
     0
 10
230.932
 20
115.796
 30
0.0
 11
230.932
 21
116.796
 31
0.0
  0
LINE
  8
0
 62
     0
 10
230.932
 20
116.796
 30
0.0
 11
216.932
 21
116.796
 31
0.0
  0
LINE
  8
0
 62
     0
 10
235.982
 20
116.796
 30
0.0
 11
235.982
 21
115.796
 31
0.0
  0
LINE
  8
0
 62
     0
 10
235.982
 20
115.796
 30
0.0
 11
235.181
 21
115.796
 31
0.0
  0
LINE
  8
0
 62
     0
 10
235.181
 20
115.796
 30
0.0
 11
235.181
 21
112.696
 31
0.0
  0
LINE
  8
0
 62
     0
 10
235.181
 20
112.696
 30
0.0
 11
235.982
 21
112.696
 31
0.0
  0
LINE
  8
0
 62
     0
 10
235.982
 20
112.696
 30
0.0
 11
235.982
 21
106.896
 31
0.0
  0
LINE
  8
0
 62
     0
 10
235.982
 20
106.896
 30
0.0
 11
235.181
 21
106.896
 31
0.0
  0
LINE
  8
0
 62
     0
 10
235.181
 20
106.896
 30
0.0
 11
235.181
 21
103.797
 31
0.0
  0
LINE
  8
0
 62
     0
 10
235.181
 20
103.797
 30
0.0
 11
235.982
 21
103.797
 31
0.0
  0
LINE
  8
0
 62
     0
 10
235.982
 20
103.797
 30
0.0
 11
235.982
 21
102.796
 31
0.0
  0
LINE
  8
0
 62
     0
 10
235.982
 20
102.796
 30
0.0
 11
249.982
 21
102.796
 31
0.0
  0
LINE
  8
0
 62
     0
 10
249.982
 20
102.796
 30
0.0
 11
249.982
 21
103.797
 31
0.0
  0
LINE
  8
0
 62
     0
 10
249.982
 20
103.797
 30
0.0
 11
250.781
 21
103.797
 31
0.0
  0
LINE
  8
0
 62
     0
 10
250.781
 20
103.797
 30
0.0
 11
250.781
 21
106.896
 31
0.0
  0
LINE
  8
0
 62
     0
 10
250.781
 20
106.896
 30
0.0
 11
249.982
 21
106.896
 31
0.0
  0
LINE
  8
0
 62
     0
 10
249.982
 20
106.896
 30
0.0
 11
249.982
 21
112.696
 31
0.0
  0
LINE
  8
0
 62
     0
 10
249.982
 20
112.696
 30
0.0
 11
250.781
 21
112.696
 31
0.0
  0
LINE
  8
0
 62
     0
 10
250.781
 20
112.696
 30
0.0
 11
250.781
 21
115.796
 31
0.0
  0
LINE
  8
0
 62
     0
 10
250.781
 20
115.796
 30
0.0
 11
249.982
 21
115.796
 31
0.0
  0
LINE
  8
0
 62
     0
 10
249.982
 20
115.796
 30
0.0
 11
249.982
 21
116.796
 31
0.0
  0
LINE
  8
0
 62
     0
 10
249.982
 20
116.796
 30
0.0
 11
235.982
 21
116.796
 31
0.0
  0
LINE
  8
0
 62
     0
 10
255.032
 20
116.796
 30
0.0
 11
255.032
 21
115.796
 31
0.0
  0
LINE
  8
0
 62
     0
 10
255.032
 20
115.796
 30
0.0
 11
254.231
 21
115.796
 31
0.0
  0
LINE
  8
0
 62
     0
 10
254.231
 20
115.796
 30
0.0
 11
254.231
 21
112.696
 31
0.0
  0
LINE
  8
0
 62
     0
 10
254.231
 20
112.696
 30
0.0
 11
255.032
 21
112.696
 31
0.0
  0
LINE
  8
0
 62
     0
 10
255.032
 20
112.696
 30
0.0
 11
255.032
 21
106.896
 31
0.0
  0
LINE
  8
0
 62
     0
 10
255.032
 20
106.896
 30
0.0
 11
254.231
 21
106.896
 31
0.0
  0
LINE
  8
0
 62
     0
 10
254.231
 20
106.896
 30
0.0
 11
254.231
 21
103.797
 31
0.0
  0
LINE
  8
0
 62
     0
 10
254.231
 20
103.797
 30
0.0
 11
255.032
 21
103.797
 31
0.0
  0
LINE
  8
0
 62
     0
 10
255.032
 20
103.797
 30
0.0
 11
255.032
 21
102.796
 31
0.0
  0
LINE
  8
0
 62
     0
 10
255.032
 20
102.796
 30
0.0
 11
269.032
 21
102.796
 31
0.0
  0
LINE
  8
0
 62
     0
 10
269.032
 20
102.796
 30
0.0
 11
269.032
 21
103.797
 31
0.0
  0
LINE
  8
0
 62
     0
 10
269.032
 20
103.797
 30
0.0
 11
269.831
 21
103.797
 31
0.0
  0
LINE
  8
0
 62
     0
 10
269.831
 20
103.797
 30
0.0
 11
269.831
 21
106.896
 31
0.0
  0
LINE
  8
0
 62
     0
 10
269.831
 20
106.896
 30
0.0
 11
269.032
 21
106.896
 31
0.0
  0
LINE
  8
0
 62
     0
 10
269.032
 20
106.896
 30
0.0
 11
269.032
 21
112.696
 31
0.0
  0
LINE
  8
0
 62
     0
 10
269.032
 20
112.696
 30
0.0
 11
269.831
 21
112.696
 31
0.0
  0
LINE
  8
0
 62
     0
 10
269.831
 20
112.696
 30
0.0
 11
269.831
 21
115.796
 31
0.0
  0
LINE
  8
0
 62
     0
 10
269.831
 20
115.796
 30
0.0
 11
269.032
 21
115.796
 31
0.0
  0
LINE
  8
0
 62
     0
 10
269.032
 20
115.796
 30
0.0
 11
269.032
 21
116.796
 31
0.0
  0
LINE
  8
0
 62
     0
 10
269.032
 20
116.796
 30
0.0
 11
255.032
 21
116.796
 31
0.0
  0
LINE
  8
0
 62
     0
 10
274.082
 20
116.796
 30
0.0
 11
274.082
 21
115.796
 31
0.0
  0
LINE
  8
0
 62
     0
 10
274.082
 20
115.796
 30
0.0
 11
273.281
 21
115.796
 31
0.0
  0
LINE
  8
0
 62
     0
 10
273.281
 20
115.796
 30
0.0
 11
273.281
 21
112.696
 31
0.0
  0
LINE
  8
0
 62
     0
 10
273.281
 20
112.696
 30
0.0
 11
274.082
 21
112.696
 31
0.0
  0
LINE
  8
0
 62
     0
 10
274.082
 20
112.696
 30
0.0
 11
274.082
 21
106.896
 31
0.0
  0
LINE
  8
0
 62
     0
 10
274.082
 20
106.896
 30
0.0
 11
273.281
 21
106.896
 31
0.0
  0
LINE
  8
0
 62
     0
 10
273.281
 20
106.896
 30
0.0
 11
273.281
 21
103.797
 31
0.0
  0
LINE
  8
0
 62
     0
 10
273.281
 20
103.797
 30
0.0
 11
274.082
 21
103.797
 31
0.0
  0
LINE
  8
0
 62
     0
 10
274.082
 20
103.797
 30
0.0
 11
274.082
 21
102.796
 31
0.0
  0
LINE
  8
0
 62
     0
 10
274.082
 20
102.796
 30
0.0
 11
288.082
 21
102.796
 31
0.0
  0
LINE
  8
0
 62
     0
 10
288.082
 20
102.796
 30
0.0
 11
288.082
 21
103.797
 31
0.0
  0
LINE
  8
0
 62
     0
 10
288.082
 20
103.797
 30
0.0
 11
288.881
 21
103.797
 31
0.0
  0
LINE
  8
0
 62
     0
 10
288.881
 20
103.797
 30
0.0
 11
288.881
 21
106.896
 31
0.0
  0
LINE
  8
0
 62
     0
 10
288.881
 20
106.896
 30
0.0
 11
288.082
 21
106.896
 31
0.0
  0
LINE
  8
0
 62
     0
 10
288.082
 20
106.896
 30
0.0
 11
288.082
 21
112.696
 31
0.0
  0
LINE
  8
0
 62
     0
 10
288.082
 20
112.696
 30
0.0
 11
288.881
 21
112.696
 31
0.0
  0
LINE
  8
0
 62
     0
 10
288.881
 20
112.696
 30
0.0
 11
288.881
 21
115.796
 31
0.0
  0
LINE
  8
0
 62
     0
 10
288.881
 20
115.796
 30
0.0
 11
288.082
 21
115.796
 31
0.0
  0
LINE
  8
0
 62
     0
 10
288.082
 20
115.796
 30
0.0
 11
288.082
 21
116.796
 31
0.0
  0
LINE
  8
0
 62
     0
 10
288.082
 20
116.796
 30
0.0
 11
274.082
 21
116.796
 31
0.0
  0
ENDSEC
  0
EOF
