<?xml version="1.0"?>
<!-- Generated by SVGo -->
<svg width="305.277mm" height="162.364mm"
     viewBox="0.000 0.000 305.277 162.364"
     xmlns="http://www.w3.org/2000/svg" 
     xmlns:xlink="http://www.w3.org/1999/xlink">
<polygon points="300.277,157.364 5.000,157.364 5.000,5.000 300.277,5.000" style="fill:none;stroke-width:0.050000mm;stroke:black"/>
<polygon points="152.781,136.075 152.781,140.774 113.156,140.774 113.156,137.545 106.406,137.545 106.406,140.774 105.581,140.774 105.581,143.575 106.406,143.575 106.406,149.845 108.131,149.845 108.131,151.045 111.431,151.045 111.431,149.845 113.156,149.845 113.156,145.375 152.781,145.375 152.781,150.075 166.781,150.075 166.781,145.375 206.406,145.375 206.406,149.845 208.131,149.845 208.131,151.045 211.431,151.045 211.431,149.845 213.156,149.845 213.156,143.575 213.981,143.575 213.981,140.774 213.156,140.774 213.156,137.545 206.406,137.545 206.406,140.774 166.781,140.774 166.781,136.075" style="fill:none;stroke-width:0.050000mm;stroke:black"/>
<polygon points="14.669,136.075 14.669,150.075 28.669,150.075 28.669,136.075" style="fill:none;stroke-width:0.050000mm;stroke:black"/>
<polygon points="38.481,136.075 38.481,150.075 52.481,150.075 52.481,136.075" style="fill:none;stroke-width:0.050000mm;stroke:black"/>
<polygon points="62.294,136.075 62.294,150.075 76.294,150.075 76.294,136.075" style="fill:none;stroke-width:0.050000mm;stroke:black"/>
<polygon points="83.725,136.075 83.725,150.075 97.725,150.075 97.725,136.075" style="fill:none;stroke-width:0.050000mm;stroke:black"/>
<polygon points="221.838,136.075 221.838,150.075 235.838,150.075 235.838,136.075" style="fill:none;stroke-width:0.050000mm;stroke:black"/>
<polygon points="240.888,136.075 240.888,150.075 254.888,150.075 254.888,136.075" style="fill:none;stroke-width:0.050000mm;stroke:black"/>
<polygon points="259.938,136.075 259.938,150.075 273.938,150.075 273.938,136.075" style="fill:none;stroke-width:0.050000mm;stroke:black"/>
<polygon points="278.988,136.075 278.988,150.075 292.988,150.075 292.988,136.075" style="fill:none;stroke-width:0.050000mm;stroke:black"/>
<polygon points="24.194,117.024 24.194,121.725 22.669,121.725 22.669,118.494 15.919,118.494 15.919,121.725 15.094,121.725 15.094,124.524 15.919,124.524 15.919,130.794 17.644,130.794 17.644,131.995 20.944,131.995 20.944,130.794 22.669,130.794 22.669,126.324 24.194,126.324 24.194,131.024 38.194,131.024 38.194,126.324 39.719,126.324 39.719,130.794 41.444,130.794 41.444,131.995 44.744,131.995 44.744,130.794 46.469,130.794 46.469,124.524 47.294,124.524 47.294,121.725 46.469,121.725 46.469,118.494 39.719,118.494 39.719,121.725 38.194,121.725 38.194,117.024" style="fill:none;stroke-width:0.050000mm;stroke:black"/>
<polygon points="262.319,117.024 262.319,121.725 260.793,121.725 260.793,118.494 254.044,118.494 254.044,121.725 253.219,121.725 253.219,124.524 254.044,124.524 254.044,130.794 255.769,130.794 255.769,131.995 259.069,131.995 259.069,130.794 260.793,130.794 260.793,126.324 262.319,126.324 262.319,131.024 276.319,131.024 276.319,126.324 277.844,126.324 277.844,130.794 279.569,130.794 279.569,131.995 282.869,131.995 282.869,130.794 284.594,130.794 284.594,124.524 285.419,124.524 285.419,121.725 284.594,121.725 284.594,118.494 277.844,118.494 277.844,121.725 276.319,121.725 276.319,117.024" style="fill:none;stroke-width:0.050000mm;stroke:black"/>
<polygon points="55.150,117.024 55.150,131.024 69.150,131.024 69.150,117.024" style="fill:none;stroke-width:0.050000mm;stroke:black"/>
<polygon points="74.200,117.024 74.200,131.024 88.200,131.024 88.200,117.024" style="fill:none;stroke-width:0.050000mm;stroke:black"/>
<polygon points="93.250,117.024 93.250,131.024 107.250,131.024 107.250,117.024" style="fill:none;stroke-width:0.050000mm;stroke:black"/>
<polygon points="112.300,117.024 112.300,131.024 126.300,131.024 126.300,117.024" style="fill:none;stroke-width:0.050000mm;stroke:black"/>
<polygon points="131.350,117.024 131.350,131.024 145.350,131.024 145.350,117.024" style="fill:none;stroke-width:0.050000mm;stroke:black"/>
<polygon points="150.400,117.024 150.400,131.024 164.400,131.024 164.400,117.024" style="fill:none;stroke-width:0.050000mm;stroke:black"/>
<polygon points="169.450,117.024 169.450,131.024 183.450,131.024 183.450,117.024" style="fill:none;stroke-width:0.050000mm;stroke:black"/>
<polygon points="188.500,117.024 188.500,131.024 202.500,131.024 202.500,117.024" style="fill:none;stroke-width:0.050000mm;stroke:black"/>
<polygon points="207.550,117.024 207.550,131.024 221.550,131.024 221.550,117.024" style="fill:none;stroke-width:0.050000mm;stroke:black"/>
<polygon points="226.600,117.024 226.600,131.024 240.600,131.024 240.600,117.024" style="fill:none;stroke-width:0.050000mm;stroke:black"/>
<polygon points="267.081,97.975 267.081,102.675 265.556,102.675 265.556,99.445 258.805,99.445 258.805,102.675 257.981,102.675 257.981,105.475 258.805,105.475 258.805,111.744 260.531,111.744 260.531,112.945 263.831,112.945 263.831,111.744 265.556,111.744 265.556,107.274 267.081,107.274 267.081,111.975 281.081,111.975 281.081,107.274 282.606,107.274 282.606,111.744 284.331,111.744 284.331,112.945 287.631,112.945 287.631,111.744 289.356,111.744 289.356,105.475 290.181,105.475 290.181,102.675 289.356,102.675 289.356,99.445 282.606,99.445 282.606,102.675 281.081,102.675 281.081,97.975" style="fill:none;stroke-width:0.050000mm;stroke:black"/>
<polygon points="19.431,97.975 19.431,111.975 33.431,111.975 33.431,97.975" style="fill:none;stroke-width:0.050000mm;stroke:black"/>
<polygon points="45.625,97.975 45.625,111.975 59.625,111.975 59.625,97.975" style="fill:none;stroke-width:0.050000mm;stroke:black"/>
<polygon points="64.675,97.975 64.675,111.975 78.675,111.975 78.675,97.975" style="fill:none;stroke-width:0.050000mm;stroke:black"/>
<polygon points="83.725,97.975 83.725,111.975 97.725,111.975 97.725,97.975" style="fill:none;stroke-width:0.050000mm;stroke:black"/>
<polygon points="102.775,97.975 102.775,111.975 116.775,111.975 116.775,97.975" style="fill:none;stroke-width:0.050000mm;stroke:black"/>
<polygon points="121.825,97.975 121.825,111.975 135.825,111.975 135.825,97.975" style="fill:none;stroke-width:0.050000mm;stroke:black"/>
<polygon points="140.875,97.975 140.875,111.975 154.875,111.975 154.875,97.975" style="fill:none;stroke-width:0.050000mm;stroke:black"/>
<polygon points="159.925,97.975 159.925,111.975 173.925,111.975 173.925,97.975" style="fill:none;stroke-width:0.050000mm;stroke:black"/>
<polygon points="178.975,97.975 178.975,111.975 192.975,111.975 192.975,97.975" style="fill:none;stroke-width:0.050000mm;stroke:black"/>
<polygon points="198.025,97.975 198.025,111.975 212.025,111.975 212.025,97.975" style="fill:none;stroke-width:0.050000mm;stroke:black"/>
<polygon points="217.075,97.975 217.075,111.975 231.075,111.975 231.075,97.975" style="fill:none;stroke-width:0.050000mm;stroke:black"/>
<polygon points="236.125,97.975 236.125,111.975 250.125,111.975 250.125,97.975" style="fill:none;stroke-width:0.050000mm;stroke:black"/>
<polygon points="17.050,78.925 17.050,92.925 31.050,92.925 31.050,78.925" style="fill:none;stroke-width:0.050000mm;stroke:black"/>
<polygon points="40.863,78.925 40.863,92.925 54.863,92.925 54.863,78.925" style="fill:none;stroke-width:0.050000mm;stroke:black"/>
<polygon points="59.913,78.925 59.913,92.925 73.913,92.925 73.913,78.925" style="fill:none;stroke-width:0.050000mm;stroke:black"/>
<polygon points="78.963,78.925 78.963,92.925 92.963,92.925 92.963,78.925" style="fill:none;stroke-width:0.050000mm;stroke:black"/>
<polygon points="98.012,78.925 98.012,92.925 112.012,92.925 112.012,78.925" style="fill:none;stroke-width:0.050000mm;stroke:black"/>
<polygon points="117.062,78.925 117.062,92.925 131.062,92.925 131.062,78.925" style="fill:none;stroke-width:0.050000mm;stroke:black"/>
<polygon points="136.113,78.925 136.113,92.925 150.113,92.925 150.113,78.925" style="fill:none;stroke-width:0.050000mm;stroke:black"/>
<polygon points="155.163,78.925 155.163,92.925 169.163,92.925 169.163,78.925" style="fill:none;stroke-width:0.050000mm;stroke:black"/>
<polygon points="174.213,78.925 174.213,92.925 188.213,92.925 188.213,78.925" style="fill:none;stroke-width:0.050000mm;stroke:black"/>
<polygon points="193.263,78.925 193.263,92.925 207.263,92.925 207.263,78.925" style="fill:none;stroke-width:0.050000mm;stroke:black"/>
<polygon points="212.313,78.925 212.313,92.925 226.313,92.925 226.313,78.925" style="fill:none;stroke-width:0.050000mm;stroke:black"/>
<polygon points="231.363,78.925 231.363,92.925 245.363,92.925 245.363,78.925" style="fill:none;stroke-width:0.050000mm;stroke:black"/>
<polygon points="250.413,78.925 250.413,92.925 264.413,92.925 264.413,78.925" style="fill:none;stroke-width:0.050000mm;stroke:black"/>
<polygon points="274.225,78.925 274.225,92.925 288.225,92.925 288.225,78.925" style="fill:none;stroke-width:0.050000mm;stroke:black"/>
<polygon points="269.463,59.875 269.463,64.575 267.938,64.575 267.938,61.345 261.188,61.345 261.188,64.575 260.363,64.575 260.363,67.375 261.188,67.375 261.188,73.645 262.913,73.645 262.913,74.845 266.213,74.845 266.213,73.645 267.938,73.645 267.938,69.175 269.463,69.175 269.463,73.875 283.463,73.875 283.463,69.175 284.988,69.175 284.988,73.645 286.713,73.645 286.713,74.845 290.013,74.845 290.013,73.645 291.738,73.645 291.738,67.375 292.563,67.375 292.563,64.575 291.738,64.575 291.738,61.345 284.988,61.345 284.988,64.575 283.463,64.575 283.463,59.875" style="fill:none;stroke-width:0.050000mm;stroke:black"/>
<polygon points="12.288,59.875 12.288,73.875 26.288,73.875 26.288,59.875" style="fill:none;stroke-width:0.050000mm;stroke:black"/>
<polygon points="31.338,59.875 31.338,73.875 45.338,73.875 45.338,59.875" style="fill:none;stroke-width:0.050000mm;stroke:black"/>
<polygon points="50.388,59.875 50.388,73.875 64.388,73.875 64.388,59.875" style="fill:none;stroke-width:0.050000mm;stroke:black"/>
<polygon points="69.438,59.875 69.438,73.875 83.438,73.875 83.438,59.875" style="fill:none;stroke-width:0.050000mm;stroke:black"/>
<polygon points="88.488,59.875 88.488,73.875 102.488,73.875 102.488,59.875" style="fill:none;stroke-width:0.050000mm;stroke:black"/>
<polygon points="107.538,59.875 107.538,73.875 121.538,73.875 121.538,59.875" style="fill:none;stroke-width:0.050000mm;stroke:black"/>
<polygon points="126.588,59.875 126.588,73.875 140.588,73.875 140.588,59.875" style="fill:none;stroke-width:0.050000mm;stroke:black"/>
<polygon points="145.638,59.875 145.638,73.875 159.638,73.875 159.638,59.875" style="fill:none;stroke-width:0.050000mm;stroke:black"/>
<polygon points="164.688,59.875 164.688,73.875 178.688,73.875 178.688,59.875" style="fill:none;stroke-width:0.050000mm;stroke:black"/>
<polygon points="183.738,59.875 183.738,73.875 197.738,73.875 197.738,59.875" style="fill:none;stroke-width:0.050000mm;stroke:black"/>
<polygon points="202.788,59.875 202.788,73.875 216.788,73.875 216.788,59.875" style="fill:none;stroke-width:0.050000mm;stroke:black"/>
<polygon points="221.838,59.875 221.838,73.875 235.838,73.875 235.838,59.875" style="fill:none;stroke-width:0.050000mm;stroke:black"/>
<polygon points="240.888,59.875 240.888,73.875 254.888,73.875 254.888,59.875" style="fill:none;stroke-width:0.050000mm;stroke:black"/>
<polygon points="12.288,40.824 12.288,54.824 26.288,54.824 26.288,40.824" style="fill:none;stroke-width:0.050000mm;stroke:black"/>
<polygon points="31.338,40.824 31.338,54.824 45.338,54.824 45.338,40.824" style="fill:none;stroke-width:0.050000mm;stroke:black"/>
<polygon points="50.388,40.824 50.388,54.824 64.388,54.824 64.388,40.824" style="fill:none;stroke-width:0.050000mm;stroke:black"/>
<polygon points="69.438,40.824 69.438,54.824 83.438,54.824 83.438,40.824" style="fill:none;stroke-width:0.050000mm;stroke:black"/>
<polygon points="88.488,40.824 88.488,54.824 102.488,54.824 102.488,40.824" style="fill:none;stroke-width:0.050000mm;stroke:black"/>
<polygon points="107.538,40.824 107.538,54.824 121.538,54.824 121.538,40.824" style="fill:none;stroke-width:0.050000mm;stroke:black"/>
<polygon points="126.588,40.824 126.588,54.824 140.588,54.824 140.588,40.824" style="fill:none;stroke-width:0.050000mm;stroke:black"/>
<polygon points="145.638,40.824 145.638,54.824 159.638,54.824 159.638,40.824" style="fill:none;stroke-width:0.050000mm;stroke:black"/>
<polygon points="164.688,40.824 164.688,54.824 178.688,54.824 178.688,40.824" style="fill:none;stroke-width:0.050000mm;stroke:black"/>
<polygon points="183.738,40.824 183.738,54.824 197.738,54.824 197.738,40.824" style="fill:none;stroke-width:0.050000mm;stroke:black"/>
<polygon points="202.788,40.824 202.788,54.824 216.788,54.824 216.788,40.824" style="fill:none;stroke-width:0.050000mm;stroke:black"/>
<polygon points="221.838,40.824 221.838,54.824 235.838,54.824 235.838,40.824" style="fill:none;stroke-width:0.050000mm;stroke:black"/>
<polygon points="240.888,40.824 240.888,54.824 254.888,54.824 254.888,40.824" style="fill:none;stroke-width:0.050000mm;stroke:black"/>
<polygon points="259.938,40.824 259.938,54.824 273.938,54.824 273.938,40.824" style="fill:none;stroke-width:0.050000mm;stroke:black"/>
<polygon points="278.988,40.824 278.988,54.824 292.988,54.824 292.988,40.824" style="fill:none;stroke-width:0.050000mm;stroke:black"/>
</svg>
