<?xml version="1.0"?>
<!-- Generated by SVGo -->
<svg width="305.276mm" height="133.826mm"
     viewBox="0.000 0.000 305.276 133.826"
     xmlns="http://www.w3.org/2000/svg" 
     xmlns:xlink="http://www.w3.org/1999/xlink">
<polygon points="300.276,128.826 5.000,128.826 5.000,5.000 300.276,5.000" style="fill:none;stroke-width:0.050000mm;stroke:black"/>
<polygon points="152.781,107.537 152.781,108.537 151.981,108.537 151.981,111.637 152.781,111.637 152.781,112.237 113.156,112.237 113.156,109.007 111.431,109.007 111.431,108.087 108.131,108.087 108.131,109.007 106.406,109.007 106.406,112.237 105.581,112.237 105.581,115.037 106.406,115.037 106.406,121.307 108.131,121.307 108.131,122.287 111.431,122.287 111.431,121.307 113.156,121.307 113.156,116.837 152.781,116.837 152.781,117.437 151.981,117.437 151.981,120.537 152.781,120.537 152.781,121.537 166.781,121.537 166.781,120.537 167.581,120.537 167.581,117.437 166.781,117.437 166.781,116.837 206.406,116.837 206.406,121.307 208.131,121.307 208.131,122.287 211.431,122.287 211.431,121.307 213.156,121.307 213.156,115.037 213.981,115.037 213.981,112.237 213.156,112.237 213.156,109.007 211.431,109.007 211.431,108.087 208.131,108.087 208.131,109.007 206.406,109.007 206.406,112.237 166.781,112.237 166.781,111.637 167.581,111.637 167.581,108.537 166.781,108.537 166.781,107.537" style="fill:none;stroke-width:0.050000mm;stroke:black"/>
<polygon points="14.668,107.537 14.668,108.537 13.868,108.537 13.868,111.637 14.668,111.637 14.668,117.437 13.868,117.437 13.868,120.537 14.668,120.537 14.668,121.537 28.668,121.537 28.668,120.537 29.468,120.537 29.468,117.437 28.668,117.437 28.668,111.637 29.468,111.637 29.468,108.537 28.668,108.537 28.668,107.537" style="fill:none;stroke-width:0.050000mm;stroke:black"/>
<polygon points="38.481,107.537 38.481,108.537 37.681,108.537 37.681,111.637 38.481,111.637 38.481,117.437 37.681,117.437 37.681,120.537 38.481,120.537 38.481,121.537 52.481,121.537 52.481,120.537 53.281,120.537 53.281,117.437 52.481,117.437 52.481,111.637 53.281,111.637 53.281,108.537 52.481,108.537 52.481,107.537" style="fill:none;stroke-width:0.050000mm;stroke:black"/>
<polygon points="62.293,107.537 62.293,108.537 61.493,108.537 61.493,111.637 62.293,111.637 62.293,117.437 61.493,117.437 61.493,120.537 62.293,120.537 62.293,121.537 76.293,121.537 76.293,120.537 77.093,120.537 77.093,117.437 76.293,117.437 76.293,111.637 77.093,111.637 77.093,108.537 76.293,108.537 76.293,107.537" style="fill:none;stroke-width:0.050000mm;stroke:black"/>
<polygon points="83.725,107.537 83.725,108.537 82.925,108.537 82.925,111.637 83.725,111.637 83.725,117.437 82.925,117.437 82.925,120.537 83.725,120.537 83.725,121.537 97.725,121.537 97.725,120.537 98.524,120.537 98.524,117.437 97.725,117.437 97.725,111.637 98.524,111.637 98.524,108.537 97.725,108.537 97.725,107.537" style="fill:none;stroke-width:0.050000mm;stroke:black"/>
<polygon points="221.837,107.537 221.837,108.537 221.037,108.537 221.037,111.637 221.837,111.637 221.837,117.437 221.037,117.437 221.037,120.537 221.837,120.537 221.837,121.537 235.837,121.537 235.837,120.537 236.637,120.537 236.637,117.437 235.837,117.437 235.837,111.637 236.637,111.637 236.637,108.537 235.837,108.537 235.837,107.537" style="fill:none;stroke-width:0.050000mm;stroke:black"/>
<polygon points="240.887,107.537 240.887,108.537 240.087,108.537 240.087,111.637 240.887,111.637 240.887,117.437 240.087,117.437 240.087,120.537 240.887,120.537 240.887,121.537 254.887,121.537 254.887,120.537 255.687,120.537 255.687,117.437 254.887,117.437 254.887,111.637 255.687,111.637 255.687,108.537 254.887,108.537 254.887,107.537" style="fill:none;stroke-width:0.050000mm;stroke:black"/>
<polygon points="259.937,107.537 259.937,108.537 259.137,108.537 259.137,111.637 259.937,111.637 259.937,117.437 259.137,117.437 259.137,120.537 259.937,120.537 259.937,121.537 273.937,121.537 273.937,120.537 274.737,120.537 274.737,117.437 273.937,117.437 273.937,111.637 274.737,111.637 274.737,108.537 273.937,108.537 273.937,107.537" style="fill:none;stroke-width:0.050000mm;stroke:black"/>
<polygon points="278.987,107.537 278.987,108.537 278.187,108.537 278.187,111.637 278.987,111.637 278.987,117.437 278.187,117.437 278.187,120.537 278.987,120.537 278.987,121.537 292.987,121.537 292.987,120.537 293.787,120.537 293.787,117.437 292.987,117.437 292.987,111.637 293.787,111.637 293.787,108.537 292.987,108.537 292.987,107.537" style="fill:none;stroke-width:0.050000mm;stroke:black"/>
<polygon points="24.193,88.487 24.193,89.487 23.393,89.487 23.393,92.587 24.193,92.587 24.193,93.187 22.668,93.187 22.668,89.957 20.943,89.957 20.943,89.037 17.643,89.037 17.643,89.957 15.918,89.957 15.918,93.187 15.093,93.187 15.093,95.987 15.918,95.987 15.918,102.257 17.643,102.257 17.643,103.237 20.943,103.237 20.943,102.257 22.668,102.257 22.668,97.787 24.193,97.787 24.193,98.387 23.393,98.387 23.393,101.487 24.193,101.487 24.193,102.487 38.193,102.487 38.193,101.487 38.993,101.487 38.993,98.387 38.193,98.387 38.193,97.787 39.718,97.787 39.718,102.257 41.443,102.257 41.443,103.237 44.743,103.237 44.743,102.257 46.468,102.257 46.468,95.987 47.293,95.987 47.293,93.187 46.468,93.187 46.468,89.957 44.743,89.957 44.743,89.037 41.443,89.037 41.443,89.957 39.718,89.957 39.718,93.187 38.193,93.187 38.193,92.587 38.993,92.587 38.993,89.487 38.193,89.487 38.193,88.487" style="fill:none;stroke-width:0.050000mm;stroke:black"/>
<polygon points="262.318,88.487 262.318,89.487 261.517,89.487 261.517,92.587 262.318,92.587 262.318,93.187 260.793,93.187 260.793,89.957 259.067,89.957 259.067,89.037 255.768,89.037 255.768,89.957 254.043,89.957 254.043,93.187 253.218,93.187 253.218,95.987 254.043,95.987 254.043,102.257 255.768,102.257 255.768,103.237 259.067,103.237 259.067,102.257 260.793,102.257 260.793,97.787 262.318,97.787 262.318,98.387 261.517,98.387 261.517,101.487 262.318,101.487 262.318,102.487 276.318,102.487 276.318,101.487 277.118,101.487 277.118,98.387 276.318,98.387 276.318,97.787 277.843,97.787 277.843,102.257 279.568,102.257 279.568,103.237 282.868,103.237 282.868,102.257 284.593,102.257 284.593,95.987 285.418,95.987 285.418,93.187 284.593,93.187 284.593,89.957 282.868,89.957 282.868,89.037 279.568,89.037 279.568,89.957 277.843,89.957 277.843,93.187 276.318,93.187 276.318,92.587 277.118,92.587 277.118,89.487 276.318,89.487 276.318,88.487" style="fill:none;stroke-width:0.050000mm;stroke:black"/>
<polygon points="55.150,88.487 55.150,89.487 54.350,89.487 54.350,92.587 55.150,92.587 55.150,98.387 54.350,98.387 54.350,101.487 55.150,101.487 55.150,102.487 69.150,102.487 69.150,101.487 69.950,101.487 69.950,98.387 69.150,98.387 69.150,92.587 69.950,92.587 69.950,89.487 69.150,89.487 69.150,88.487" style="fill:none;stroke-width:0.050000mm;stroke:black"/>
<polygon points="74.200,88.487 74.200,89.487 73.400,89.487 73.400,92.587 74.200,92.587 74.200,98.387 73.400,98.387 73.400,101.487 74.200,101.487 74.200,102.487 88.200,102.487 88.200,101.487 89.000,101.487 89.000,98.387 88.200,98.387 88.200,92.587 89.000,92.587 89.000,89.487 88.200,89.487 88.200,88.487" style="fill:none;stroke-width:0.050000mm;stroke:black"/>
<polygon points="93.250,88.487 93.250,89.487 92.450,89.487 92.450,92.587 93.250,92.587 93.250,98.387 92.450,98.387 92.450,101.487 93.250,101.487 93.250,102.487 107.250,102.487 107.250,101.487 108.050,101.487 108.050,98.387 107.250,98.387 107.250,92.587 108.050,92.587 108.050,89.487 107.250,89.487 107.250,88.487" style="fill:none;stroke-width:0.050000mm;stroke:black"/>
<polygon points="112.300,88.487 112.300,89.487 111.500,89.487 111.500,92.587 112.300,92.587 112.300,98.387 111.500,98.387 111.500,101.487 112.300,101.487 112.300,102.487 126.300,102.487 126.300,101.487 127.100,101.487 127.100,98.387 126.300,98.387 126.300,92.587 127.100,92.587 127.100,89.487 126.300,89.487 126.300,88.487" style="fill:none;stroke-width:0.050000mm;stroke:black"/>
<polygon points="131.350,88.487 131.350,89.487 130.549,89.487 130.549,92.587 131.350,92.587 131.350,98.387 130.549,98.387 130.549,101.487 131.350,101.487 131.350,102.487 145.350,102.487 145.350,101.487 146.150,101.487 146.150,98.387 145.350,98.387 145.350,92.587 146.150,92.587 146.150,89.487 145.350,89.487 145.350,88.487" style="fill:none;stroke-width:0.050000mm;stroke:black"/>
<polygon points="150.400,88.487 150.400,89.487 149.600,89.487 149.600,92.587 150.400,92.587 150.400,98.387 149.600,98.387 149.600,101.487 150.400,101.487 150.400,102.487 164.400,102.487 164.400,101.487 165.200,101.487 165.200,98.387 164.400,98.387 164.400,92.587 165.200,92.587 165.200,89.487 164.400,89.487 164.400,88.487" style="fill:none;stroke-width:0.050000mm;stroke:black"/>
<polygon points="169.450,88.487 169.450,89.487 168.650,89.487 168.650,92.587 169.450,92.587 169.450,98.387 168.650,98.387 168.650,101.487 169.450,101.487 169.450,102.487 183.450,102.487 183.450,101.487 184.250,101.487 184.250,98.387 183.450,98.387 183.450,92.587 184.250,92.587 184.250,89.487 183.450,89.487 183.450,88.487" style="fill:none;stroke-width:0.050000mm;stroke:black"/>
<polygon points="188.500,88.487 188.500,89.487 187.700,89.487 187.700,92.587 188.500,92.587 188.500,98.387 187.700,98.387 187.700,101.487 188.500,101.487 188.500,102.487 202.500,102.487 202.500,101.487 203.300,101.487 203.300,98.387 202.500,98.387 202.500,92.587 203.300,92.587 203.300,89.487 202.500,89.487 202.500,88.487" style="fill:none;stroke-width:0.050000mm;stroke:black"/>
<polygon points="207.550,88.487 207.550,89.487 206.750,89.487 206.750,92.587 207.550,92.587 207.550,98.387 206.750,98.387 206.750,101.487 207.550,101.487 207.550,102.487 221.550,102.487 221.550,101.487 222.350,101.487 222.350,98.387 221.550,98.387 221.550,92.587 222.350,92.587 222.350,89.487 221.550,89.487 221.550,88.487" style="fill:none;stroke-width:0.050000mm;stroke:black"/>
<polygon points="226.600,88.487 226.600,89.487 225.800,89.487 225.800,92.587 226.600,92.587 226.600,98.387 225.800,98.387 225.800,101.487 226.600,101.487 226.600,102.487 240.600,102.487 240.600,101.487 241.400,101.487 241.400,98.387 240.600,98.387 240.600,92.587 241.400,92.587 241.400,89.487 240.600,89.487 240.600,88.487" style="fill:none;stroke-width:0.050000mm;stroke:black"/>
<polygon points="267.081,69.437 267.081,70.437 266.281,70.437 266.281,73.537 267.081,73.537 267.081,74.137 265.556,74.137 265.556,70.907 263.831,70.907 263.831,69.987 260.531,69.987 260.531,70.907 258.805,70.907 258.805,74.137 257.981,74.137 257.981,76.937 258.805,76.937 258.805,83.207 260.531,83.207 260.531,84.187 263.831,84.187 263.831,83.207 265.556,83.207 265.556,78.737 267.081,78.737 267.081,79.337 266.281,79.337 266.281,82.437 267.081,82.437 267.081,83.437 281.081,83.437 281.081,82.437 281.881,82.437 281.881,79.337 281.081,79.337 281.081,78.737 282.606,78.737 282.606,83.207 284.331,83.207 284.331,84.187 287.631,84.187 287.631,83.207 289.356,83.207 289.356,76.937 290.181,76.937 290.181,74.137 289.356,74.137 289.356,70.907 287.631,70.907 287.631,69.987 284.331,69.987 284.331,70.907 282.606,70.907 282.606,74.137 281.081,74.137 281.081,73.537 281.881,73.537 281.881,70.437 281.081,70.437 281.081,69.437" style="fill:none;stroke-width:0.050000mm;stroke:black"/>
<polygon points="19.431,69.437 19.431,70.437 18.631,70.437 18.631,73.537 19.431,73.537 19.431,79.337 18.631,79.337 18.631,82.437 19.431,82.437 19.431,83.437 33.431,83.437 33.431,82.437 34.231,82.437 34.231,79.337 33.431,79.337 33.431,73.537 34.231,73.537 34.231,70.437 33.431,70.437 33.431,69.437" style="fill:none;stroke-width:0.050000mm;stroke:black"/>
<polygon points="45.625,69.437 45.625,70.437 44.825,70.437 44.825,73.537 45.625,73.537 45.625,79.337 44.825,79.337 44.825,82.437 45.625,82.437 45.625,83.437 59.625,83.437 59.625,82.437 60.425,82.437 60.425,79.337 59.625,79.337 59.625,73.537 60.425,73.537 60.425,70.437 59.625,70.437 59.625,69.437" style="fill:none;stroke-width:0.050000mm;stroke:black"/>
<polygon points="64.675,69.437 64.675,70.437 63.875,70.437 63.875,73.537 64.675,73.537 64.675,79.337 63.875,79.337 63.875,82.437 64.675,82.437 64.675,83.437 78.675,83.437 78.675,82.437 79.475,82.437 79.475,79.337 78.675,79.337 78.675,73.537 79.475,73.537 79.475,70.437 78.675,70.437 78.675,69.437" style="fill:none;stroke-width:0.050000mm;stroke:black"/>
<polygon points="83.725,69.437 83.725,70.437 82.925,70.437 82.925,73.537 83.725,73.537 83.725,79.337 82.925,79.337 82.925,82.437 83.725,82.437 83.725,83.437 97.725,83.437 97.725,82.437 98.524,82.437 98.524,79.337 97.725,79.337 97.725,73.537 98.524,73.537 98.524,70.437 97.725,70.437 97.725,69.437" style="fill:none;stroke-width:0.050000mm;stroke:black"/>
<polygon points="102.774,69.437 102.774,70.437 101.975,70.437 101.975,73.537 102.774,73.537 102.774,79.337 101.975,79.337 101.975,82.437 102.774,82.437 102.774,83.437 116.774,83.437 116.774,82.437 117.574,82.437 117.574,79.337 116.774,79.337 116.774,73.537 117.574,73.537 117.574,70.437 116.774,70.437 116.774,69.437" style="fill:none;stroke-width:0.050000mm;stroke:black"/>
<polygon points="121.824,69.437 121.824,70.437 121.024,70.437 121.024,73.537 121.824,73.537 121.824,79.337 121.024,79.337 121.024,82.437 121.824,82.437 121.824,83.437 135.825,83.437 135.825,82.437 136.625,82.437 136.625,79.337 135.825,79.337 135.825,73.537 136.625,73.537 136.625,70.437 135.825,70.437 135.825,69.437" style="fill:none;stroke-width:0.050000mm;stroke:black"/>
<polygon points="140.875,69.437 140.875,70.437 140.075,70.437 140.075,73.537 140.875,73.537 140.875,79.337 140.075,79.337 140.075,82.437 140.875,82.437 140.875,83.437 154.875,83.437 154.875,82.437 155.675,82.437 155.675,79.337 154.875,79.337 154.875,73.537 155.675,73.537 155.675,70.437 154.875,70.437 154.875,69.437" style="fill:none;stroke-width:0.050000mm;stroke:black"/>
<polygon points="159.925,69.437 159.925,70.437 159.125,70.437 159.125,73.537 159.925,73.537 159.925,79.337 159.125,79.337 159.125,82.437 159.925,82.437 159.925,83.437 173.925,83.437 173.925,82.437 174.725,82.437 174.725,79.337 173.925,79.337 173.925,73.537 174.725,73.537 174.725,70.437 173.925,70.437 173.925,69.437" style="fill:none;stroke-width:0.050000mm;stroke:black"/>
<polygon points="178.975,69.437 178.975,70.437 178.175,70.437 178.175,73.537 178.975,73.537 178.975,79.337 178.175,79.337 178.175,82.437 178.975,82.437 178.975,83.437 192.975,83.437 192.975,82.437 193.775,82.437 193.775,79.337 192.975,79.337 192.975,73.537 193.775,73.537 193.775,70.437 192.975,70.437 192.975,69.437" style="fill:none;stroke-width:0.050000mm;stroke:black"/>
<polygon points="198.025,69.437 198.025,70.437 197.225,70.437 197.225,73.537 198.025,73.537 198.025,79.337 197.225,79.337 197.225,82.437 198.025,82.437 198.025,83.437 212.025,83.437 212.025,82.437 212.825,82.437 212.825,79.337 212.025,79.337 212.025,73.537 212.825,73.537 212.825,70.437 212.025,70.437 212.025,69.437" style="fill:none;stroke-width:0.050000mm;stroke:black"/>
<polygon points="217.075,69.437 217.075,70.437 216.275,70.437 216.275,73.537 217.075,73.537 217.075,79.337 216.275,79.337 216.275,82.437 217.075,82.437 217.075,83.437 231.075,83.437 231.075,82.437 231.875,82.437 231.875,79.337 231.075,79.337 231.075,73.537 231.875,73.537 231.875,70.437 231.075,70.437 231.075,69.437" style="fill:none;stroke-width:0.050000mm;stroke:black"/>
<polygon points="236.125,69.437 236.125,70.437 235.325,70.437 235.325,73.537 236.125,73.537 236.125,79.337 235.325,79.337 235.325,82.437 236.125,82.437 236.125,83.437 250.125,83.437 250.125,82.437 250.925,82.437 250.925,79.337 250.125,79.337 250.125,73.537 250.925,73.537 250.925,70.437 250.125,70.437 250.125,69.437" style="fill:none;stroke-width:0.050000mm;stroke:black"/>
<polygon points="17.050,50.387 17.050,51.387 16.250,51.387 16.250,54.487 17.050,54.487 17.050,60.287 16.250,60.287 16.250,63.387 17.050,63.387 17.050,64.387 31.050,64.387 31.050,63.387 31.850,63.387 31.850,60.287 31.050,60.287 31.050,54.487 31.850,54.487 31.850,51.387 31.050,51.387 31.050,50.387" style="fill:none;stroke-width:0.050000mm;stroke:black"/>
<polygon points="40.862,50.387 40.862,51.387 40.062,51.387 40.062,54.487 40.862,54.487 40.862,60.287 40.062,60.287 40.062,63.387 40.862,63.387 40.862,64.387 54.862,64.387 54.862,63.387 55.662,63.387 55.662,60.287 54.862,60.287 54.862,54.487 55.662,54.487 55.662,51.387 54.862,51.387 54.862,50.387" style="fill:none;stroke-width:0.050000mm;stroke:black"/>
<polygon points="59.912,50.387 59.912,51.387 59.112,51.387 59.112,54.487 59.912,54.487 59.912,60.287 59.112,60.287 59.112,63.387 59.912,63.387 59.912,64.387 73.912,64.387 73.912,63.387 74.712,63.387 74.712,60.287 73.912,60.287 73.912,54.487 74.712,54.487 74.712,51.387 73.912,51.387 73.912,50.387" style="fill:none;stroke-width:0.050000mm;stroke:black"/>
<polygon points="78.962,50.387 78.962,51.387 78.162,51.387 78.162,54.487 78.962,54.487 78.962,60.287 78.162,60.287 78.162,63.387 78.962,63.387 78.962,64.387 92.962,64.387 92.962,63.387 93.762,63.387 93.762,60.287 92.962,60.287 92.962,54.487 93.762,54.487 93.762,51.387 92.962,51.387 92.962,50.387" style="fill:none;stroke-width:0.050000mm;stroke:black"/>
<polygon points="98.012,50.387 98.012,51.387 97.212,51.387 97.212,54.487 98.012,54.487 98.012,60.287 97.212,60.287 97.212,63.387 98.012,63.387 98.012,64.387 112.012,64.387 112.012,63.387 112.812,63.387 112.812,60.287 112.012,60.287 112.012,54.487 112.812,54.487 112.812,51.387 112.012,51.387 112.012,50.387" style="fill:none;stroke-width:0.050000mm;stroke:black"/>
<polygon points="117.062,50.387 117.062,51.387 116.262,51.387 116.262,54.487 117.062,54.487 117.062,60.287 116.262,60.287 116.262,63.387 117.062,63.387 117.062,64.387 131.062,64.387 131.062,63.387 131.862,63.387 131.862,60.287 131.062,60.287 131.062,54.487 131.862,54.487 131.862,51.387 131.062,51.387 131.062,50.387" style="fill:none;stroke-width:0.050000mm;stroke:black"/>
<polygon points="136.112,50.387 136.112,51.387 135.312,51.387 135.312,54.487 136.112,54.487 136.112,60.287 135.312,60.287 135.312,63.387 136.112,63.387 136.112,64.387 150.112,64.387 150.112,63.387 150.912,63.387 150.912,60.287 150.112,60.287 150.112,54.487 150.912,54.487 150.912,51.387 150.112,51.387 150.112,50.387" style="fill:none;stroke-width:0.050000mm;stroke:black"/>
<polygon points="155.162,50.387 155.162,51.387 154.362,51.387 154.362,54.487 155.162,54.487 155.162,60.287 154.362,60.287 154.362,63.387 155.162,63.387 155.162,64.387 169.162,64.387 169.162,63.387 169.962,63.387 169.962,60.287 169.162,60.287 169.162,54.487 169.962,54.487 169.962,51.387 169.162,51.387 169.162,50.387" style="fill:none;stroke-width:0.050000mm;stroke:black"/>
<polygon points="174.212,50.387 174.212,51.387 173.412,51.387 173.412,54.487 174.212,54.487 174.212,60.287 173.412,60.287 173.412,63.387 174.212,63.387 174.212,64.387 188.212,64.387 188.212,63.387 189.012,63.387 189.012,60.287 188.212,60.287 188.212,54.487 189.012,54.487 189.012,51.387 188.212,51.387 188.212,50.387" style="fill:none;stroke-width:0.050000mm;stroke:black"/>
<polygon points="193.262,50.387 193.262,51.387 192.462,51.387 192.462,54.487 193.262,54.487 193.262,60.287 192.462,60.287 192.462,63.387 193.262,63.387 193.262,64.387 207.262,64.387 207.262,63.387 208.062,63.387 208.062,60.287 207.262,60.287 207.262,54.487 208.062,54.487 208.062,51.387 207.262,51.387 207.262,50.387" style="fill:none;stroke-width:0.050000mm;stroke:black"/>
<polygon points="212.312,50.387 212.312,51.387 211.512,51.387 211.512,54.487 212.312,54.487 212.312,60.287 211.512,60.287 211.512,63.387 212.312,63.387 212.312,64.387 226.312,64.387 226.312,63.387 227.112,63.387 227.112,60.287 226.312,60.287 226.312,54.487 227.112,54.487 227.112,51.387 226.312,51.387 226.312,50.387" style="fill:none;stroke-width:0.050000mm;stroke:black"/>
<polygon points="231.362,50.387 231.362,51.387 230.562,51.387 230.562,54.487 231.362,54.487 231.362,60.287 230.562,60.287 230.562,63.387 231.362,63.387 231.362,64.387 245.362,64.387 245.362,63.387 246.162,63.387 246.162,60.287 245.362,60.287 245.362,54.487 246.162,54.487 246.162,51.387 245.362,51.387 245.362,50.387" style="fill:none;stroke-width:0.050000mm;stroke:black"/>
<polygon points="250.412,50.387 250.412,51.387 249.612,51.387 249.612,54.487 250.412,54.487 250.412,60.287 249.612,60.287 249.612,63.387 250.412,63.387 250.412,64.387 264.412,64.387 264.412,63.387 265.212,63.387 265.212,60.287 264.412,60.287 264.412,54.487 265.212,54.487 265.212,51.387 264.412,51.387 264.412,50.387" style="fill:none;stroke-width:0.050000mm;stroke:black"/>
<polygon points="274.225,50.387 274.225,51.387 273.425,51.387 273.425,54.487 274.225,54.487 274.225,60.287 273.425,60.287 273.425,63.387 274.225,63.387 274.225,64.387 288.225,64.387 288.225,63.387 289.025,63.387 289.025,60.287 288.225,60.287 288.225,54.487 289.025,54.487 289.025,51.387 288.225,51.387 288.225,50.387" style="fill:none;stroke-width:0.050000mm;stroke:black"/>
<polygon points="269.462,31.337 269.462,32.337 268.662,32.337 268.662,35.437 269.462,35.437 269.462,36.037 267.937,36.037 267.937,32.807 266.212,32.807 266.212,31.887 262.912,31.887 262.912,32.807 261.187,32.807 261.187,36.037 260.362,36.037 260.362,38.837 261.187,38.837 261.187,45.107 262.912,45.107 262.912,46.087 266.212,46.087 266.212,45.107 267.937,45.107 267.937,40.637 269.462,40.637 269.462,41.237 268.662,41.237 268.662,44.337 269.462,44.337 269.462,45.337 283.462,45.337 283.462,44.337 284.262,44.337 284.262,41.237 283.462,41.237 283.462,40.637 284.987,40.637 284.987,45.107 286.712,45.107 286.712,46.087 290.012,46.087 290.012,45.107 291.737,45.107 291.737,38.837 292.562,38.837 292.562,36.037 291.737,36.037 291.737,32.807 290.012,32.807 290.012,31.887 286.712,31.887 286.712,32.807 284.987,32.807 284.987,36.037 283.462,36.037 283.462,35.437 284.262,35.437 284.262,32.337 283.462,32.337 283.462,31.337" style="fill:none;stroke-width:0.050000mm;stroke:black"/>
<polygon points="12.287,31.337 12.287,32.337 11.487,32.337 11.487,35.437 12.287,35.437 12.287,41.237 11.487,41.237 11.487,44.337 12.287,44.337 12.287,45.337 26.287,45.337 26.287,44.337 27.087,44.337 27.087,41.237 26.287,41.237 26.287,35.437 27.087,35.437 27.087,32.337 26.287,32.337 26.287,31.337" style="fill:none;stroke-width:0.050000mm;stroke:black"/>
<polygon points="31.337,31.337 31.337,32.337 30.537,32.337 30.537,35.437 31.337,35.437 31.337,41.237 30.537,41.237 30.537,44.337 31.337,44.337 31.337,45.337 45.337,45.337 45.337,44.337 46.137,44.337 46.137,41.237 45.337,41.237 45.337,35.437 46.137,35.437 46.137,32.337 45.337,32.337 45.337,31.337" style="fill:none;stroke-width:0.050000mm;stroke:black"/>
<polygon points="50.387,31.337 50.387,32.337 49.587,32.337 49.587,35.437 50.387,35.437 50.387,41.237 49.587,41.237 49.587,44.337 50.387,44.337 50.387,45.337 64.387,45.337 64.387,44.337 65.187,44.337 65.187,41.237 64.387,41.237 64.387,35.437 65.187,35.437 65.187,32.337 64.387,32.337 64.387,31.337" style="fill:none;stroke-width:0.050000mm;stroke:black"/>
<polygon points="69.437,31.337 69.437,32.337 68.637,32.337 68.637,35.437 69.437,35.437 69.437,41.237 68.637,41.237 68.637,44.337 69.437,44.337 69.437,45.337 83.437,45.337 83.437,44.337 84.237,44.337 84.237,41.237 83.437,41.237 83.437,35.437 84.237,35.437 84.237,32.337 83.437,32.337 83.437,31.337" style="fill:none;stroke-width:0.050000mm;stroke:black"/>
<polygon points="88.487,31.337 88.487,32.337 87.687,32.337 87.687,35.437 88.487,35.437 88.487,41.237 87.687,41.237 87.687,44.337 88.487,44.337 88.487,45.337 102.487,45.337 102.487,44.337 103.287,44.337 103.287,41.237 102.487,41.237 102.487,35.437 103.287,35.437 103.287,32.337 102.487,32.337 102.487,31.337" style="fill:none;stroke-width:0.050000mm;stroke:black"/>
<polygon points="107.537,31.337 107.537,32.337 106.737,32.337 106.737,35.437 107.537,35.437 107.537,41.237 106.737,41.237 106.737,44.337 107.537,44.337 107.537,45.337 121.537,45.337 121.537,44.337 122.337,44.337 122.337,41.237 121.537,41.237 121.537,35.437 122.337,35.437 122.337,32.337 121.537,32.337 121.537,31.337" style="fill:none;stroke-width:0.050000mm;stroke:black"/>
<polygon points="126.587,31.337 126.587,32.337 125.787,32.337 125.787,35.437 126.587,35.437 126.587,41.237 125.787,41.237 125.787,44.337 126.587,44.337 126.587,45.337 140.587,45.337 140.587,44.337 141.387,44.337 141.387,41.237 140.587,41.237 140.587,35.437 141.387,35.437 141.387,32.337 140.587,32.337 140.587,31.337" style="fill:none;stroke-width:0.050000mm;stroke:black"/>
<polygon points="145.637,31.337 145.637,32.337 144.837,32.337 144.837,35.437 145.637,35.437 145.637,41.237 144.837,41.237 144.837,44.337 145.637,44.337 145.637,45.337 159.637,45.337 159.637,44.337 160.437,44.337 160.437,41.237 159.637,41.237 159.637,35.437 160.437,35.437 160.437,32.337 159.637,32.337 159.637,31.337" style="fill:none;stroke-width:0.050000mm;stroke:black"/>
<polygon points="164.687,31.337 164.687,32.337 163.887,32.337 163.887,35.437 164.687,35.437 164.687,41.237 163.887,41.237 163.887,44.337 164.687,44.337 164.687,45.337 178.687,45.337 178.687,44.337 179.487,44.337 179.487,41.237 178.687,41.237 178.687,35.437 179.487,35.437 179.487,32.337 178.687,32.337 178.687,31.337" style="fill:none;stroke-width:0.050000mm;stroke:black"/>
<polygon points="183.737,31.337 183.737,32.337 182.937,32.337 182.937,35.437 183.737,35.437 183.737,41.237 182.937,41.237 182.937,44.337 183.737,44.337 183.737,45.337 197.737,45.337 197.737,44.337 198.537,44.337 198.537,41.237 197.737,41.237 197.737,35.437 198.537,35.437 198.537,32.337 197.737,32.337 197.737,31.337" style="fill:none;stroke-width:0.050000mm;stroke:black"/>
<polygon points="202.787,31.337 202.787,32.337 201.987,32.337 201.987,35.437 202.787,35.437 202.787,41.237 201.987,41.237 201.987,44.337 202.787,44.337 202.787,45.337 216.787,45.337 216.787,44.337 217.587,44.337 217.587,41.237 216.787,41.237 216.787,35.437 217.587,35.437 217.587,32.337 216.787,32.337 216.787,31.337" style="fill:none;stroke-width:0.050000mm;stroke:black"/>
<polygon points="221.837,31.337 221.837,32.337 221.037,32.337 221.037,35.437 221.837,35.437 221.837,41.237 221.037,41.237 221.037,44.337 221.837,44.337 221.837,45.337 235.837,45.337 235.837,44.337 236.637,44.337 236.637,41.237 235.837,41.237 235.837,35.437 236.637,35.437 236.637,32.337 235.837,32.337 235.837,31.337" style="fill:none;stroke-width:0.050000mm;stroke:black"/>
<polygon points="240.887,31.337 240.887,32.337 240.087,32.337 240.087,35.437 240.887,35.437 240.887,41.237 240.087,41.237 240.087,44.337 240.887,44.337 240.887,45.337 254.887,45.337 254.887,44.337 255.687,44.337 255.687,41.237 254.887,41.237 254.887,35.437 255.687,35.437 255.687,32.337 254.887,32.337 254.887,31.337" style="fill:none;stroke-width:0.050000mm;stroke:black"/>
<polygon points="12.287,12.287 12.287,13.287 11.487,13.287 11.487,16.387 12.287,16.387 12.287,22.187 11.487,22.187 11.487,25.287 12.287,25.287 12.287,26.287 26.287,26.287 26.287,25.287 27.087,25.287 27.087,22.187 26.287,22.187 26.287,16.387 27.087,16.387 27.087,13.287 26.287,13.287 26.287,12.287" style="fill:none;stroke-width:0.050000mm;stroke:black"/>
<polygon points="31.337,12.287 31.337,13.287 30.537,13.287 30.537,16.387 31.337,16.387 31.337,22.187 30.537,22.187 30.537,25.287 31.337,25.287 31.337,26.287 45.337,26.287 45.337,25.287 46.137,25.287 46.137,22.187 45.337,22.187 45.337,16.387 46.137,16.387 46.137,13.287 45.337,13.287 45.337,12.287" style="fill:none;stroke-width:0.050000mm;stroke:black"/>
<polygon points="50.387,12.287 50.387,13.287 49.587,13.287 49.587,16.387 50.387,16.387 50.387,22.187 49.587,22.187 49.587,25.287 50.387,25.287 50.387,26.287 64.387,26.287 64.387,25.287 65.187,25.287 65.187,22.187 64.387,22.187 64.387,16.387 65.187,16.387 65.187,13.287 64.387,13.287 64.387,12.287" style="fill:none;stroke-width:0.050000mm;stroke:black"/>
<polygon points="69.437,12.287 69.437,13.287 68.637,13.287 68.637,16.387 69.437,16.387 69.437,22.187 68.637,22.187 68.637,25.287 69.437,25.287 69.437,26.287 83.437,26.287 83.437,25.287 84.237,25.287 84.237,22.187 83.437,22.187 83.437,16.387 84.237,16.387 84.237,13.287 83.437,13.287 83.437,12.287" style="fill:none;stroke-width:0.050000mm;stroke:black"/>
<polygon points="88.487,12.287 88.487,13.287 87.687,13.287 87.687,16.387 88.487,16.387 88.487,22.187 87.687,22.187 87.687,25.287 88.487,25.287 88.487,26.287 102.487,26.287 102.487,25.287 103.287,25.287 103.287,22.187 102.487,22.187 102.487,16.387 103.287,16.387 103.287,13.287 102.487,13.287 102.487,12.287" style="fill:none;stroke-width:0.050000mm;stroke:black"/>
<polygon points="107.537,12.287 107.537,13.287 106.737,13.287 106.737,16.387 107.537,16.387 107.537,22.187 106.737,22.187 106.737,25.287 107.537,25.287 107.537,26.287 121.537,26.287 121.537,25.287 122.337,25.287 122.337,22.187 121.537,22.187 121.537,16.387 122.337,16.387 122.337,13.287 121.537,13.287 121.537,12.287" style="fill:none;stroke-width:0.050000mm;stroke:black"/>
<polygon points="126.587,12.287 126.587,13.287 125.787,13.287 125.787,16.387 126.587,16.387 126.587,22.187 125.787,22.187 125.787,25.287 126.587,25.287 126.587,26.287 140.587,26.287 140.587,25.287 141.387,25.287 141.387,22.187 140.587,22.187 140.587,16.387 141.387,16.387 141.387,13.287 140.587,13.287 140.587,12.287" style="fill:none;stroke-width:0.050000mm;stroke:black"/>
<polygon points="145.637,12.287 145.637,13.287 144.837,13.287 144.837,16.387 145.637,16.387 145.637,22.187 144.837,22.187 144.837,25.287 145.637,25.287 145.637,26.287 159.637,26.287 159.637,25.287 160.437,25.287 160.437,22.187 159.637,22.187 159.637,16.387 160.437,16.387 160.437,13.287 159.637,13.287 159.637,12.287" style="fill:none;stroke-width:0.050000mm;stroke:black"/>
<polygon points="164.687,12.287 164.687,13.287 163.887,13.287 163.887,16.387 164.687,16.387 164.687,22.187 163.887,22.187 163.887,25.287 164.687,25.287 164.687,26.287 178.687,26.287 178.687,25.287 179.487,25.287 179.487,22.187 178.687,22.187 178.687,16.387 179.487,16.387 179.487,13.287 178.687,13.287 178.687,12.287" style="fill:none;stroke-width:0.050000mm;stroke:black"/>
<polygon points="183.737,12.287 183.737,13.287 182.937,13.287 182.937,16.387 183.737,16.387 183.737,22.187 182.937,22.187 182.937,25.287 183.737,25.287 183.737,26.287 197.737,26.287 197.737,25.287 198.537,25.287 198.537,22.187 197.737,22.187 197.737,16.387 198.537,16.387 198.537,13.287 197.737,13.287 197.737,12.287" style="fill:none;stroke-width:0.050000mm;stroke:black"/>
<polygon points="202.787,12.287 202.787,13.287 201.987,13.287 201.987,16.387 202.787,16.387 202.787,22.187 201.987,22.187 201.987,25.287 202.787,25.287 202.787,26.287 216.787,26.287 216.787,25.287 217.587,25.287 217.587,22.187 216.787,22.187 216.787,16.387 217.587,16.387 217.587,13.287 216.787,13.287 216.787,12.287" style="fill:none;stroke-width:0.050000mm;stroke:black"/>
<polygon points="221.837,12.287 221.837,13.287 221.037,13.287 221.037,16.387 221.837,16.387 221.837,22.187 221.037,22.187 221.037,25.287 221.837,25.287 221.837,26.287 235.837,26.287 235.837,25.287 236.637,25.287 236.637,22.187 235.837,22.187 235.837,16.387 236.637,16.387 236.637,13.287 235.837,13.287 235.837,12.287" style="fill:none;stroke-width:0.050000mm;stroke:black"/>
<polygon points="240.887,12.287 240.887,13.287 240.087,13.287 240.087,16.387 240.887,16.387 240.887,22.187 240.087,22.187 240.087,25.287 240.887,25.287 240.887,26.287 254.887,26.287 254.887,25.287 255.687,25.287 255.687,22.187 254.887,22.187 254.887,16.387 255.687,16.387 255.687,13.287 254.887,13.287 254.887,12.287" style="fill:none;stroke-width:0.050000mm;stroke:black"/>
<polygon points="259.937,12.287 259.937,13.287 259.137,13.287 259.137,16.387 259.937,16.387 259.937,22.187 259.137,22.187 259.137,25.287 259.937,25.287 259.937,26.287 273.937,26.287 273.937,25.287 274.737,25.287 274.737,22.187 273.937,22.187 273.937,16.387 274.737,16.387 274.737,13.287 273.937,13.287 273.937,12.287" style="fill:none;stroke-width:0.050000mm;stroke:black"/>
<polygon points="278.987,12.287 278.987,13.287 278.187,13.287 278.187,16.387 278.987,16.387 278.987,22.187 278.187,22.187 278.187,25.287 278.987,25.287 278.987,26.287 292.987,26.287 292.987,25.287 293.787,25.287 293.787,22.187 292.987,22.187 292.987,16.387 293.787,16.387 293.787,13.287 292.987,13.287 292.987,12.287" style="fill:none;stroke-width:0.050000mm;stroke:black"/>
</svg>
