  0
SECTION
  2
HEADER
  9
$ACADVER
  1
AC1009
  9
$FILLMODE
 70
 0
  9
$SPLFRAME
 70
 1
  9
$EXTMIN
 10
0
 20
0
 30
0.0
  9
$EXTMAX
 10
1058.33
 20
1058.33
 30
0.0
  0
ENDSEC
  0
SECTION
  2
TABLES
  0
TABLE
  2
LAYER
 70
1
  0
LAYER
  2
0
 70
     0
 62
     7
  6
CONTINUOUS
  0
ENDTAB
  0
ENDSEC
  0
SECTION
  2
ENTITIES
  0
LINE
  8
0
 62
     0
 10
0.0950846
 20
152.658
 30
0.0
 11
295.371
 21
152.658
 31
0.0
  0
LINE
  8
0
 62
     0
 10
295.371
 20
152.658
 30
0.0
 11
295.371
 21
0.2949
 31
0.0
  0
LINE
  8
0
 62
     0
 10
295.371
 20
0.2949
 30
0.0
 11
0.0950846
 21
0.2949
 31
0.0
  0
LINE
  8
0
 62
     0
 10
0.0950846
 20
0.2949
 30
0.0
 11
0.0950846
 21
152.658
 31
0.0
  0
LINE
  8
0
 62
     0
 10
147.876
 20
21.5828
 30
0.0
 11
147.876
 21
16.8837
 31
0.0
  0
LINE
  8
0
 62
     0
 10
147.876
 20
16.8837
 30
0.0
 11
108.251
 21
16.8837
 31
0.0
  0
LINE
  8
0
 62
     0
 10
108.251
 20
16.8837
 30
0.0
 11
108.251
 21
20.1138
 31
0.0
  0
LINE
  8
0
 62
     0
 10
108.251
 20
20.1138
 30
0.0
 11
101.501
 21
20.1138
 31
0.0
  0
LINE
  8
0
 62
     0
 10
101.501
 20
20.1138
 30
0.0
 11
101.501
 21
16.8837
 31
0.0
  0
LINE
  8
0
 62
     0
 10
101.501
 20
16.8837
 30
0.0
 11
100.675
 21
16.8837
 31
0.0
  0
LINE
  8
0
 62
     0
 10
100.675
 20
16.8837
 30
0.0
 11
100.675
 21
14.0836
 31
0.0
  0
LINE
  8
0
 62
     0
 10
100.675
 20
14.0836
 30
0.0
 11
101.501
 21
14.0836
 31
0.0
  0
LINE
  8
0
 62
     0
 10
101.501
 20
14.0836
 30
0.0
 11
101.501
 21
7.81346
 31
0.0
  0
LINE
  8
0
 62
     0
 10
101.501
 20
7.81346
 30
0.0
 11
103.226
 21
7.81346
 31
0.0
  0
LINE
  8
0
 62
     0
 10
103.226
 20
7.81346
 30
0.0
 11
103.226
 21
6.61321
 31
0.0
  0
LINE
  8
0
 62
     0
 10
103.226
 20
6.61321
 30
0.0
 11
106.525
 21
6.61321
 31
0.0
  0
LINE
  8
0
 62
     0
 10
106.525
 20
6.61321
 30
0.0
 11
106.525
 21
7.81346
 31
0.0
  0
LINE
  8
0
 62
     0
 10
106.525
 20
7.81346
 30
0.0
 11
108.251
 21
7.81346
 31
0.0
  0
LINE
  8
0
 62
     0
 10
108.251
 20
7.81346
 30
0.0
 11
108.251
 21
12.2838
 31
0.0
  0
LINE
  8
0
 62
     0
 10
108.251
 20
12.2838
 30
0.0
 11
147.876
 21
12.2838
 31
0.0
  0
LINE
  8
0
 62
     0
 10
147.876
 20
12.2838
 30
0.0
 11
147.876
 21
7.58335
 31
0.0
  0
LINE
  8
0
 62
     0
 10
147.876
 20
7.58335
 30
0.0
 11
161.875
 21
7.58335
 31
0.0
  0
LINE
  8
0
 62
     0
 10
161.875
 20
7.58335
 30
0.0
 11
161.875
 21
12.2838
 31
0.0
  0
LINE
  8
0
 62
     0
 10
161.875
 20
12.2838
 30
0.0
 11
201.501
 21
12.2838
 31
0.0
  0
LINE
  8
0
 62
     0
 10
201.501
 20
12.2838
 30
0.0
 11
201.501
 21
7.81346
 31
0.0
  0
LINE
  8
0
 62
     0
 10
201.501
 20
7.81346
 30
0.0
 11
203.225
 21
7.81346
 31
0.0
  0
LINE
  8
0
 62
     0
 10
203.225
 20
7.81346
 30
0.0
 11
203.225
 21
6.61321
 31
0.0
  0
LINE
  8
0
 62
     0
 10
203.225
 20
6.61321
 30
0.0
 11
206.525
 21
6.61321
 31
0.0
  0
LINE
  8
0
 62
     0
 10
206.525
 20
6.61321
 30
0.0
 11
206.525
 21
7.81346
 31
0.0
  0
LINE
  8
0
 62
     0
 10
206.525
 20
7.81346
 30
0.0
 11
208.25
 21
7.81346
 31
0.0
  0
LINE
  8
0
 62
     0
 10
208.25
 20
7.81346
 30
0.0
 11
208.25
 21
14.0836
 31
0.0
  0
LINE
  8
0
 62
     0
 10
208.25
 20
14.0836
 30
0.0
 11
209.076
 21
14.0836
 31
0.0
  0
LINE
  8
0
 62
     0
 10
209.076
 20
14.0836
 30
0.0
 11
209.076
 21
16.8837
 31
0.0
  0
LINE
  8
0
 62
     0
 10
209.076
 20
16.8837
 30
0.0
 11
208.25
 21
16.8837
 31
0.0
  0
LINE
  8
0
 62
     0
 10
208.25
 20
16.8837
 30
0.0
 11
208.25
 21
20.1138
 31
0.0
  0
LINE
  8
0
 62
     0
 10
208.25
 20
20.1138
 30
0.0
 11
201.501
 21
20.1138
 31
0.0
  0
LINE
  8
0
 62
     0
 10
201.501
 20
20.1138
 30
0.0
 11
201.501
 21
16.8837
 31
0.0
  0
LINE
  8
0
 62
     0
 10
201.501
 20
16.8837
 30
0.0
 11
161.875
 21
16.8837
 31
0.0
  0
LINE
  8
0
 62
     0
 10
161.875
 20
16.8837
 30
0.0
 11
161.875
 21
21.5828
 31
0.0
  0
LINE
  8
0
 62
     0
 10
161.875
 20
21.5828
 30
0.0
 11
147.876
 21
21.5828
 31
0.0
  0
LINE
  8
0
 62
     0
 10
9.76341
 20
21.5828
 30
0.0
 11
23.7629
 21
21.5828
 31
0.0
  0
LINE
  8
0
 62
     0
 10
23.7629
 20
21.5828
 30
0.0
 11
23.7629
 21
7.58335
 31
0.0
  0
LINE
  8
0
 62
     0
 10
23.7629
 20
7.58335
 30
0.0
 11
9.76341
 21
7.58335
 31
0.0
  0
LINE
  8
0
 62
     0
 10
9.76341
 20
7.58335
 30
0.0
 11
9.76341
 21
21.5828
 31
0.0
  0
LINE
  8
0
 62
     0
 10
33.5759
 20
21.5828
 30
0.0
 11
47.5753
 21
21.5828
 31
0.0
  0
LINE
  8
0
 62
     0
 10
47.5753
 20
21.5828
 30
0.0
 11
47.5753
 21
7.58335
 31
0.0
  0
LINE
  8
0
 62
     0
 10
47.5753
 20
7.58335
 30
0.0
 11
33.5759
 21
7.58335
 31
0.0
  0
LINE
  8
0
 62
     0
 10
33.5759
 20
7.58335
 30
0.0
 11
33.5759
 21
21.5828
 31
0.0
  0
LINE
  8
0
 62
     0
 10
57.3885
 20
21.5828
 30
0.0
 11
71.3878
 21
21.5828
 31
0.0
  0
LINE
  8
0
 62
     0
 10
71.3878
 20
21.5828
 30
0.0
 11
71.3878
 21
7.58335
 31
0.0
  0
LINE
  8
0
 62
     0
 10
71.3878
 20
7.58335
 30
0.0
 11
57.3885
 21
7.58335
 31
0.0
  0
LINE
  8
0
 62
     0
 10
57.3885
 20
7.58335
 30
0.0
 11
57.3885
 21
21.5828
 31
0.0
  0
LINE
  8
0
 62
     0
 10
78.8197
 20
21.5828
 30
0.0
 11
92.819
 21
21.5828
 31
0.0
  0
LINE
  8
0
 62
     0
 10
92.819
 20
21.5828
 30
0.0
 11
92.819
 21
7.58335
 31
0.0
  0
LINE
  8
0
 62
     0
 10
92.819
 20
7.58335
 30
0.0
 11
78.8197
 21
7.58335
 31
0.0
  0
LINE
  8
0
 62
     0
 10
78.8197
 20
7.58335
 30
0.0
 11
78.8197
 21
21.5828
 31
0.0
  0
LINE
  8
0
 62
     0
 10
216.932
 20
21.5828
 30
0.0
 11
230.933
 21
21.5828
 31
0.0
  0
LINE
  8
0
 62
     0
 10
230.933
 20
21.5828
 30
0.0
 11
230.933
 21
7.58335
 31
0.0
  0
LINE
  8
0
 62
     0
 10
230.933
 20
7.58335
 30
0.0
 11
216.932
 21
7.58335
 31
0.0
  0
LINE
  8
0
 62
     0
 10
216.932
 20
7.58335
 30
0.0
 11
216.932
 21
21.5828
 31
0.0
  0
LINE
  8
0
 62
     0
 10
235.982
 20
21.5828
 30
0.0
 11
249.983
 21
21.5828
 31
0.0
  0
LINE
  8
0
 62
     0
 10
249.983
 20
21.5828
 30
0.0
 11
249.983
 21
7.58335
 31
0.0
  0
LINE
  8
0
 62
     0
 10
249.983
 20
7.58335
 30
0.0
 11
235.982
 21
7.58335
 31
0.0
  0
LINE
  8
0
 62
     0
 10
235.982
 20
7.58335
 30
0.0
 11
235.982
 21
21.5828
 31
0.0
  0
LINE
  8
0
 62
     0
 10
255.032
 20
21.5828
 30
0.0
 11
269.033
 21
21.5828
 31
0.0
  0
LINE
  8
0
 62
     0
 10
269.033
 20
21.5828
 30
0.0
 11
269.033
 21
7.58335
 31
0.0
  0
LINE
  8
0
 62
     0
 10
269.033
 20
7.58335
 30
0.0
 11
255.032
 21
7.58335
 31
0.0
  0
LINE
  8
0
 62
     0
 10
255.032
 20
7.58335
 30
0.0
 11
255.032
 21
21.5828
 31
0.0
  0
LINE
  8
0
 62
     0
 10
274.082
 20
21.5828
 30
0.0
 11
288.083
 21
21.5828
 31
0.0
  0
LINE
  8
0
 62
     0
 10
288.083
 20
21.5828
 30
0.0
 11
288.083
 21
7.58335
 31
0.0
  0
LINE
  8
0
 62
     0
 10
288.083
 20
7.58335
 30
0.0
 11
274.082
 21
7.58335
 31
0.0
  0
LINE
  8
0
 62
     0
 10
274.082
 20
7.58335
 30
0.0
 11
274.082
 21
21.5828
 31
0.0
  0
LINE
  8
0
 62
     0
 10
19.2884
 20
40.6344
 30
0.0
 11
19.2884
 21
35.9336
 31
0.0
  0
LINE
  8
0
 62
     0
 10
19.2884
 20
35.9336
 30
0.0
 11
17.7629
 21
35.9336
 31
0.0
  0
LINE
  8
0
 62
     0
 10
17.7629
 20
35.9336
 30
0.0
 11
17.7629
 21
39.164
 31
0.0
  0
LINE
  8
0
 62
     0
 10
17.7629
 20
39.164
 30
0.0
 11
11.0133
 21
39.164
 31
0.0
  0
LINE
  8
0
 62
     0
 10
11.0133
 20
39.164
 30
0.0
 11
11.0133
 21
35.9336
 31
0.0
  0
LINE
  8
0
 62
     0
 10
11.0133
 20
35.9336
 30
0.0
 11
10.1878
 21
35.9336
 31
0.0
  0
LINE
  8
0
 62
     0
 10
10.1878
 20
35.9336
 30
0.0
 11
10.1878
 21
33.1349
 31
0.0
  0
LINE
  8
0
 62
     0
 10
10.1878
 20
33.1349
 30
0.0
 11
11.0133
 21
33.1349
 31
0.0
  0
LINE
  8
0
 62
     0
 10
11.0133
 20
33.1349
 30
0.0
 11
11.0133
 21
26.8648
 31
0.0
  0
LINE
  8
0
 62
     0
 10
11.0133
 20
26.8648
 30
0.0
 11
12.7386
 21
26.8648
 31
0.0
  0
LINE
  8
0
 62
     0
 10
12.7386
 20
26.8648
 30
0.0
 11
12.7386
 21
25.6632
 31
0.0
  0
LINE
  8
0
 62
     0
 10
12.7386
 20
25.6632
 30
0.0
 11
16.039
 21
25.6632
 31
0.0
  0
LINE
  8
0
 62
     0
 10
16.039
 20
25.6632
 30
0.0
 11
16.039
 21
26.8648
 31
0.0
  0
LINE
  8
0
 62
     0
 10
16.039
 20
26.8648
 30
0.0
 11
17.7629
 21
26.8648
 31
0.0
  0
LINE
  8
0
 62
     0
 10
17.7629
 20
26.8648
 30
0.0
 11
17.7629
 21
31.3338
 31
0.0
  0
LINE
  8
0
 62
     0
 10
17.7629
 20
31.3338
 30
0.0
 11
19.2884
 21
31.3338
 31
0.0
  0
LINE
  8
0
 62
     0
 10
19.2884
 20
31.3338
 30
0.0
 11
19.2884
 21
26.6347
 31
0.0
  0
LINE
  8
0
 62
     0
 10
19.2884
 20
26.6347
 30
0.0
 11
33.2879
 21
26.6347
 31
0.0
  0
LINE
  8
0
 62
     0
 10
33.2879
 20
26.6347
 30
0.0
 11
33.2879
 21
31.3338
 31
0.0
  0
LINE
  8
0
 62
     0
 10
33.2879
 20
31.3338
 30
0.0
 11
34.8134
 21
31.3338
 31
0.0
  0
LINE
  8
0
 62
     0
 10
34.8134
 20
31.3338
 30
0.0
 11
34.8134
 21
26.8648
 31
0.0
  0
LINE
  8
0
 62
     0
 10
34.8134
 20
26.8648
 30
0.0
 11
36.5386
 21
26.8648
 31
0.0
  0
LINE
  8
0
 62
     0
 10
36.5386
 20
26.8648
 30
0.0
 11
36.5386
 21
25.6632
 31
0.0
  0
LINE
  8
0
 62
     0
 10
36.5386
 20
25.6632
 30
0.0
 11
39.8392
 21
25.6632
 31
0.0
  0
LINE
  8
0
 62
     0
 10
39.8392
 20
25.6632
 30
0.0
 11
39.8392
 21
26.8648
 31
0.0
  0
LINE
  8
0
 62
     0
 10
39.8392
 20
26.8648
 30
0.0
 11
41.5629
 21
26.8648
 31
0.0
  0
LINE
  8
0
 62
     0
 10
41.5629
 20
26.8648
 30
0.0
 11
41.5629
 21
33.1349
 31
0.0
  0
LINE
  8
0
 62
     0
 10
41.5629
 20
33.1349
 30
0.0
 11
42.3884
 21
33.1349
 31
0.0
  0
LINE
  8
0
 62
     0
 10
42.3884
 20
33.1349
 30
0.0
 11
42.3884
 21
35.9336
 31
0.0
  0
LINE
  8
0
 62
     0
 10
42.3884
 20
35.9336
 30
0.0
 11
41.5629
 21
35.9336
 31
0.0
  0
LINE
  8
0
 62
     0
 10
41.5629
 20
35.9336
 30
0.0
 11
41.5629
 21
39.164
 31
0.0
  0
LINE
  8
0
 62
     0
 10
41.5629
 20
39.164
 30
0.0
 11
34.8134
 21
39.164
 31
0.0
  0
LINE
  8
0
 62
     0
 10
34.8134
 20
39.164
 30
0.0
 11
34.8134
 21
35.9336
 31
0.0
  0
LINE
  8
0
 62
     0
 10
34.8134
 20
35.9336
 30
0.0
 11
33.2879
 21
35.9336
 31
0.0
  0
LINE
  8
0
 62
     0
 10
33.2879
 20
35.9336
 30
0.0
 11
33.2879
 21
40.6344
 31
0.0
  0
LINE
  8
0
 62
     0
 10
33.2879
 20
40.6344
 30
0.0
 11
19.2884
 21
40.6344
 31
0.0
  0
LINE
  8
0
 62
     0
 10
257.413
 20
40.6344
 30
0.0
 11
257.413
 21
35.9336
 31
0.0
  0
LINE
  8
0
 62
     0
 10
257.413
 20
35.9336
 30
0.0
 11
255.888
 21
35.9336
 31
0.0
  0
LINE
  8
0
 62
     0
 10
255.888
 20
35.9336
 30
0.0
 11
255.888
 21
39.164
 31
0.0
  0
LINE
  8
0
 62
     0
 10
255.888
 20
39.164
 30
0.0
 11
249.138
 21
39.164
 31
0.0
  0
LINE
  8
0
 62
     0
 10
249.138
 20
39.164
 30
0.0
 11
249.138
 21
35.9336
 31
0.0
  0
LINE
  8
0
 62
     0
 10
249.138
 20
35.9336
 30
0.0
 11
248.313
 21
35.9336
 31
0.0
  0
LINE
  8
0
 62
     0
 10
248.313
 20
35.9336
 30
0.0
 11
248.313
 21
33.1349
 31
0.0
  0
LINE
  8
0
 62
     0
 10
248.313
 20
33.1349
 30
0.0
 11
249.138
 21
33.1349
 31
0.0
  0
LINE
  8
0
 62
     0
 10
249.138
 20
33.1349
 30
0.0
 11
249.138
 21
26.8648
 31
0.0
  0
LINE
  8
0
 62
     0
 10
249.138
 20
26.8648
 30
0.0
 11
250.863
 21
26.8648
 31
0.0
  0
LINE
  8
0
 62
     0
 10
250.863
 20
26.8648
 30
0.0
 11
250.863
 21
25.6632
 31
0.0
  0
LINE
  8
0
 62
     0
 10
250.863
 20
25.6632
 30
0.0
 11
254.164
 21
25.6632
 31
0.0
  0
LINE
  8
0
 62
     0
 10
254.164
 20
25.6632
 30
0.0
 11
254.164
 21
26.8648
 31
0.0
  0
LINE
  8
0
 62
     0
 10
254.164
 20
26.8648
 30
0.0
 11
255.888
 21
26.8648
 31
0.0
  0
LINE
  8
0
 62
     0
 10
255.888
 20
26.8648
 30
0.0
 11
255.888
 21
31.3338
 31
0.0
  0
LINE
  8
0
 62
     0
 10
255.888
 20
31.3338
 30
0.0
 11
257.413
 21
31.3338
 31
0.0
  0
LINE
  8
0
 62
     0
 10
257.413
 20
31.3338
 30
0.0
 11
257.413
 21
26.6347
 31
0.0
  0
LINE
  8
0
 62
     0
 10
257.413
 20
26.6347
 30
0.0
 11
271.413
 21
26.6347
 31
0.0
  0
LINE
  8
0
 62
     0
 10
271.413
 20
26.6347
 30
0.0
 11
271.413
 21
31.3338
 31
0.0
  0
LINE
  8
0
 62
     0
 10
271.413
 20
31.3338
 30
0.0
 11
272.939
 21
31.3338
 31
0.0
  0
LINE
  8
0
 62
     0
 10
272.939
 20
31.3338
 30
0.0
 11
272.939
 21
26.8648
 31
0.0
  0
LINE
  8
0
 62
     0
 10
272.939
 20
26.8648
 30
0.0
 11
274.664
 21
26.8648
 31
0.0
  0
LINE
  8
0
 62
     0
 10
274.664
 20
26.8648
 30
0.0
 11
274.664
 21
25.6632
 31
0.0
  0
LINE
  8
0
 62
     0
 10
274.664
 20
25.6632
 30
0.0
 11
277.964
 21
25.6632
 31
0.0
  0
LINE
  8
0
 62
     0
 10
277.964
 20
25.6632
 30
0.0
 11
277.964
 21
26.8648
 31
0.0
  0
LINE
  8
0
 62
     0
 10
277.964
 20
26.8648
 30
0.0
 11
279.688
 21
26.8648
 31
0.0
  0
LINE
  8
0
 62
     0
 10
279.688
 20
26.8648
 30
0.0
 11
279.688
 21
33.1349
 31
0.0
  0
LINE
  8
0
 62
     0
 10
279.688
 20
33.1349
 30
0.0
 11
280.513
 21
33.1349
 31
0.0
  0
LINE
  8
0
 62
     0
 10
280.513
 20
33.1349
 30
0.0
 11
280.513
 21
35.9336
 31
0.0
  0
LINE
  8
0
 62
     0
 10
280.513
 20
35.9336
 30
0.0
 11
279.688
 21
35.9336
 31
0.0
  0
LINE
  8
0
 62
     0
 10
279.688
 20
35.9336
 30
0.0
 11
279.688
 21
39.164
 31
0.0
  0
LINE
  8
0
 62
     0
 10
279.688
 20
39.164
 30
0.0
 11
272.939
 21
39.164
 31
0.0
  0
LINE
  8
0
 62
     0
 10
272.939
 20
39.164
 30
0.0
 11
272.939
 21
35.9336
 31
0.0
  0
LINE
  8
0
 62
     0
 10
272.939
 20
35.9336
 30
0.0
 11
271.413
 21
35.9336
 31
0.0
  0
LINE
  8
0
 62
     0
 10
271.413
 20
35.9336
 30
0.0
 11
271.413
 21
40.6344
 31
0.0
  0
LINE
  8
0
 62
     0
 10
271.413
 20
40.6344
 30
0.0
 11
257.413
 21
40.6344
 31
0.0
  0
LINE
  8
0
 62
     0
 10
50.2447
 20
40.6344
 30
0.0
 11
64.244
 21
40.6344
 31
0.0
  0
LINE
  8
0
 62
     0
 10
64.244
 20
40.6344
 30
0.0
 11
64.244
 21
26.6347
 31
0.0
  0
LINE
  8
0
 62
     0
 10
64.244
 20
26.6347
 30
0.0
 11
50.2447
 21
26.6347
 31
0.0
  0
LINE
  8
0
 62
     0
 10
50.2447
 20
26.6347
 30
0.0
 11
50.2447
 21
40.6344
 31
0.0
  0
LINE
  8
0
 62
     0
 10
69.2947
 20
40.6344
 30
0.0
 11
83.294
 21
40.6344
 31
0.0
  0
LINE
  8
0
 62
     0
 10
83.294
 20
40.6344
 30
0.0
 11
83.294
 21
26.6347
 31
0.0
  0
LINE
  8
0
 62
     0
 10
83.294
 20
26.6347
 30
0.0
 11
69.2947
 21
26.6347
 31
0.0
  0
LINE
  8
0
 62
     0
 10
69.2947
 20
26.6347
 30
0.0
 11
69.2947
 21
40.6344
 31
0.0
  0
LINE
  8
0
 62
     0
 10
88.3447
 20
40.6344
 30
0.0
 11
102.344
 21
40.6344
 31
0.0
  0
LINE
  8
0
 62
     0
 10
102.344
 20
40.6344
 30
0.0
 11
102.344
 21
26.6347
 31
0.0
  0
LINE
  8
0
 62
     0
 10
102.344
 20
26.6347
 30
0.0
 11
88.3447
 21
26.6347
 31
0.0
  0
LINE
  8
0
 62
     0
 10
88.3447
 20
26.6347
 30
0.0
 11
88.3447
 21
40.6344
 31
0.0
  0
LINE
  8
0
 62
     0
 10
107.395
 20
40.6344
 30
0.0
 11
121.394
 21
40.6344
 31
0.0
  0
LINE
  8
0
 62
     0
 10
121.394
 20
40.6344
 30
0.0
 11
121.394
 21
26.6347
 31
0.0
  0
LINE
  8
0
 62
     0
 10
121.394
 20
26.6347
 30
0.0
 11
107.395
 21
26.6347
 31
0.0
  0
LINE
  8
0
 62
     0
 10
107.395
 20
26.6347
 30
0.0
 11
107.395
 21
40.6344
 31
0.0
  0
LINE
  8
0
 62
     0
 10
126.445
 20
40.6344
 30
0.0
 11
140.444
 21
40.6344
 31
0.0
  0
LINE
  8
0
 62
     0
 10
140.444
 20
40.6344
 30
0.0
 11
140.444
 21
26.6347
 31
0.0
  0
LINE
  8
0
 62
     0
 10
140.444
 20
26.6347
 30
0.0
 11
126.445
 21
26.6347
 31
0.0
  0
LINE
  8
0
 62
     0
 10
126.445
 20
26.6347
 30
0.0
 11
126.445
 21
40.6344
 31
0.0
  0
LINE
  8
0
 62
     0
 10
145.495
 20
40.6344
 30
0.0
 11
159.494
 21
40.6344
 31
0.0
  0
LINE
  8
0
 62
     0
 10
159.494
 20
40.6344
 30
0.0
 11
159.494
 21
26.6347
 31
0.0
  0
LINE
  8
0
 62
     0
 10
159.494
 20
26.6347
 30
0.0
 11
145.495
 21
26.6347
 31
0.0
  0
LINE
  8
0
 62
     0
 10
145.495
 20
26.6347
 30
0.0
 11
145.495
 21
40.6344
 31
0.0
  0
LINE
  8
0
 62
     0
 10
164.545
 20
40.6344
 30
0.0
 11
178.544
 21
40.6344
 31
0.0
  0
LINE
  8
0
 62
     0
 10
178.544
 20
40.6344
 30
0.0
 11
178.544
 21
26.6347
 31
0.0
  0
LINE
  8
0
 62
     0
 10
178.544
 20
26.6347
 30
0.0
 11
164.545
 21
26.6347
 31
0.0
  0
LINE
  8
0
 62
     0
 10
164.545
 20
26.6347
 30
0.0
 11
164.545
 21
40.6344
 31
0.0
  0
LINE
  8
0
 62
     0
 10
183.595
 20
40.6344
 30
0.0
 11
197.594
 21
40.6344
 31
0.0
  0
LINE
  8
0
 62
     0
 10
197.594
 20
40.6344
 30
0.0
 11
197.594
 21
26.6347
 31
0.0
  0
LINE
  8
0
 62
     0
 10
197.594
 20
26.6347
 30
0.0
 11
183.595
 21
26.6347
 31
0.0
  0
LINE
  8
0
 62
     0
 10
183.595
 20
26.6347
 30
0.0
 11
183.595
 21
40.6344
 31
0.0
  0
LINE
  8
0
 62
     0
 10
202.645
 20
40.6344
 30
0.0
 11
216.644
 21
40.6344
 31
0.0
  0
LINE
  8
0
 62
     0
 10
216.644
 20
40.6344
 30
0.0
 11
216.644
 21
26.6347
 31
0.0
  0
LINE
  8
0
 62
     0
 10
216.644
 20
26.6347
 30
0.0
 11
202.645
 21
26.6347
 31
0.0
  0
LINE
  8
0
 62
     0
 10
202.645
 20
26.6347
 30
0.0
 11
202.645
 21
40.6344
 31
0.0
  0
LINE
  8
0
 62
     0
 10
221.695
 20
40.6344
 30
0.0
 11
235.694
 21
40.6344
 31
0.0
  0
LINE
  8
0
 62
     0
 10
235.694
 20
40.6344
 30
0.0
 11
235.694
 21
26.6347
 31
0.0
  0
LINE
  8
0
 62
     0
 10
235.694
 20
26.6347
 30
0.0
 11
221.695
 21
26.6347
 31
0.0
  0
LINE
  8
0
 62
     0
 10
221.695
 20
26.6347
 30
0.0
 11
221.695
 21
40.6344
 31
0.0
  0
LINE
  8
0
 62
     0
 10
262.176
 20
59.6829
 30
0.0
 11
262.176
 21
54.9836
 31
0.0
  0
LINE
  8
0
 62
     0
 10
262.176
 20
54.9836
 30
0.0
 11
260.651
 21
54.9836
 31
0.0
  0
LINE
  8
0
 62
     0
 10
260.651
 20
54.9836
 30
0.0
 11
260.651
 21
58.214
 31
0.0
  0
LINE
  8
0
 62
     0
 10
260.651
 20
58.214
 30
0.0
 11
253.899
 21
58.214
 31
0.0
  0
LINE
  8
0
 62
     0
 10
253.899
 20
58.214
 30
0.0
 11
253.899
 21
54.9836
 31
0.0
  0
LINE
  8
0
 62
     0
 10
253.899
 20
54.9836
 30
0.0
 11
253.075
 21
54.9836
 31
0.0
  0
LINE
  8
0
 62
     0
 10
253.075
 20
54.9836
 30
0.0
 11
253.075
 21
52.1836
 31
0.0
  0
LINE
  8
0
 62
     0
 10
253.075
 20
52.1836
 30
0.0
 11
253.899
 21
52.1836
 31
0.0
  0
LINE
  8
0
 62
     0
 10
253.899
 20
52.1836
 30
0.0
 11
253.899
 21
45.9147
 31
0.0
  0
LINE
  8
0
 62
     0
 10
253.899
 20
45.9147
 30
0.0
 11
255.626
 21
45.9147
 31
0.0
  0
LINE
  8
0
 62
     0
 10
255.626
 20
45.9147
 30
0.0
 11
255.626
 21
44.7132
 31
0.0
  0
LINE
  8
0
 62
     0
 10
255.626
 20
44.7132
 30
0.0
 11
258.925
 21
44.7132
 31
0.0
  0
LINE
  8
0
 62
     0
 10
258.925
 20
44.7132
 30
0.0
 11
258.925
 21
45.9147
 31
0.0
  0
LINE
  8
0
 62
     0
 10
258.925
 20
45.9147
 30
0.0
 11
260.651
 21
45.9147
 31
0.0
  0
LINE
  8
0
 62
     0
 10
260.651
 20
45.9147
 30
0.0
 11
260.651
 21
50.3837
 31
0.0
  0
LINE
  8
0
 62
     0
 10
260.651
 20
50.3837
 30
0.0
 11
262.176
 21
50.3837
 31
0.0
  0
LINE
  8
0
 62
     0
 10
262.176
 20
50.3837
 30
0.0
 11
262.176
 21
45.6833
 31
0.0
  0
LINE
  8
0
 62
     0
 10
262.176
 20
45.6833
 30
0.0
 11
276.175
 21
45.6833
 31
0.0
  0
LINE
  8
0
 62
     0
 10
276.175
 20
45.6833
 30
0.0
 11
276.175
 21
50.3837
 31
0.0
  0
LINE
  8
0
 62
     0
 10
276.175
 20
50.3837
 30
0.0
 11
277.701
 21
50.3837
 31
0.0
  0
LINE
  8
0
 62
     0
 10
277.701
 20
50.3837
 30
0.0
 11
277.701
 21
45.9147
 31
0.0
  0
LINE
  8
0
 62
     0
 10
277.701
 20
45.9147
 30
0.0
 11
279.425
 21
45.9147
 31
0.0
  0
LINE
  8
0
 62
     0
 10
279.425
 20
45.9147
 30
0.0
 11
279.425
 21
44.7132
 31
0.0
  0
LINE
  8
0
 62
     0
 10
279.425
 20
44.7132
 30
0.0
 11
282.725
 21
44.7132
 31
0.0
  0
LINE
  8
0
 62
     0
 10
282.725
 20
44.7132
 30
0.0
 11
282.725
 21
45.9147
 31
0.0
  0
LINE
  8
0
 62
     0
 10
282.725
 20
45.9147
 30
0.0
 11
284.45
 21
45.9147
 31
0.0
  0
LINE
  8
0
 62
     0
 10
284.45
 20
45.9147
 30
0.0
 11
284.45
 21
52.1836
 31
0.0
  0
LINE
  8
0
 62
     0
 10
284.45
 20
52.1836
 30
0.0
 11
285.276
 21
52.1836
 31
0.0
  0
LINE
  8
0
 62
     0
 10
285.276
 20
52.1836
 30
0.0
 11
285.276
 21
54.9836
 31
0.0
  0
LINE
  8
0
 62
     0
 10
285.276
 20
54.9836
 30
0.0
 11
284.45
 21
54.9836
 31
0.0
  0
LINE
  8
0
 62
     0
 10
284.45
 20
54.9836
 30
0.0
 11
284.45
 21
58.214
 31
0.0
  0
LINE
  8
0
 62
     0
 10
284.45
 20
58.214
 30
0.0
 11
277.701
 21
58.214
 31
0.0
  0
LINE
  8
0
 62
     0
 10
277.701
 20
58.214
 30
0.0
 11
277.701
 21
54.9836
 31
0.0
  0
LINE
  8
0
 62
     0
 10
277.701
 20
54.9836
 30
0.0
 11
276.175
 21
54.9836
 31
0.0
  0
LINE
  8
0
 62
     0
 10
276.175
 20
54.9836
 30
0.0
 11
276.175
 21
59.6829
 31
0.0
  0
LINE
  8
0
 62
     0
 10
276.175
 20
59.6829
 30
0.0
 11
262.176
 21
59.6829
 31
0.0
  0
LINE
  8
0
 62
     0
 10
14.5259
 20
59.6829
 30
0.0
 11
28.5254
 21
59.6829
 31
0.0
  0
LINE
  8
0
 62
     0
 10
28.5254
 20
59.6829
 30
0.0
 11
28.5254
 21
45.6833
 31
0.0
  0
LINE
  8
0
 62
     0
 10
28.5254
 20
45.6833
 30
0.0
 11
14.5259
 21
45.6833
 31
0.0
  0
LINE
  8
0
 62
     0
 10
14.5259
 20
45.6833
 30
0.0
 11
14.5259
 21
59.6829
 31
0.0
  0
LINE
  8
0
 62
     0
 10
40.7197
 20
59.6829
 30
0.0
 11
54.719
 21
59.6829
 31
0.0
  0
LINE
  8
0
 62
     0
 10
54.719
 20
59.6829
 30
0.0
 11
54.719
 21
45.6833
 31
0.0
  0
LINE
  8
0
 62
     0
 10
54.719
 20
45.6833
 30
0.0
 11
40.7197
 21
45.6833
 31
0.0
  0
LINE
  8
0
 62
     0
 10
40.7197
 20
45.6833
 30
0.0
 11
40.7197
 21
59.6829
 31
0.0
  0
LINE
  8
0
 62
     0
 10
59.7697
 20
59.6829
 30
0.0
 11
73.769
 21
59.6829
 31
0.0
  0
LINE
  8
0
 62
     0
 10
73.769
 20
59.6829
 30
0.0
 11
73.769
 21
45.6833
 31
0.0
  0
LINE
  8
0
 62
     0
 10
73.769
 20
45.6833
 30
0.0
 11
59.7697
 21
45.6833
 31
0.0
  0
LINE
  8
0
 62
     0
 10
59.7697
 20
45.6833
 30
0.0
 11
59.7697
 21
59.6829
 31
0.0
  0
LINE
  8
0
 62
     0
 10
78.8197
 20
59.6829
 30
0.0
 11
92.819
 21
59.6829
 31
0.0
  0
LINE
  8
0
 62
     0
 10
92.819
 20
59.6829
 30
0.0
 11
92.819
 21
45.6833
 31
0.0
  0
LINE
  8
0
 62
     0
 10
92.819
 20
45.6833
 30
0.0
 11
78.8197
 21
45.6833
 31
0.0
  0
LINE
  8
0
 62
     0
 10
78.8197
 20
45.6833
 30
0.0
 11
78.8197
 21
59.6829
 31
0.0
  0
LINE
  8
0
 62
     0
 10
97.8697
 20
59.6829
 30
0.0
 11
111.869
 21
59.6829
 31
0.0
  0
LINE
  8
0
 62
     0
 10
111.869
 20
59.6829
 30
0.0
 11
111.869
 21
45.6833
 31
0.0
  0
LINE
  8
0
 62
     0
 10
111.869
 20
45.6833
 30
0.0
 11
97.8697
 21
45.6833
 31
0.0
  0
LINE
  8
0
 62
     0
 10
97.8697
 20
45.6833
 30
0.0
 11
97.8697
 21
59.6829
 31
0.0
  0
LINE
  8
0
 62
     0
 10
116.92
 20
59.6829
 30
0.0
 11
130.919
 21
59.6829
 31
0.0
  0
LINE
  8
0
 62
     0
 10
130.919
 20
59.6829
 30
0.0
 11
130.919
 21
45.6833
 31
0.0
  0
LINE
  8
0
 62
     0
 10
130.919
 20
45.6833
 30
0.0
 11
116.92
 21
45.6833
 31
0.0
  0
LINE
  8
0
 62
     0
 10
116.92
 20
45.6833
 30
0.0
 11
116.92
 21
59.6829
 31
0.0
  0
LINE
  8
0
 62
     0
 10
135.97
 20
59.6829
 30
0.0
 11
149.969
 21
59.6829
 31
0.0
  0
LINE
  8
0
 62
     0
 10
149.969
 20
59.6829
 30
0.0
 11
149.969
 21
45.6833
 31
0.0
  0
LINE
  8
0
 62
     0
 10
149.969
 20
45.6833
 30
0.0
 11
135.97
 21
45.6833
 31
0.0
  0
LINE
  8
0
 62
     0
 10
135.97
 20
45.6833
 30
0.0
 11
135.97
 21
59.6829
 31
0.0
  0
LINE
  8
0
 62
     0
 10
155.02
 20
59.6829
 30
0.0
 11
169.019
 21
59.6829
 31
0.0
  0
LINE
  8
0
 62
     0
 10
169.019
 20
59.6829
 30
0.0
 11
169.019
 21
45.6833
 31
0.0
  0
LINE
  8
0
 62
     0
 10
169.019
 20
45.6833
 30
0.0
 11
155.02
 21
45.6833
 31
0.0
  0
LINE
  8
0
 62
     0
 10
155.02
 20
45.6833
 30
0.0
 11
155.02
 21
59.6829
 31
0.0
  0
LINE
  8
0
 62
     0
 10
174.07
 20
59.6829
 30
0.0
 11
188.069
 21
59.6829
 31
0.0
  0
LINE
  8
0
 62
     0
 10
188.069
 20
59.6829
 30
0.0
 11
188.069
 21
45.6833
 31
0.0
  0
LINE
  8
0
 62
     0
 10
188.069
 20
45.6833
 30
0.0
 11
174.07
 21
45.6833
 31
0.0
  0
LINE
  8
0
 62
     0
 10
174.07
 20
45.6833
 30
0.0
 11
174.07
 21
59.6829
 31
0.0
  0
LINE
  8
0
 62
     0
 10
193.12
 20
59.6829
 30
0.0
 11
207.119
 21
59.6829
 31
0.0
  0
LINE
  8
0
 62
     0
 10
207.119
 20
59.6829
 30
0.0
 11
207.119
 21
45.6833
 31
0.0
  0
LINE
  8
0
 62
     0
 10
207.119
 20
45.6833
 30
0.0
 11
193.12
 21
45.6833
 31
0.0
  0
LINE
  8
0
 62
     0
 10
193.12
 20
45.6833
 30
0.0
 11
193.12
 21
59.6829
 31
0.0
  0
LINE
  8
0
 62
     0
 10
212.17
 20
59.6829
 30
0.0
 11
226.169
 21
59.6829
 31
0.0
  0
LINE
  8
0
 62
     0
 10
226.169
 20
59.6829
 30
0.0
 11
226.169
 21
45.6833
 31
0.0
  0
LINE
  8
0
 62
     0
 10
226.169
 20
45.6833
 30
0.0
 11
212.17
 21
45.6833
 31
0.0
  0
LINE
  8
0
 62
     0
 10
212.17
 20
45.6833
 30
0.0
 11
212.17
 21
59.6829
 31
0.0
  0
LINE
  8
0
 62
     0
 10
231.22
 20
59.6829
 30
0.0
 11
245.219
 21
59.6829
 31
0.0
  0
LINE
  8
0
 62
     0
 10
245.219
 20
59.6829
 30
0.0
 11
245.219
 21
45.6833
 31
0.0
  0
LINE
  8
0
 62
     0
 10
245.219
 20
45.6833
 30
0.0
 11
231.22
 21
45.6833
 31
0.0
  0
LINE
  8
0
 62
     0
 10
231.22
 20
45.6833
 30
0.0
 11
231.22
 21
59.6829
 31
0.0
  0
LINE
  8
0
 62
     0
 10
12.1447
 20
78.7329
 30
0.0
 11
26.1441
 21
78.7329
 31
0.0
  0
LINE
  8
0
 62
     0
 10
26.1441
 20
78.7329
 30
0.0
 11
26.1441
 21
64.7333
 31
0.0
  0
LINE
  8
0
 62
     0
 10
26.1441
 20
64.7333
 30
0.0
 11
12.1447
 21
64.7333
 31
0.0
  0
LINE
  8
0
 62
     0
 10
12.1447
 20
64.7333
 30
0.0
 11
12.1447
 21
78.7329
 31
0.0
  0
LINE
  8
0
 62
     0
 10
35.9572
 20
78.7329
 30
0.0
 11
49.9579
 21
78.7329
 31
0.0
  0
LINE
  8
0
 62
     0
 10
49.9579
 20
78.7329
 30
0.0
 11
49.9579
 21
64.7333
 31
0.0
  0
LINE
  8
0
 62
     0
 10
49.9579
 20
64.7333
 30
0.0
 11
35.9572
 21
64.7333
 31
0.0
  0
LINE
  8
0
 62
     0
 10
35.9572
 20
64.7333
 30
0.0
 11
35.9572
 21
78.7329
 31
0.0
  0
LINE
  8
0
 62
     0
 10
55.0072
 20
78.7329
 30
0.0
 11
69.0079
 21
78.7329
 31
0.0
  0
LINE
  8
0
 62
     0
 10
69.0079
 20
78.7329
 30
0.0
 11
69.0079
 21
64.7333
 31
0.0
  0
LINE
  8
0
 62
     0
 10
69.0079
 20
64.7333
 30
0.0
 11
55.0072
 21
64.7333
 31
0.0
  0
LINE
  8
0
 62
     0
 10
55.0072
 20
64.7333
 30
0.0
 11
55.0072
 21
78.7329
 31
0.0
  0
LINE
  8
0
 62
     0
 10
74.0572
 20
78.7329
 30
0.0
 11
88.0579
 21
78.7329
 31
0.0
  0
LINE
  8
0
 62
     0
 10
88.0579
 20
78.7329
 30
0.0
 11
88.0579
 21
64.7333
 31
0.0
  0
LINE
  8
0
 62
     0
 10
88.0579
 20
64.7333
 30
0.0
 11
74.0572
 21
64.7333
 31
0.0
  0
LINE
  8
0
 62
     0
 10
74.0572
 20
64.7333
 30
0.0
 11
74.0572
 21
78.7329
 31
0.0
  0
LINE
  8
0
 62
     0
 10
93.1072
 20
78.7329
 30
0.0
 11
107.107
 21
78.7329
 31
0.0
  0
LINE
  8
0
 62
     0
 10
107.107
 20
78.7329
 30
0.0
 11
107.107
 21
64.7333
 31
0.0
  0
LINE
  8
0
 62
     0
 10
107.107
 20
64.7333
 30
0.0
 11
93.1072
 21
64.7333
 31
0.0
  0
LINE
  8
0
 62
     0
 10
93.1072
 20
64.7333
 30
0.0
 11
93.1072
 21
78.7329
 31
0.0
  0
LINE
  8
0
 62
     0
 10
112.157
 20
78.7329
 30
0.0
 11
126.157
 21
78.7329
 31
0.0
  0
LINE
  8
0
 62
     0
 10
126.157
 20
78.7329
 30
0.0
 11
126.157
 21
64.7333
 31
0.0
  0
LINE
  8
0
 62
     0
 10
126.157
 20
64.7333
 30
0.0
 11
112.157
 21
64.7333
 31
0.0
  0
LINE
  8
0
 62
     0
 10
112.157
 20
64.7333
 30
0.0
 11
112.157
 21
78.7329
 31
0.0
  0
LINE
  8
0
 62
     0
 10
131.207
 20
78.7329
 30
0.0
 11
145.208
 21
78.7329
 31
0.0
  0
LINE
  8
0
 62
     0
 10
145.208
 20
78.7329
 30
0.0
 11
145.208
 21
64.7333
 31
0.0
  0
LINE
  8
0
 62
     0
 10
145.208
 20
64.7333
 30
0.0
 11
131.207
 21
64.7333
 31
0.0
  0
LINE
  8
0
 62
     0
 10
131.207
 20
64.7333
 30
0.0
 11
131.207
 21
78.7329
 31
0.0
  0
LINE
  8
0
 62
     0
 10
150.257
 20
78.7329
 30
0.0
 11
164.258
 21
78.7329
 31
0.0
  0
LINE
  8
0
 62
     0
 10
164.258
 20
78.7329
 30
0.0
 11
164.258
 21
64.7333
 31
0.0
  0
LINE
  8
0
 62
     0
 10
164.258
 20
64.7333
 30
0.0
 11
150.257
 21
64.7333
 31
0.0
  0
LINE
  8
0
 62
     0
 10
150.257
 20
64.7333
 30
0.0
 11
150.257
 21
78.7329
 31
0.0
  0
LINE
  8
0
 62
     0
 10
169.307
 20
78.7329
 30
0.0
 11
183.308
 21
78.7329
 31
0.0
  0
LINE
  8
0
 62
     0
 10
183.308
 20
78.7329
 30
0.0
 11
183.308
 21
64.7333
 31
0.0
  0
LINE
  8
0
 62
     0
 10
183.308
 20
64.7333
 30
0.0
 11
169.307
 21
64.7333
 31
0.0
  0
LINE
  8
0
 62
     0
 10
169.307
 20
64.7333
 30
0.0
 11
169.307
 21
78.7329
 31
0.0
  0
LINE
  8
0
 62
     0
 10
188.357
 20
78.7329
 30
0.0
 11
202.358
 21
78.7329
 31
0.0
  0
LINE
  8
0
 62
     0
 10
202.358
 20
78.7329
 30
0.0
 11
202.358
 21
64.7333
 31
0.0
  0
LINE
  8
0
 62
     0
 10
202.358
 20
64.7333
 30
0.0
 11
188.357
 21
64.7333
 31
0.0
  0
LINE
  8
0
 62
     0
 10
188.357
 20
64.7333
 30
0.0
 11
188.357
 21
78.7329
 31
0.0
  0
LINE
  8
0
 62
     0
 10
207.407
 20
78.7329
 30
0.0
 11
221.408
 21
78.7329
 31
0.0
  0
LINE
  8
0
 62
     0
 10
221.408
 20
78.7329
 30
0.0
 11
221.408
 21
64.7333
 31
0.0
  0
LINE
  8
0
 62
     0
 10
221.408
 20
64.7333
 30
0.0
 11
207.407
 21
64.7333
 31
0.0
  0
LINE
  8
0
 62
     0
 10
207.407
 20
64.7333
 30
0.0
 11
207.407
 21
78.7329
 31
0.0
  0
LINE
  8
0
 62
     0
 10
226.457
 20
78.7329
 30
0.0
 11
240.458
 21
78.7329
 31
0.0
  0
LINE
  8
0
 62
     0
 10
240.458
 20
78.7329
 30
0.0
 11
240.458
 21
64.7333
 31
0.0
  0
LINE
  8
0
 62
     0
 10
240.458
 20
64.7333
 30
0.0
 11
226.457
 21
64.7333
 31
0.0
  0
LINE
  8
0
 62
     0
 10
226.457
 20
64.7333
 30
0.0
 11
226.457
 21
78.7329
 31
0.0
  0
LINE
  8
0
 62
     0
 10
245.507
 20
78.7329
 30
0.0
 11
259.508
 21
78.7329
 31
0.0
  0
LINE
  8
0
 62
     0
 10
259.508
 20
78.7329
 30
0.0
 11
259.508
 21
64.7333
 31
0.0
  0
LINE
  8
0
 62
     0
 10
259.508
 20
64.7333
 30
0.0
 11
245.507
 21
64.7333
 31
0.0
  0
LINE
  8
0
 62
     0
 10
245.507
 20
64.7333
 30
0.0
 11
245.507
 21
78.7329
 31
0.0
  0
LINE
  8
0
 62
     0
 10
269.32
 20
78.7329
 30
0.0
 11
283.319
 21
78.7329
 31
0.0
  0
LINE
  8
0
 62
     0
 10
283.319
 20
78.7329
 30
0.0
 11
283.319
 21
64.7333
 31
0.0
  0
LINE
  8
0
 62
     0
 10
283.319
 20
64.7333
 30
0.0
 11
269.32
 21
64.7333
 31
0.0
  0
LINE
  8
0
 62
     0
 10
269.32
 20
64.7333
 30
0.0
 11
269.32
 21
78.7329
 31
0.0
  0
LINE
  8
0
 62
     0
 10
264.557
 20
97.7829
 30
0.0
 11
264.557
 21
93.0836
 31
0.0
  0
LINE
  8
0
 62
     0
 10
264.557
 20
93.0836
 30
0.0
 11
263.033
 21
93.0836
 31
0.0
  0
LINE
  8
0
 62
     0
 10
263.033
 20
93.0836
 30
0.0
 11
263.033
 21
96.314
 31
0.0
  0
LINE
  8
0
 62
     0
 10
263.033
 20
96.314
 30
0.0
 11
256.282
 21
96.314
 31
0.0
  0
LINE
  8
0
 62
     0
 10
256.282
 20
96.314
 30
0.0
 11
256.282
 21
93.0836
 31
0.0
  0
LINE
  8
0
 62
     0
 10
256.282
 20
93.0836
 30
0.0
 11
255.458
 21
93.0836
 31
0.0
  0
LINE
  8
0
 62
     0
 10
255.458
 20
93.0836
 30
0.0
 11
255.458
 21
90.2836
 31
0.0
  0
LINE
  8
0
 62
     0
 10
255.458
 20
90.2836
 30
0.0
 11
256.282
 21
90.2836
 31
0.0
  0
LINE
  8
0
 62
     0
 10
256.282
 20
90.2836
 30
0.0
 11
256.282
 21
84.0133
 31
0.0
  0
LINE
  8
0
 62
     0
 10
256.282
 20
84.0133
 30
0.0
 11
258.007
 21
84.0133
 31
0.0
  0
LINE
  8
0
 62
     0
 10
258.007
 20
84.0133
 30
0.0
 11
258.007
 21
82.8132
 31
0.0
  0
LINE
  8
0
 62
     0
 10
258.007
 20
82.8132
 30
0.0
 11
261.308
 21
82.8132
 31
0.0
  0
LINE
  8
0
 62
     0
 10
261.308
 20
82.8132
 30
0.0
 11
261.308
 21
84.0133
 31
0.0
  0
LINE
  8
0
 62
     0
 10
261.308
 20
84.0133
 30
0.0
 11
263.033
 21
84.0133
 31
0.0
  0
LINE
  8
0
 62
     0
 10
263.033
 20
84.0133
 30
0.0
 11
263.033
 21
88.4837
 31
0.0
  0
LINE
  8
0
 62
     0
 10
263.033
 20
88.4837
 30
0.0
 11
264.557
 21
88.4837
 31
0.0
  0
LINE
  8
0
 62
     0
 10
264.557
 20
88.4837
 30
0.0
 11
264.557
 21
83.7833
 31
0.0
  0
LINE
  8
0
 62
     0
 10
264.557
 20
83.7833
 30
0.0
 11
278.558
 21
83.7833
 31
0.0
  0
LINE
  8
0
 62
     0
 10
278.558
 20
83.7833
 30
0.0
 11
278.558
 21
88.4837
 31
0.0
  0
LINE
  8
0
 62
     0
 10
278.558
 20
88.4837
 30
0.0
 11
280.082
 21
88.4837
 31
0.0
  0
LINE
  8
0
 62
     0
 10
280.082
 20
88.4837
 30
0.0
 11
280.082
 21
84.0133
 31
0.0
  0
LINE
  8
0
 62
     0
 10
280.082
 20
84.0133
 30
0.0
 11
281.807
 21
84.0133
 31
0.0
  0
LINE
  8
0
 62
     0
 10
281.807
 20
84.0133
 30
0.0
 11
281.807
 21
82.8132
 31
0.0
  0
LINE
  8
0
 62
     0
 10
281.807
 20
82.8132
 30
0.0
 11
285.108
 21
82.8132
 31
0.0
  0
LINE
  8
0
 62
     0
 10
285.108
 20
82.8132
 30
0.0
 11
285.108
 21
84.0133
 31
0.0
  0
LINE
  8
0
 62
     0
 10
285.108
 20
84.0133
 30
0.0
 11
286.833
 21
84.0133
 31
0.0
  0
LINE
  8
0
 62
     0
 10
286.833
 20
84.0133
 30
0.0
 11
286.833
 21
90.2836
 31
0.0
  0
LINE
  8
0
 62
     0
 10
286.833
 20
90.2836
 30
0.0
 11
287.657
 21
90.2836
 31
0.0
  0
LINE
  8
0
 62
     0
 10
287.657
 20
90.2836
 30
0.0
 11
287.657
 21
93.0836
 31
0.0
  0
LINE
  8
0
 62
     0
 10
287.657
 20
93.0836
 30
0.0
 11
286.833
 21
93.0836
 31
0.0
  0
LINE
  8
0
 62
     0
 10
286.833
 20
93.0836
 30
0.0
 11
286.833
 21
96.314
 31
0.0
  0
LINE
  8
0
 62
     0
 10
286.833
 20
96.314
 30
0.0
 11
280.082
 21
96.314
 31
0.0
  0
LINE
  8
0
 62
     0
 10
280.082
 20
96.314
 30
0.0
 11
280.082
 21
93.0836
 31
0.0
  0
LINE
  8
0
 62
     0
 10
280.082
 20
93.0836
 30
0.0
 11
278.558
 21
93.0836
 31
0.0
  0
LINE
  8
0
 62
     0
 10
278.558
 20
93.0836
 30
0.0
 11
278.558
 21
97.7829
 31
0.0
  0
LINE
  8
0
 62
     0
 10
278.558
 20
97.7829
 30
0.0
 11
264.557
 21
97.7829
 31
0.0
  0
LINE
  8
0
 62
     0
 10
7.38216
 20
97.7829
 30
0.0
 11
21.383
 21
97.7829
 31
0.0
  0
LINE
  8
0
 62
     0
 10
21.383
 20
97.7829
 30
0.0
 11
21.383
 21
83.7833
 31
0.0
  0
LINE
  8
0
 62
     0
 10
21.383
 20
83.7833
 30
0.0
 11
7.38216
 21
83.7833
 31
0.0
  0
LINE
  8
0
 62
     0
 10
7.38216
 20
83.7833
 30
0.0
 11
7.38216
 21
97.7829
 31
0.0
  0
LINE
  8
0
 62
     0
 10
26.4322
 20
97.7829
 30
0.0
 11
40.4329
 21
97.7829
 31
0.0
  0
LINE
  8
0
 62
     0
 10
40.4329
 20
97.7829
 30
0.0
 11
40.4329
 21
83.7833
 31
0.0
  0
LINE
  8
0
 62
     0
 10
40.4329
 20
83.7833
 30
0.0
 11
26.4322
 21
83.7833
 31
0.0
  0
LINE
  8
0
 62
     0
 10
26.4322
 20
83.7833
 30
0.0
 11
26.4322
 21
97.7829
 31
0.0
  0
LINE
  8
0
 62
     0
 10
45.4822
 20
97.7829
 30
0.0
 11
59.4829
 21
97.7829
 31
0.0
  0
LINE
  8
0
 62
     0
 10
59.4829
 20
97.7829
 30
0.0
 11
59.4829
 21
83.7833
 31
0.0
  0
LINE
  8
0
 62
     0
 10
59.4829
 20
83.7833
 30
0.0
 11
45.4822
 21
83.7833
 31
0.0
  0
LINE
  8
0
 62
     0
 10
45.4822
 20
83.7833
 30
0.0
 11
45.4822
 21
97.7829
 31
0.0
  0
LINE
  8
0
 62
     0
 10
64.5322
 20
97.7829
 30
0.0
 11
78.5329
 21
97.7829
 31
0.0
  0
LINE
  8
0
 62
     0
 10
78.5329
 20
97.7829
 30
0.0
 11
78.5329
 21
83.7833
 31
0.0
  0
LINE
  8
0
 62
     0
 10
78.5329
 20
83.7833
 30
0.0
 11
64.5322
 21
83.7833
 31
0.0
  0
LINE
  8
0
 62
     0
 10
64.5322
 20
83.7833
 30
0.0
 11
64.5322
 21
97.7829
 31
0.0
  0
LINE
  8
0
 62
     0
 10
83.5822
 20
97.7829
 30
0.0
 11
97.5829
 21
97.7829
 31
0.0
  0
LINE
  8
0
 62
     0
 10
97.5829
 20
97.7829
 30
0.0
 11
97.5829
 21
83.7833
 31
0.0
  0
LINE
  8
0
 62
     0
 10
97.5829
 20
83.7833
 30
0.0
 11
83.5822
 21
83.7833
 31
0.0
  0
LINE
  8
0
 62
     0
 10
83.5822
 20
83.7833
 30
0.0
 11
83.5822
 21
97.7829
 31
0.0
  0
LINE
  8
0
 62
     0
 10
102.632
 20
97.7829
 30
0.0
 11
116.633
 21
97.7829
 31
0.0
  0
LINE
  8
0
 62
     0
 10
116.633
 20
97.7829
 30
0.0
 11
116.633
 21
83.7833
 31
0.0
  0
LINE
  8
0
 62
     0
 10
116.633
 20
83.7833
 30
0.0
 11
102.632
 21
83.7833
 31
0.0
  0
LINE
  8
0
 62
     0
 10
102.632
 20
83.7833
 30
0.0
 11
102.632
 21
97.7829
 31
0.0
  0
LINE
  8
0
 62
     0
 10
121.682
 20
97.7829
 30
0.0
 11
135.683
 21
97.7829
 31
0.0
  0
LINE
  8
0
 62
     0
 10
135.683
 20
97.7829
 30
0.0
 11
135.683
 21
83.7833
 31
0.0
  0
LINE
  8
0
 62
     0
 10
135.683
 20
83.7833
 30
0.0
 11
121.682
 21
83.7833
 31
0.0
  0
LINE
  8
0
 62
     0
 10
121.682
 20
83.7833
 30
0.0
 11
121.682
 21
97.7829
 31
0.0
  0
LINE
  8
0
 62
     0
 10
140.732
 20
97.7829
 30
0.0
 11
154.733
 21
97.7829
 31
0.0
  0
LINE
  8
0
 62
     0
 10
154.733
 20
97.7829
 30
0.0
 11
154.733
 21
83.7833
 31
0.0
  0
LINE
  8
0
 62
     0
 10
154.733
 20
83.7833
 30
0.0
 11
140.732
 21
83.7833
 31
0.0
  0
LINE
  8
0
 62
     0
 10
140.732
 20
83.7833
 30
0.0
 11
140.732
 21
97.7829
 31
0.0
  0
LINE
  8
0
 62
     0
 10
159.782
 20
97.7829
 30
0.0
 11
173.783
 21
97.7829
 31
0.0
  0
LINE
  8
0
 62
     0
 10
173.783
 20
97.7829
 30
0.0
 11
173.783
 21
83.7833
 31
0.0
  0
LINE
  8
0
 62
     0
 10
173.783
 20
83.7833
 30
0.0
 11
159.782
 21
83.7833
 31
0.0
  0
LINE
  8
0
 62
     0
 10
159.782
 20
83.7833
 30
0.0
 11
159.782
 21
97.7829
 31
0.0
  0
LINE
  8
0
 62
     0
 10
178.832
 20
97.7829
 30
0.0
 11
192.833
 21
97.7829
 31
0.0
  0
LINE
  8
0
 62
     0
 10
192.833
 20
97.7829
 30
0.0
 11
192.833
 21
83.7833
 31
0.0
  0
LINE
  8
0
 62
     0
 10
192.833
 20
83.7833
 30
0.0
 11
178.832
 21
83.7833
 31
0.0
  0
LINE
  8
0
 62
     0
 10
178.832
 20
83.7833
 30
0.0
 11
178.832
 21
97.7829
 31
0.0
  0
LINE
  8
0
 62
     0
 10
197.882
 20
97.7829
 30
0.0
 11
211.883
 21
97.7829
 31
0.0
  0
LINE
  8
0
 62
     0
 10
211.883
 20
97.7829
 30
0.0
 11
211.883
 21
83.7833
 31
0.0
  0
LINE
  8
0
 62
     0
 10
211.883
 20
83.7833
 30
0.0
 11
197.882
 21
83.7833
 31
0.0
  0
LINE
  8
0
 62
     0
 10
197.882
 20
83.7833
 30
0.0
 11
197.882
 21
97.7829
 31
0.0
  0
LINE
  8
0
 62
     0
 10
216.932
 20
97.7829
 30
0.0
 11
230.933
 21
97.7829
 31
0.0
  0
LINE
  8
0
 62
     0
 10
230.933
 20
97.7829
 30
0.0
 11
230.933
 21
83.7833
 31
0.0
  0
LINE
  8
0
 62
     0
 10
230.933
 20
83.7833
 30
0.0
 11
216.932
 21
83.7833
 31
0.0
  0
LINE
  8
0
 62
     0
 10
216.932
 20
83.7833
 30
0.0
 11
216.932
 21
97.7829
 31
0.0
  0
LINE
  8
0
 62
     0
 10
235.982
 20
97.7829
 30
0.0
 11
249.983
 21
97.7829
 31
0.0
  0
LINE
  8
0
 62
     0
 10
249.983
 20
97.7829
 30
0.0
 11
249.983
 21
83.7833
 31
0.0
  0
LINE
  8
0
 62
     0
 10
249.983
 20
83.7833
 30
0.0
 11
235.982
 21
83.7833
 31
0.0
  0
LINE
  8
0
 62
     0
 10
235.982
 20
83.7833
 30
0.0
 11
235.982
 21
97.7829
 31
0.0
  0
LINE
  8
0
 62
     0
 10
7.38216
 20
116.834
 30
0.0
 11
21.383
 21
116.834
 31
0.0
  0
LINE
  8
0
 62
     0
 10
21.383
 20
116.834
 30
0.0
 11
21.383
 21
102.835
 31
0.0
  0
LINE
  8
0
 62
     0
 10
21.383
 20
102.835
 30
0.0
 11
7.38216
 21
102.835
 31
0.0
  0
LINE
  8
0
 62
     0
 10
7.38216
 20
102.835
 30
0.0
 11
7.38216
 21
116.834
 31
0.0
  0
LINE
  8
0
 62
     0
 10
26.4322
 20
116.834
 30
0.0
 11
40.4329
 21
116.834
 31
0.0
  0
LINE
  8
0
 62
     0
 10
40.4329
 20
116.834
 30
0.0
 11
40.4329
 21
102.835
 31
0.0
  0
LINE
  8
0
 62
     0
 10
40.4329
 20
102.835
 30
0.0
 11
26.4322
 21
102.835
 31
0.0
  0
LINE
  8
0
 62
     0
 10
26.4322
 20
102.835
 30
0.0
 11
26.4322
 21
116.834
 31
0.0
  0
LINE
  8
0
 62
     0
 10
45.4822
 20
116.834
 30
0.0
 11
59.4829
 21
116.834
 31
0.0
  0
LINE
  8
0
 62
     0
 10
59.4829
 20
116.834
 30
0.0
 11
59.4829
 21
102.835
 31
0.0
  0
LINE
  8
0
 62
     0
 10
59.4829
 20
102.835
 30
0.0
 11
45.4822
 21
102.835
 31
0.0
  0
LINE
  8
0
 62
     0
 10
45.4822
 20
102.835
 30
0.0
 11
45.4822
 21
116.834
 31
0.0
  0
LINE
  8
0
 62
     0
 10
64.5322
 20
116.834
 30
0.0
 11
78.5329
 21
116.834
 31
0.0
  0
LINE
  8
0
 62
     0
 10
78.5329
 20
116.834
 30
0.0
 11
78.5329
 21
102.835
 31
0.0
  0
LINE
  8
0
 62
     0
 10
78.5329
 20
102.835
 30
0.0
 11
64.5322
 21
102.835
 31
0.0
  0
LINE
  8
0
 62
     0
 10
64.5322
 20
102.835
 30
0.0
 11
64.5322
 21
116.834
 31
0.0
  0
LINE
  8
0
 62
     0
 10
83.5822
 20
116.834
 30
0.0
 11
97.5829
 21
116.834
 31
0.0
  0
LINE
  8
0
 62
     0
 10
97.5829
 20
116.834
 30
0.0
 11
97.5829
 21
102.835
 31
0.0
  0
LINE
  8
0
 62
     0
 10
97.5829
 20
102.835
 30
0.0
 11
83.5822
 21
102.835
 31
0.0
  0
LINE
  8
0
 62
     0
 10
83.5822
 20
102.835
 30
0.0
 11
83.5822
 21
116.834
 31
0.0
  0
LINE
  8
0
 62
     0
 10
102.632
 20
116.834
 30
0.0
 11
116.633
 21
116.834
 31
0.0
  0
LINE
  8
0
 62
     0
 10
116.633
 20
116.834
 30
0.0
 11
116.633
 21
102.835
 31
0.0
  0
LINE
  8
0
 62
     0
 10
116.633
 20
102.835
 30
0.0
 11
102.632
 21
102.835
 31
0.0
  0
LINE
  8
0
 62
     0
 10
102.632
 20
102.835
 30
0.0
 11
102.632
 21
116.834
 31
0.0
  0
LINE
  8
0
 62
     0
 10
121.682
 20
116.834
 30
0.0
 11
135.683
 21
116.834
 31
0.0
  0
LINE
  8
0
 62
     0
 10
135.683
 20
116.834
 30
0.0
 11
135.683
 21
102.835
 31
0.0
  0
LINE
  8
0
 62
     0
 10
135.683
 20
102.835
 30
0.0
 11
121.682
 21
102.835
 31
0.0
  0
LINE
  8
0
 62
     0
 10
121.682
 20
102.835
 30
0.0
 11
121.682
 21
116.834
 31
0.0
  0
LINE
  8
0
 62
     0
 10
140.732
 20
116.834
 30
0.0
 11
154.733
 21
116.834
 31
0.0
  0
LINE
  8
0
 62
     0
 10
154.733
 20
116.834
 30
0.0
 11
154.733
 21
102.835
 31
0.0
  0
LINE
  8
0
 62
     0
 10
154.733
 20
102.835
 30
0.0
 11
140.732
 21
102.835
 31
0.0
  0
LINE
  8
0
 62
     0
 10
140.732
 20
102.835
 30
0.0
 11
140.732
 21
116.834
 31
0.0
  0
LINE
  8
0
 62
     0
 10
159.782
 20
116.834
 30
0.0
 11
173.783
 21
116.834
 31
0.0
  0
LINE
  8
0
 62
     0
 10
173.783
 20
116.834
 30
0.0
 11
173.783
 21
102.835
 31
0.0
  0
LINE
  8
0
 62
     0
 10
173.783
 20
102.835
 30
0.0
 11
159.782
 21
102.835
 31
0.0
  0
LINE
  8
0
 62
     0
 10
159.782
 20
102.835
 30
0.0
 11
159.782
 21
116.834
 31
0.0
  0
LINE
  8
0
 62
     0
 10
178.832
 20
116.834
 30
0.0
 11
192.833
 21
116.834
 31
0.0
  0
LINE
  8
0
 62
     0
 10
192.833
 20
116.834
 30
0.0
 11
192.833
 21
102.835
 31
0.0
  0
LINE
  8
0
 62
     0
 10
192.833
 20
102.835
 30
0.0
 11
178.832
 21
102.835
 31
0.0
  0
LINE
  8
0
 62
     0
 10
178.832
 20
102.835
 30
0.0
 11
178.832
 21
116.834
 31
0.0
  0
LINE
  8
0
 62
     0
 10
197.882
 20
116.834
 30
0.0
 11
211.883
 21
116.834
 31
0.0
  0
LINE
  8
0
 62
     0
 10
211.883
 20
116.834
 30
0.0
 11
211.883
 21
102.835
 31
0.0
  0
LINE
  8
0
 62
     0
 10
211.883
 20
102.835
 30
0.0
 11
197.882
 21
102.835
 31
0.0
  0
LINE
  8
0
 62
     0
 10
197.882
 20
102.835
 30
0.0
 11
197.882
 21
116.834
 31
0.0
  0
LINE
  8
0
 62
     0
 10
216.932
 20
116.834
 30
0.0
 11
230.933
 21
116.834
 31
0.0
  0
LINE
  8
0
 62
     0
 10
230.933
 20
116.834
 30
0.0
 11
230.933
 21
102.835
 31
0.0
  0
LINE
  8
0
 62
     0
 10
230.933
 20
102.835
 30
0.0
 11
216.932
 21
102.835
 31
0.0
  0
LINE
  8
0
 62
     0
 10
216.932
 20
102.835
 30
0.0
 11
216.932
 21
116.834
 31
0.0
  0
LINE
  8
0
 62
     0
 10
235.982
 20
116.834
 30
0.0
 11
249.983
 21
116.834
 31
0.0
  0
LINE
  8
0
 62
     0
 10
249.983
 20
116.834
 30
0.0
 11
249.983
 21
102.835
 31
0.0
  0
LINE
  8
0
 62
     0
 10
249.983
 20
102.835
 30
0.0
 11
235.982
 21
102.835
 31
0.0
  0
LINE
  8
0
 62
     0
 10
235.982
 20
102.835
 30
0.0
 11
235.982
 21
116.834
 31
0.0
  0
LINE
  8
0
 62
     0
 10
255.032
 20
116.834
 30
0.0
 11
269.033
 21
116.834
 31
0.0
  0
LINE
  8
0
 62
     0
 10
269.033
 20
116.834
 30
0.0
 11
269.033
 21
102.835
 31
0.0
  0
LINE
  8
0
 62
     0
 10
269.033
 20
102.835
 30
0.0
 11
255.032
 21
102.835
 31
0.0
  0
LINE
  8
0
 62
     0
 10
255.032
 20
102.835
 30
0.0
 11
255.032
 21
116.834
 31
0.0
  0
LINE
  8
0
 62
     0
 10
274.082
 20
116.834
 30
0.0
 11
288.083
 21
116.834
 31
0.0
  0
LINE
  8
0
 62
     0
 10
288.083
 20
116.834
 30
0.0
 11
288.083
 21
102.835
 31
0.0
  0
LINE
  8
0
 62
     0
 10
288.083
 20
102.835
 30
0.0
 11
274.082
 21
102.835
 31
0.0
  0
LINE
  8
0
 62
     0
 10
274.082
 20
102.835
 30
0.0
 11
274.082
 21
116.834
 31
0.0
  0
ENDSEC
  0
EOF
